<?xml version="1.0" encoding="utf-8"?>
<!-- Generator: Adobe Illustrator 22.1.0, SVG Export Plug-In . SVG Version: 6.00 Build 0)  -->
<svg
     aria-labelledby="eyesightIconTitle eyesightIconDesc"
     style="enable-background:new 0 0 133.2 133.2;"
     version="1.1"
     viewBox="0 0 133.2 133.2"
     x="0px"
     xml:space="preserve"
     xmlns="http://www.w3.org/2000/svg"
     xmlns:xlink="http://www.w3.org/1999/xlink"
     y="0px"
>
    <title id="eyesightIconTitle">Eyesight icon</title>
    <desc id="eyesightIconDesc">A stylised image of a human eye</desc>
<style>
	.st1{fill:#FFFFFF;}
</style>
<g id="Base">
	<g id="Selected_Blocks_Page_3_">
	</g>
</g>
<g id="Footer">
	<g id="Selected_Blocks_Page_2_">
	</g>
	<g id="Main_Text_Page_2_">
	</g>
	<g id="Stats_Page_2_">
	</g>
	<g id="Videos_Page_2_">
	</g>
</g>
<g id="Content">
</g>
<g id="Header">
	<g>
		<g>
			<circle class="st0" cx="66.6" cy="66.6" r="66.6"/>
		</g>
		<g>
			<g>

					<ellipse transform="matrix(0.9871 -0.1602 0.1602 0.9871 -9.7148 11.5197)" class="st1" cx="66.6" cy="66" rx="13.4" ry="13.4"/>
				<path class="st1" d="M102.1,57.9c-8.1-7.5-21-17.3-35.6-17.3S39.1,50.4,31,57.9c-5.5,5.1-5.4,13.9,0.3,18.7
					c8.1,6.9,20.9,14.8,35.2,14.8s27.1-7.9,35.2-14.8C107.5,71.8,107.6,63,102.1,57.9z M97.6,71.6c-5.8,4.9-17.5,13.2-31,13.2
					s-25.2-8.3-31-13.2c-1.3-1.1-2-2.6-2-4.3c0-1.7,0.7-3.4,1.9-4.6C46.6,52.5,57,47.3,66.6,47.3s20,5.2,31.1,15.5
					c1.3,1.2,2,2.8,1.9,4.6C99.5,69,98.8,70.5,97.6,71.6z"/>
			</g>
			<g>
				<circle class="st0" cx="66.6" cy="64.8" r="6.7"/>
			</g>
		</g>
	</g>
</g>
</svg>
