<?xml version="1.0" encoding="utf-8"?>
<!-- Generator: Adobe Illustrator 22.1.0, SVG Export Plug-In . SVG Version: 6.00 Build 0)  -->
<svg version="1.1" xmlns="http://www.w3.org/2000/svg" xmlns:xlink="http://www.w3.org/1999/xlink" x="0px" y="0px"
	 viewBox="0 0 133.2 133.2" style="enable-background:new 0 0 133.2 133.2;" xml:space="preserve">
<style type="text/css">
	.st1{fill:#FFFFFF;}
</style>
<g id="Base">
	<g id="Selected_Blocks_Page_3_">
	</g>
</g>
<g id="Footer">
	<g id="Selected_Blocks_Page_2_">
	</g>
	<g id="Main_Text_Page_2_">
	</g>
	<g id="Stats_Page_2_">
	</g>
	<g id="Videos_Page_2_">
	</g>
</g>
<g id="Content">
</g>
<g id="Header">
	<g>
		<g>
			<circle class="st0" cx="66.6" cy="66.6" r="66.6"/>
		</g>
		<rect x="59.9" y="62.4" class="st1" width="12.5" height="8.3"/>
		<rect x="20.2" y="62.4" class="st1" width="9.2" height="8.3"/>
		<rect x="103" y="62.4" class="st1" width="9" height="8.3"/>
		<path class="st1" d="M50.2,45.6c-3.5,0-6.5,2.9-6.5,6.5v0.4c-1.2-1.2-2.9-1.9-4.6-1.9c-3.5,0-6.5,2.9-6.5,6.5v5.4v8.3v5.6
			c0,3.5,2.9,6.5,6.5,6.5c1.9,0,3.5-0.8,4.6-1.9v0.2c0,3.5,2.9,6.5,6.5,6.5s6.5-2.9,6.5-6.5V70.8v-8.3V52
			C56.6,48.5,53.7,45.6,50.2,45.6z"/>
		<path class="st1" d="M93.2,50.4c-1.9,0-3.5,0.8-4.6,1.9V52c0-3.5-2.9-6.5-6.5-6.5c-3.5,0-6.5,2.9-6.5,6.5v10.4v8.3v10.4
			c0,3.5,2.9,6.5,6.5,6.5c3.5,0,6.5-2.9,6.5-6.5v-0.4c1.2,1.2,2.9,1.9,4.6,1.9c3.5,0,6.5-2.9,6.5-6.5v-5.4v-8.3v-5.6
			C99.7,53.3,96.8,50.4,93.2,50.4z"/>
	</g>
</g>
</svg>
