<?xml version="1.0" encoding="utf-8"?>
<!-- Generator: Adobe Illustrator 22.0.1, SVG Export Plug-In . SVG Version: 6.00 Build 0)  -->
<svg
  aria-labelledby="holidayIconTitle holidayIconDesc"
  style="enable-background:new 0 0 160 160;"
  version="1.1"
  viewBox="0 0 160 160"
  x="0px"
  xml:space="preserve"
  xmlns="http://www.w3.org/2000/svg"
  xmlns:xlink="http://www.w3.org/1999/xlink"
  y="0px"
>
  <title id="holidayIconTitle">Holiday icon</title>
  <desc id="holidayIconDesc">A stylised image of an upright suitcase with handle and wheels and airline tag</desc>
  <path class="st0"
        d="M80,0C35.8,0,0,35.8,0,80c0,44.2,35.8,80,80,80c44.2,0,80-35.8,80-80C160,35.8,124.2,0,80,0z M64,40.4
        c0-4.6,3.8-8.4,8.4-8.4h15.2c4.6,0,8.4,3.8,8.4,8.4V48h-6.1v-7.6c0-1.3-1-2.3-2.3-2.3H72.4c-1.3,0-2.3,1-2.3,2.3V48H64V40.4z
        M67,128c-3.4,0-6.1-2.7-6.1-6.1h12.2C73.1,125.3,70.4,128,67,128z M93,128c-3.4,0-6.1-2.7-6.1-6.1H99C99,125.3,96.3,128,93,128z
        M112,111.8c0,3.4-2.7,6.1-6.1,6.1H54.1c-3.4,0-6.1-2.7-6.1-6.1V58.1c0-3.4,2.7-6.1,6.1-6.1H64v16.9l-5,6v19.2h16V74.9l-5-6V52h35.8
        c3.4,0,6.1,2.7,6.1,6.1V111.8z"/>
</svg>
