<?xml version="1.0" encoding="utf-8"?>
<!-- Generator: Adobe Illustrator 22.1.0, SVG Export Plug-In . SVG Version: 6.00 Build 0)  -->
<svg
  aria-labelledby="rolePlayIconTitle rolePlayIconDesc"
  style="enable-background:new 0 0 132 132;"
  version="1.1"
  viewBox="0 0 132 132"
  x="0px"
  xml:space="preserve"
  xmlns="http://www.w3.org/2000/svg"
  xmlns:xlink="http://www.w3.org/1999/xlink"
  y="0px"
>
  <title id="rolePlayIconTitle">Role play icon</title>
  <desc id="rolePlayIconDesc">Two speech balloons next to each other, offset vertically and horizontally from each other</desc>
  <style>
    .st1{fill:#FFFFFF;}
    .st2{fill:none;stroke-width:4;stroke-miterlimit:10;}
  </style>

  <circle class="st0" cx="66" cy="66" r="66"/>
  <path class="st1" d="M66.8,50.1h4.8v-9.4c0-3.5-2.8-6.3-6.3-6.3H31.1c-3.5,0-6.3,2.8-6.3,6.3v21.8c0,3.5,2.8,6.3,6.3,6.3h6.4
    l8.6,8.6v-8.6h9.7V61C55.9,55,60.8,50.1,66.8,50.1z"/>
  <path class="st1" d="M100.9,54.6H74h-1.2h-1.2h-4.8c-3.5,0-6.3,2.8-6.3,6.3v7.8V70v1.2v11.6c0,3.5,2.8,6.3,6.3,6.3h19.1v8.6
    l8.6-8.6h6.4c3.5,0,6.3-2.8,6.3-6.3V61C107.3,57.5,104.4,54.6,100.9,54.6z"/>
  <line class="st2" x1="71.6" y1="67.2" x2="96" y2="67.2"/>
  <line class="st2" x1="71.6" y1="75.3" x2="83.9" y2="75.3"/>
</svg>
