<?xml version="1.0" encoding="utf-8"?>
<!-- Generator: Adobe Illustrator 22.0.1, SVG Export Plug-In . SVG Version: 6.00 Build 0)  -->
<svg
  aria-labelledby="salaryIconTitle salaryIconDesc"
  style="enable-background:new 0 0 160 160;"
  version="1.1"
  viewBox="0 0 160 160"
  x="0px"
  xmlns="http://www.w3.org/2000/svg"
  xml:space="preserve"
  xmlns:xlink="http://www.w3.org/1999/xlink"
  y="0px"
>
  <title id="salaryIconTitle">Salary icon</title>
  <desc id="salaryIconDesc">A stylised image of a hand holding a pound note</desc>
<g>
	<path class="st0" d="M80.8,61.8c0.7-0.6,1.1-1.2,1.3-1.9c0.2-0.6,0.3-1.3,0.2-1.9h3.4v-2.8h-3.7c-0.2-0.7-0.3-1.3-0.3-2
		c0-1.3,0.6-2.6,2.5-2.6c1,0,1.8,0.2,2.3,0.5l0.7-3.1c-0.6-0.3-1.7-0.7-3.2-0.7c-3.7,0-6.1,2.3-6.1,5.6c0,0.8,0.1,1.5,0.2,2.2H76
		v2.8h2.7c0.1,0.4,0.1,0.7,0.1,1.1c0,1.8-1.6,3.4-3,4v2.2h12.4v-3.4L80.8,61.8L80.8,61.8z"/>
	<path class="st0" d="M80,0C35.8,0,0,35.8,0,80c0,44.2,35.8,80,80,80c44.2,0,80-35.8,80-80C160,35.8,124.2,0,80,0z M54,43.6h55.8
		v25.3H54V43.6z M130.1,78c-2.1,2.2-4.1,4.3-6.3,6.3c-5.5,5.5-11,11-16.5,16.5c-1.8,1.8-3.7,2.6-6,2.6c-0.2,0-0.4,0-0.5,0
		c-7.6,0-15.1,0-22.8,0c-7.8,0-15.7,0-23.5,0c-1,0-2.1,0.5-2.7,1.1c-2.9,2.9-8.7,8.7-8.7,8.7L28.5,95.4c0,0,12.1-12.1,18.1-18
		c1.1-1.1,3-1.9,4.5-1.9c6.7-0.1,13.5-0.1,20.3-0.1s13.5,0,20.3,0.1c3.3,0,5.5,2.3,5.5,5.2c0,3-2.3,5.2-5.5,5.2
		c-5.2,0-10.4,0-15.8,0c-1.1,0-1.9,0.1-1.9,1.5c0,1.5,1,1.5,2.1,1.5c8.8,0,17.6,0,26.4,0c0.8,0,1.9-0.5,2.6-1.1
		c5.6-5.5,11.3-11.1,16.8-16.8c1.3-1.3,2.5-2.2,4.2-2.2c0.3,0,0.6,0,1,0.1c2.1,0.4,3.4,1.5,4.1,3.6C132,74.7,131.4,76.5,130.1,78z"
		/>
</g>
</svg>
