<?xml version="1.0" encoding="utf-8"?>
<!-- Generator: Adobe Illustrator 22.0.1, SVG Export Plug-In . SVG Version: 6.00 Build 0)  -->
<svg
  aria-labelledby="trainingIconTitle trainingIconDesc"
  style="enable-background:new 0 0 160 160;"
  version="1.1"
  viewBox="0 0 160 160"
  x="0px"
  xml:space="preserve"
  xmlns="http://www.w3.org/2000/svg"
  xmlns:xlink="http://www.w3.org/1999/xlink"
  y="0px"
>
  <title id="trainingIconTitle">Training icon</title>
  <desc id="trainingIconDesc">A stylised cross-section of a human head revealing the silhouette of a brain</desc>
<g>
	<path class="st0" d="M80,0C35.8,0,0,35.8,0,80c0,44.2,35.8,80,80,80s80-35.8,80-80C160,35.8,124.2,0,80,0z M116.5,80.5
		C116.5,80.5,116.5,80.5,116.5,80.5c-6.1,12.7-8.7,26.4-7.6,39.9c0.1,1.2-0.8,2.2-2,2.2H68.8l-1.9-7.7c-0.6-2.5-2.8-4.2-5.2-4.2
		h-5.8c-3.1,0-5.5-2.1-5.8-5.2l-1.5-13.6c-0.1-1.7-1.4-3.1-3.1-3.5l-2.4-0.7c-1.2-0.4-1.8-1.1-2-1.4c-0.4-0.4-0.6-1-0.6-1.5
		c-0.1-0.3-0.2-1.5,0.6-2.7c2.3-2.9,4.3-6.3,6.1-10.1c0.9-1.7,1.3-3.9,1.3-6.4c0.2-19.9,16.3-36.1,35.9-36.1c1.4,0,2.8,0,4.2,0.2
		c16,1.8,29.1,14.8,31.2,30.8C120.4,67.2,119.4,74.1,116.5,80.5z"/>
	<path class="st0" d="M105.4,62.5l0-0.1c-0.2-0.5-0.2-0.6-0.1-0.8c0.3-0.8,0.3-1.6,0.3-2.3c0-3.6-2.1-6.7-5.1-7.7
		c-0.3-0.1-0.5-0.3-0.6-0.7c-1.3-3.3-4.4-5.1-7.5-4.3c-0.4,0.1-0.8,0-1-0.2c-0.8-1-2.4-2.2-4.5-2.2c-1.3,0-2.6,0.5-3.8,1.4
		c-0.3,0.3-0.8,0.2-1.1,0c-3-1.7-6.4-0.7-8.6,2.5c-0.3,0.4-0.6,0.6-1,0.6l-0.3,0c-3.1,0.3-5.8,2.8-6.6,6.1c-0.1,0.4-0.4,0.8-0.8,0.9
		c-3.1,1.5-4.7,5-4.3,8.9c0.5,3.4,2.9,6.2,5.9,6.7c1.8,0.2,3.6-0.2,5-1.4c0.3-0.3,0.8-0.2,1.2,0.1c2.1,1.6,5,1.6,7.2,0.1
		c0.6-0.3,1.2-0.2,1.6,0c0.4,0.4,1,1,2.2,1.7c3.9,2.3,6.1,7.1,5.7,12.2l-0.5,7h6.8l0.1-0.9c0.3-1.6,0.7-3.2,1.4-4.7
		c1-2.3,2.7-4.3,4.9-5.9c1.8-1.5,2.9-3.8,3.2-6.2c0,0,0.1-0.1,0.1-0.2c0.1-0.1,0.1-0.2,0.2-0.3c1.2-1.9,1.6-3.8,1.2-5.7
		C106.6,65.7,106.4,64.1,105.4,62.5z"/>
</g>
</svg>
