<?xml version="1.0" encoding="utf-8"?>
<!-- Generator: Adobe Illustrator 22.0.1, SVG Export Plug-In . SVG Version: 6.00 Build 0)  -->
<svg version="1.1" id="Layer_1" xmlns="http://www.w3.org/2000/svg" xmlns:xlink="http://www.w3.org/1999/xlink" x="0px" y="0px"
	 viewBox="0 0 26.2 31.7" style="enable-background:new 0 0 26.2 31.7;" xml:space="preserve">
<style type="text/css">
	.st0{fill:#1498C5;}
	.st1{fill:#FFFFFF;}
</style>
<g>
	<g>
		<path class="st0" d="M4,22.2C-1,17.2-1,9,4,4c2.4-2.4,5.7-3.8,9.1-3.8c3.4,0,6.7,1.3,9.1,3.8c5,5,5,13.2,0,18.2l-9.1,9.1L4,22.2z"
			/>
		<path class="st1" d="M13.1,0.5c3.2,0,6.5,1.2,8.9,3.7c4.9,4.9,4.9,12.9,0,17.8l-8.9,8.9L4.2,22c-4.9-4.9-4.9-12.9,0-17.8
			C6.7,1.7,9.9,0.5,13.1,0.5 M13.1,0C9.6,0,6.3,1.4,3.8,3.8c-5.1,5.1-5.1,13.4,0,18.5l8.9,8.9l0.4,0.4l0.4-0.4l8.9-8.9
			c5.1-5.1,5.1-13.4,0-18.5C19.9,1.4,16.6,0,13.1,0L13.1,0z"/>
	</g>
	<circle class="st1" cx="13.1" cy="13.1" r="6.8"/>
</g>
</svg>
