<?xml version="1.0" encoding="utf-8"?>
<!-- Generator: Adobe Illustrator 22.0.1, SVG Export Plug-In . SVG Version: 6.00 Build 0)  -->
<svg version="1.1" id="Layer_1" xmlns="http://www.w3.org/2000/svg" xmlns:xlink="http://www.w3.org/1999/xlink" x="0px" y="0px"
	 viewBox="0 0 32.9 32.9" style="enable-background:new 0 0 32.9 32.9;" xml:space="preserve">
<style type="text/css">
	.st0{fill:none;}
</style>
<g>
	<g>
		<path class="st0" d="M21.2,11.7v0.9c0,0.2-0.1,0.3-0.2,0.3l-7.5,3.4c-0.1,0-0.1,0.1,0,0.1l7.5,3.4c0.1,0.1,0.2,0.2,0.2,0.3v0.9
			c0,0.2-0.1,0.3-0.3,0.2l-8.9-4.1c-0.1-0.1-0.2-0.2-0.2-0.4V16c0-0.2,0.1-0.3,0.2-0.4l8.9-4.1C21.1,11.4,21.2,11.5,21.2,11.7z"/>
	</g>
</g>
<g>
	<path class="st0" d="M28.5,32.9h-24c-2.5,0-4.5-2-4.5-4.5v-24C0,2,2,0,4.5,0h24c2.5,0,4.5,2,4.5,4.5v24
		C32.9,30.9,30.9,32.9,28.5,32.9z M4.5,0.9c-2,0-3.5,1.6-3.5,3.5v24c0,2,1.6,3.5,3.5,3.5h24c2,0,3.5-1.6,3.5-3.5v-24
		c0-2-1.6-3.5-3.5-3.5H4.5z"/>
</g>
</svg>
