<?xml version="1.0" encoding="utf-8"?>
<!-- Generator: Adobe Illustrator 21.1.0, SVG Export Plug-In . SVG Version: 6.00 Build 0)  -->
<svg version="1.1" id="Layer_1" xmlns="http://www.w3.org/2000/svg" xmlns:xlink="http://www.w3.org/1999/xlink" x="0px" y="0px"
	 viewBox="0 0 75.1 32" style="enable-background:new 0 0 75.1 32;" xml:space="preserve">
<style type="text/css">
	.st0{fill:#FFFFFF;}
</style>
<g>
	<path class="st0" d="M10.5,2c-0.1,0.1-0.1,0.2-0.1,0.3c0,0.1,0.1,0.2,0.2,0.3c0-0.1,0.1-0.2,0.1-0.3C10.7,2.2,10.5,2.1,10.5,2"/>
	<path class="st0" d="M12.4,2c0.1,0.1,0.1,0.2,0.1,0.3c0,0.1-0.1,0.2-0.2,0.3c0-0.1-0.1-0.2-0.1-0.3C12.2,2.2,12.3,2.1,12.4,2"/>
	<path class="st0" d="M9.5,2c0.1,0,0.1-0.1,0.1-0.1c0-0.1-0.1-0.1-0.1-0.1c-0.1,0-0.1,0.1-0.1,0.1C9.3,1.9,9.4,2,9.5,2"/>
	<path class="st0" d="M9.5,2.1C9.5,2.1,9.5,2,9.4,2C9.3,2,9.3,2.1,9.3,2.1c0,0.1,0.1,0.1,0.1,0.1C9.5,2.3,9.5,2.2,9.5,2.1"/>
	<path class="st0" d="M9.6,2.4c0-0.1-0.1-0.1-0.1-0.1c-0.1,0-0.1,0.1-0.1,0.1c0,0.1,0.1,0.1,0.1,0.1C9.5,2.6,9.6,2.5,9.6,2.4"/>
	<path class="st0" d="M10.1,1.4c0.1,0,0.1-0.1,0.1-0.1c0-0.1-0.1-0.1-0.1-0.1c-0.1,0-0.1,0.1-0.1,0.1C10,1.3,10.1,1.4,10.1,1.4"/>
	<path class="st0" d="M9.8,1.5c0.1,0,0.1-0.1,0.1-0.1c0-0.1-0.1-0.1-0.1-0.1c-0.1,0-0.1,0.1-0.1,0.1C9.7,1.4,9.8,1.5,9.8,1.5"/>
	<path class="st0" d="M9.6,1.7c0.1,0,0.1-0.1,0.1-0.1c0-0.1-0.1-0.1-0.1-0.1c-0.1,0-0.1,0.1-0.1,0.1C9.5,1.6,9.5,1.7,9.6,1.7"/>
	<path class="st0" d="M10.5,1.4c0.1,0,0.1-0.1,0.1-0.1c0-0.1-0.1-0.1-0.1-0.1c-0.1,0-0.1,0.1-0.1,0.1C10.3,1.4,10.4,1.4,10.5,1.4"/>
	<path class="st0" d="M10.8,1.5c0.1,0,0.1-0.1,0.1-0.1c0-0.1-0.1-0.1-0.1-0.1c-0.1,0-0.1,0.1-0.1,0.1C10.7,1.4,10.7,1.5,10.8,1.5"/>
	<path class="st0" d="M11.1,1.6c0.1,0,0.1-0.1,0.1-0.1c0-0.1-0.1-0.1-0.1-0.1c-0.1,0-0.1,0.1-0.1,0.1C10.9,1.6,11,1.6,11.1,1.6"/>
	<path class="st0" d="M13.3,1.8c0,0.1,0.1,0.1,0.1,0.1s0.1-0.1,0.1-0.1c0-0.1-0.1-0.1-0.1-0.1S13.3,1.8,13.3,1.8"/>
	<path class="st0" d="M13.4,2c-0.1,0-0.1,0.1-0.1,0.1c0,0.1,0.1,0.1,0.1,0.1c0.1,0,0.1-0.1,0.1-0.1C13.6,2.1,13.5,2,13.4,2"/>
	<path class="st0" d="M13.4,2.3c-0.1,0-0.1,0.1-0.1,0.1c0,0.1,0.1,0.1,0.1,0.1c0.1,0,0.1-0.1,0.1-0.1C13.5,2.4,13.5,2.3,13.4,2.3"/>
	<path class="st0" d="M12.7,1.4c0.1,0,0.1-0.1,0.1-0.1c0-0.1-0.1-0.1-0.1-0.1c-0.1,0-0.1,0.1-0.1,0.1C12.6,1.3,12.7,1.4,12.7,1.4"/>
	<path class="st0" d="M13,1.5c0.1,0,0.1-0.1,0.1-0.1c0-0.1-0.1-0.1-0.1-0.1c-0.1,0-0.1,0.1-0.1,0.1C12.9,1.4,13,1.5,13,1.5"/>
	<path class="st0" d="M13.3,1.7c0.1,0,0.1-0.1,0.1-0.1c0-0.1-0.1-0.1-0.1-0.1c-0.1,0-0.1,0.1-0.1,0.1C13.1,1.6,13.2,1.7,13.3,1.7"/>
	<path class="st0" d="M12.4,1.4c0.1,0,0.1-0.1,0.1-0.1c0-0.1-0.1-0.1-0.1-0.1c-0.1,0-0.1,0.1-0.1,0.1C12.3,1.4,12.3,1.4,12.4,1.4"/>
	<path class="st0" d="M12.1,1.5c0.1,0,0.1-0.1,0.1-0.1c0-0.1-0.1-0.1-0.1-0.1C12,1.2,12,1.3,12,1.4C12,1.4,12,1.5,12.1,1.5"/>
	<path class="st0" d="M11.7,1.5c0,0.1,0.1,0.1,0.1,0.1c0.1,0,0.1-0.1,0.1-0.1s-0.1-0.1-0.1-0.1C11.7,1.4,11.7,1.4,11.7,1.5"/>
	<path class="st0" d="M11.2,2.2h0.1V1.6c0,0-0.1,0-0.1,0V2.2z"/>
	<path class="st0" d="M11.6,1.6c0,0-0.1,0-0.1,0v0.5h0.1V1.6z"/>
	<path class="st0" d="M11.4,1V0.7c-0.2,0-0.3,0.2-0.3,0.3H11.4z"/>
	<path class="st0" d="M11.5,1h0.3c0-0.2-0.1-0.3-0.3-0.3V1z"/>
	<path class="st0" d="M11.1,1.2c0,0.2,0.2,0.3,0.4,0.3c0.2,0,0.3-0.1,0.4-0.3H11.1z"/>
	<path class="st0" d="M11.6,0.7c-0.1-0.1-0.2-0.2-0.2-0.3c0.1,0,0.2,0.1,0.3,0.2V0.1c-0.1,0.1-0.2,0.2-0.3,0.2
		c0-0.1,0.1-0.2,0.2-0.3h-0.4c0.1,0.1,0.2,0.2,0.2,0.3c-0.1,0-0.2-0.1-0.3-0.2v0.4c0.1-0.1,0.2-0.2,0.3-0.2c0,0.1-0.1,0.2-0.2,0.3
		H11.6z"/>
	<path class="st0" d="M11.7,9.6c-0.1,0-0.2-0.1-0.2-0.2c0-0.1,0.1-0.2,0.2-0.2c0.1,0,0.2,0.1,0.2,0.2C11.8,9.5,11.7,9.6,11.7,9.6
		 M10.9,9.3c-0.1,0-0.2-0.1-0.2-0.2c0-0.1,0.1-0.2,0.2-0.2c0.1,0,0.2,0.1,0.2,0.2C11.1,9.3,11,9.3,10.9,9.3 M10.7,8.6L10.7,8.6
		c-0.1-0.1-0.2-0.1-0.2,0c0,0-0.1,0.1-0.1,0.1l0,0l0,0c0.1,0.1,0.1,0.1,0.1,0.2c0,0,0,0,0,0c0,0-0.1,0-0.2,0l0,0l0,0c0,0,0,0,0,0
		c0,0,0,0,0,0c0,0.1,0,0.1,0,0.1c0,0,0,0,0,0c0,0,0,0.1,0.1,0.1l0,0c0,0,0.1,0.1,0.1,0.1c-0.1,0-0.1,0-0.2,0C10,9.3,9.9,9.1,9.9,9.1
		c0-0.1,0-0.2,0.1-0.3l0,0l0,0c0,0,0-0.1-0.1-0.1c0,0,0.1,0,0.1,0l0,0l0,0c0-0.1,0.2-0.2,0.4-0.2C10.5,8.4,10.6,8.4,10.7,8.6
		C10.7,8.5,10.7,8.6,10.7,8.6C10.7,8.6,10.7,8.6,10.7,8.6 M12.1,9.2c-0.4-0.1-0.9-0.3-1.3-0.5l0,0c0-0.1,0-0.2-0.1-0.3
		c-0.1-0.1-0.2-0.1-0.2-0.1c0,0-0.1,0-0.1,0c-0.1-0.1-0.1-0.1-0.2-0.2C10,8,9.9,7.8,9.8,7.5C9.7,7.4,9.7,7.2,9.7,7.1
		c0,0.1-0.2,0.3-0.4,0.3c0,0,0-0.1,0-0.1C9.2,7.3,9.1,7.4,8.9,7.3C8.9,7.5,9,7.7,9,7.8c0.1,0.4,0.3,0.7,0.6,0.9C9.7,8.9,9.7,9,9.8,9
		c0,0,0,0,0,0.1c0,0.1,0.1,0.2,0.2,0.3c0.1,0.1,0.2,0,0.3,0c0.2,0.1,0.4,0.2,0.7,0.3c0.3,0.1,0.6,0.1,0.8,0.1c0.2,0,0.4-0.1,0.7-0.2
		c0.1-0.1,0.2-0.1,0.3-0.2c0,0,0,0,0,0C12.6,9.3,12.3,9.2,12.1,9.2"/>
	<path class="st0" d="M12,10.8c0-0.1-0.1-0.1-0.1-0.1c-0.2,0-0.1,0.4-0.3,0.4c-0.1,0-0.1-0.1-0.1-0.1c0-0.1,0-0.1,0-0.1
		c0,0,0-0.1-0.1-0.1c0,0-0.1,0-0.1,0.1c0,0,0,0.1,0,0.1c0,0.1,0,0.1-0.1,0.1c-0.2,0-0.1-0.4-0.3-0.4c0,0-0.1,0-0.1,0.1
		c0-0.1,0-0.1,0-0.2c0-0.1,0.1-0.2,0.2-0.2c0.2,0,0.2,0.3,0.3,0.3c0,0,0.1,0,0.1-0.1c0-0.1-0.1-0.2-0.1-0.3c0-0.1,0.1-0.2,0.2-0.3
		c0.1,0.1,0.2,0.2,0.2,0.3c0,0.1-0.1,0.2-0.1,0.3c0,0,0,0.1,0.1,0.1c0.1,0,0.1-0.3,0.3-0.3c0.1,0,0.2,0.1,0.2,0.2
		C12,10.7,12,10.7,12,10.8 M11.4,11.4c-0.1,0-0.1,0-0.1-0.1c0-0.1,0-0.1,0.1-0.1c0.1,0,0.1,0,0.1,0.1C11.5,11.3,11.5,11.4,11.4,11.4
		 M11.9,10.3C11.8,10.3,11.8,10.3,11.9,10.3l-0.1-0.5c-0.2,0-0.4,0-0.7-0.1v0.6c0,0-0.1,0-0.1,0c-0.2,0-0.3,0.1-0.3,0.3
		c0,0.1,0.1,0.2,0.1,0.3c0-0.1,0.1-0.1,0.1-0.1c0.1,0,0,0.4,0.3,0.4c0,0,0,0,0,0.1c0,0.1,0.1,0.2,0.2,0.2s0.2-0.1,0.2-0.2
		c0,0,0,0,0-0.1c0.2,0,0.2-0.4,0.3-0.4c0,0,0.1,0.1,0.1,0.1c0.1-0.1,0.1-0.2,0.1-0.3C12.1,10.5,12,10.3,11.9,10.3"/>
	<path class="st0" d="M17.4,10.9C17.3,10.9,17.3,10.9,17.4,10.9c-0.6,0.1-1.3-0.3-1.9-0.8c-0.6-0.4-1.1-0.7-1.5-0.7
		c-0.2,0-0.3,0-0.4,0.1c-0.2,0.1-0.3,0.2-0.3,0.4c-0.1,0.2-0.2,0.3-0.2,0.4c-0.1,0.1-0.1,0.2-0.1,0.3c0,0.1,0,0.2,0.1,0.2
		c0.1,0.1,0.2,0.1,0.3,0.2c0,0,0.1,0,0.1,0c0.1,0.1,0.2,0.1,0.2,0.1c-0.2,0.1-0.5,0.2-0.8,0.2c-0.4,0.1-0.8,0.1-1.2,0.1
		c-0.4,0-0.8,0-1.2-0.1c-0.3-0.1-0.6-0.1-0.8-0.2c0-0.1,0.1-0.1,0.2-0.2c0,0,0.1,0,0.1,0c0.1-0.1,0.2-0.1,0.3-0.2
		c0.1-0.1,0.1-0.1,0.1-0.2c0-0.1-0.1-0.2-0.1-0.3c-0.1-0.1-0.1-0.2-0.2-0.4C9.7,9.7,9.6,9.6,9.4,9.5C9.3,9.5,9.2,9.4,9,9.4
		c-0.4,0-1,0.3-1.5,0.7c-0.7,0.4-1.3,0.9-1.9,0.7c0,0-0.1,0-0.1,0c0,0,0,0.1,0,0.1C5.7,11,5.9,11.2,6,11.3c0.2,0.2,0.4,0.3,0.6,0.3
		c0.2,0,0.4-0.1,0.7-0.2c0.2-0.1,0.4-0.3,0.7-0.4c0.4-0.3,0.9-0.6,1.3-0.6c0,0-0.1,0.1-0.1,0.1c-0.1,0.1-0.2,0.2-0.2,0.4
		c0,0.2,0.1,0.3,0.1,0.4c0,0,0,0.1,0.1,0.2c0,0.1,0.1,0.2,0.1,0.3c0,0,0,0.1,0,0.2c0,0.1,0.1,0.3,0.4,0.4c0.4,0.2,1,0.3,1.8,0.3
		c0.9,0,1.5-0.1,1.8-0.3c0.3-0.2,0.4-0.3,0.4-0.4c0-0.1,0-0.1,0-0.2c0-0.1,0-0.2,0.1-0.3c0-0.1,0.1-0.1,0.1-0.2
		C14,11.1,14,11,14,10.9c0-0.2-0.1-0.3-0.2-0.4c0,0-0.1-0.1-0.1-0.1c0.4,0,0.9,0.3,1.3,0.6c0.2,0.2,0.5,0.3,0.7,0.4
		c0.3,0.1,0.5,0.2,0.7,0.2c0.2,0,0.4-0.1,0.6-0.3C17,11.2,17.2,11,17.4,10.9C17.4,11,17.4,10.9,17.4,10.9"/>
	<path class="st0" d="M11.5,6.6V4.6c0.2,0,0.4,0.1,0.6,0.2c0.2,0.1,0.4,0.3,0.6,0.4c0.2,0.2,0.3,0.4,0.4,0.7
		c0.1,0.2,0.1,0.5,0.1,0.8H11.5z M11.4,3.7c-0.6,0-1,0.2-1.2,0.3C10.1,4,10,3.9,10,3.8c0-0.3,0.9-0.4,1.4-0.4h0c0.5,0,1.4,0,1.4,0.4
		c0,0.1-0.1,0.2-0.2,0.3C12.4,3.9,12,3.7,11.4,3.7 M11.4,6.6H9.7c0-0.3,0-0.5,0.1-0.8c0.1-0.3,0.2-0.5,0.4-0.7
		c0.2-0.2,0.4-0.3,0.6-0.4c0.2-0.1,0.4-0.2,0.7-0.2V6.6z M14.1,6.5c-0.1,0-0.2-0.1-0.2-0.2c-0.1-0.1-0.3-0.7-0.4-0.7
		c0-0.1-0.1-0.1-0.1-0.2c0-0.1,0-0.1,0.1-0.1c0,0,0.1-0.1,0.1-0.1c0,0,0,0,0-0.1c-0.1-0.2-0.2-0.3-0.3-0.4c-0.2-0.2-0.3-0.3-0.5-0.5
		C12.9,4.1,13,4,13,3.8c0-0.1,0-0.2-0.1-0.2c0.1-0.4,0.3-0.8,0.5-1L13,2.5c0.1,0.1,0.1,0.3,0.1,0.4c-0.1-0.1-0.2-0.2-0.2-0.3
		c0,0.1-0.1,0.3-0.1,0.4c0.1,0,0.2-0.1,0.3,0C13,3,12.8,3.2,12.6,3.1c-0.1,0-0.2-0.1-0.2-0.2c0-0.1,0-0.1,0.1-0.1
		c0.1,0,0.1,0.1,0.1,0.2c0.1-0.1,0.2-0.4,0-0.4c-0.1,0-0.2,0.1-0.3,0.3c0-0.2-0.1-0.3-0.2-0.3c-0.2,0-0.1,0.3-0.1,0.4
		c0-0.1,0.1-0.2,0.1-0.2c0,0,0.1,0,0.1,0.1c0,0.1-0.1,0.2-0.3,0.2c-0.1,0-0.4,0-0.4-0.3c0.1,0,0.2,0.1,0.3,0.2c0-0.2,0-0.3,0-0.5
		c-0.1,0.1-0.2,0.2-0.3,0.2c0-0.1,0.1-0.3,0.3-0.3h-0.6c0.1,0.1,0.2,0.2,0.3,0.3c-0.1,0-0.2-0.1-0.3-0.2c0,0.2,0,0.3,0,0.5
		c0.1-0.1,0.2-0.2,0.3-0.2c0,0.3-0.3,0.3-0.4,0.3c-0.2,0-0.3-0.1-0.3-0.2c0-0.1,0-0.1,0.1-0.1c0,0,0.1,0.1,0.1,0.2
		c0.1-0.1,0.1-0.4-0.1-0.4c-0.1,0-0.2,0.1-0.2,0.3c0-0.1-0.2-0.3-0.3-0.3c-0.2,0-0.1,0.3,0,0.4c0-0.1,0-0.2,0.1-0.2
		c0.1,0,0.1,0.1,0.1,0.1c0,0.1-0.1,0.2-0.2,0.2C10.1,3.2,9.9,3,9.8,3c0.1,0,0.2,0,0.3,0C10.1,2.9,10,2.7,10,2.6
		c0,0.1-0.1,0.2-0.2,0.3c0-0.1,0-0.3,0.1-0.4L9.5,2.6c0.2,0.2,0.4,0.6,0.5,1C9.9,3.6,9.9,3.7,9.9,3.8c0,0.2,0.1,0.3,0.2,0.3
		C9.9,4.3,9.7,4.4,9.6,4.6C9.3,4.9,9.1,5.2,9,5.5c0,0,0.3,0.3,0.3,0.3C9.4,6,9.5,6.1,9.5,6.2c0,0.2,0,0.2,0.1,0.3
		c0,0,0.1,0.2,0.1,0.2h1.7v1.9c-0.1,0-0.1,0-0.2,0.1c0.2,0.1,0.4,0.2,0.6,0.2c0-0.1,0-0.2,0.1-0.3c0,0-0.3,0-0.4,0V6.8h1.7
		c0,0.3-0.1,0.5-0.1,0.8C13,7.8,12.9,8,12.7,8.2c-0.2,0.2-0.4,0.3-0.6,0.4c0,0,0,0-0.1,0.1c0,0-0.1,0.1-0.1,0.2c0,0.1,0,0.1,0,0.2
		c0.1,0,0.1,0,0.2,0.1c0.6,0.2,0.7,0.1,0.8,0.1l0,0c0.1-0.1,0.3-0.2,0.4-0.4c0.2-0.3,0.4-0.6,0.6-0.9c0.1-0.4,0.2-0.8,0.2-1.2
		C14.1,6.6,14.1,6.6,14.1,6.5"/>
	<path class="st0" d="M12.5,5.4C12.4,5.4,12.4,5.5,12.5,5.4C12.5,5.5,12.5,5.5,12.5,5.4c0,0.1,0,0.1,0,0.2c0,0,0.1,0,0.1,0
		c0,0,0,0,0,0.1c0,0,0,0,0,0c0.1,0.2,0.2,0.4,0.3,0.7c0,0,0,0-0.1,0c0,0,0,0.1,0,0.1h-0.4c0,0,0-0.1,0-0.1c0,0,0,0-0.1,0
		c0,0,0-0.1,0-0.1c0,0,0,0,0,0.1c0,0,0,0-0.1,0c0,0,0,0,0,0.1h-0.4c0,0,0,0,0-0.1c0,0-0.1,0-0.1,0V5.7c0,0,0.1,0,0.1,0
		c0,0,0,0,0-0.1c0,0,0.1,0,0.1,0c0,0,0,0-0.1,0c0,0,0,0,0-0.1c0,0,0,0-0.1,0V5c0,0,0,0,0.1,0c0,0,0-0.1,0-0.1C11.9,5,12,5,12.1,5.1
		C12.2,5.2,12.4,5.3,12.5,5.4 M12.9,6.3C13,6.3,13,6.4,12.9,6.3c-0.1-0.2-0.2-0.6-0.3-0.8c0,0,0,0,0,0c0,0,0.1,0,0.1-0.1
		c-0.1,0-0.1,0-0.1,0c0,0,0,0,0,0c-0.1-0.1-0.2-0.3-0.4-0.3C12,5,11.9,4.9,11.7,4.9c0,0,0,0,0.1,0c0-0.1,0-0.1-0.1-0.1c0,0,0,0,0,0
		c0,0,0,0-0.1,0c0,0,0,0.1,0,0.1c0,0,0,0,0,0c0,0,0,0.1,0.1,0.1c0,0,0-0.1,0-0.1v0.7c0,0-0.1,0-0.1,0c0,0,0.1,0,0.1,0v0.7
		c0,0,0,0,0-0.1c-0.1,0-0.1,0-0.1,0.1c0,0,0,0,0.1,0c0,0,0,0,0,0.1c0,0,0.1,0,0.1,0c0,0,0,0,0,0.1c0,0,0.1,0,0.1-0.1
		c0,0-0.1,0-0.1,0h0.5c0,0,0,0.1,0,0.1c0,0,0-0.1,0-0.1h0.6c0,0,0,0-0.1,0c0,0.1,0.1,0.1,0.1,0.1c0,0,0,0,0-0.1c0,0,0,0,0.1,0
		c0,0,0-0.1,0-0.1C13,6.4,13,6.4,12.9,6.3C13,6.4,13,6.3,12.9,6.3"/>
	<path class="st0" d="M12.6,6.1C12.7,6.1,12.7,6.1,12.6,6.1C12.7,6.1,12.7,6.1,12.6,6.1C12.7,6.1,12.7,6.1,12.6,6.1
		C12.6,6,12.6,6,12.6,6.1c-0.1-0.1-0.2-0.1-0.2-0.2c0,0,0,0,0,0c0,0,0,0,0,0c0,0,0,0,0,0c0,0,0,0,0,0c0,0,0,0,0,0v0c0,0,0,0,0.1-0.1
		c0-0.1,0-0.1-0.1-0.1c0,0,0,0-0.1,0c0,0,0-0.1-0.1-0.1c0,0,0,0,0-0.1c0,0,0,0.1,0,0.2c0.1,0.1,0.2,0.1,0.2,0.2c0,0,0,0,0,0
		c0,0,0,0,0,0c0,0,0,0,0,0c0,0,0,0,0,0c0,0,0,0,0,0c0,0-0.1-0.1-0.1-0.2c-0.1-0.1,0-0.1,0-0.2c0-0.1,0-0.2-0.1-0.2c0,0,0,0,0-0.1
		c0,0,0,0,0,0c0,0,0,0,0,0c0,0,0,0,0,0c0,0,0,0,0,0c0,0,0,0,0,0c0,0,0,0,0,0c0,0,0,0,0,0c0,0,0,0,0,0c0,0,0,0,0,0l0,0l0,0
		c0,0,0,0,0,0c0,0,0,0,0,0c0,0,0,0,0,0c0,0,0,0,0,0c0,0,0,0,0,0c0,0,0.1,0,0.1,0c0,0.1-0.1,0.1-0.1,0.1c0,0,0,0,0,0c0,0,0,0-0.1-0.1
		c0,0,0,0-0.1,0c0,0,0,0,0-0.1c0,0,0,0,0-0.1c0,0,0,0,0,0c0,0,0,0,0,0c0,0,0,0,0,0c0,0,0,0,0,0c0,0,0,0,0,0c0,0,0,0,0,0c0,0,0,0,0,0
		c0,0,0,0,0,0c0,0,0,0,0,0c0,0,0,0,0,0c0,0,0,0,0,0c0,0,0,0,0,0c0,0,0,0,0,0c0,0,0,0,0,0c0,0,0,0,0,0c0,0,0,0,0,0c0,0,0,0,0,0
		c0,0,0,0,0,0c0,0,0,0,0,0c0,0,0,0,0,0c0,0,0,0,0,0c0,0,0,0,0,0c0,0,0,0,0,0c0,0,0,0,0,0c0,0,0,0,0,0c0,0,0,0,0,0c0,0,0,0,0,0
		c0,0,0,0,0,0c0,0,0,0,0,0c0,0,0,0,0,0c0,0,0,0.1,0,0.1c0,0,0,0,0,0c0,0,0,0,0,0c0,0,0,0,0,0c0,0,0,0,0,0c0,0,0,0,0,0c0,0,0,0,0,0
		c0,0,0,0.1,0.1,0.1c0,0-0.1,0.1-0.1,0.1c0,0,0,0-0.1,0c0,0,0,0,0,0c0,0,0,0,0,0c0,0,0,0,0,0c0,0,0,0,0,0c0,0,0,0,0,0c0,0,0,0,0,0
		c0,0,0,0,0,0c0,0,0,0,0,0c0,0,0,0,0,0c0,0,0,0,0,0c0,0,0,0,0,0c0,0,0,0,0,0c0,0,0,0,0,0c0,0,0,0,0,0c0,0,0,0,0,0c0,0,0,0,0,0
		c0,0,0,0,0,0c0,0,0,0,0,0c0,0,0,0,0,0c0,0,0,0,0,0c0,0,0,0,0,0c0,0,0,0,0,0c0,0,0,0,0,0c0,0,0,0,0,0c0,0,0,0,0,0c0,0,0,0,0,0
		c0,0,0,0,0,0c0,0,0,0,0.1,0c0,0,0,0,0,0c0,0,0,0,0,0c0,0,0,0,0,0c0,0.1,0.1,0.1,0.2,0.2c0,0-0.1,0-0.1,0c0,0-0.1,0-0.1,0.1
		c0,0,0,0.1,0.1,0.1c0,0-0.1,0-0.1,0c0,0,0,0,0,0c0,0,0-0.1-0.1,0c0,0,0,0,0,0c0,0,0,0,0,0c0,0,0,0,0,0c0,0,0,0,0,0c0,0,0,0,0,0
		c0,0,0,0,0,0c0,0,0,0,0,0c0,0,0,0,0,0c0,0,0,0,0,0c0,0,0,0,0,0c0,0,0,0,0,0c0,0,0,0,0,0c0,0,0,0,0,0c0,0,0,0,0,0c0,0,0,0,0,0
		c0,0,0,0,0,0c0,0,0,0,0,0c0,0,0,0,0,0c0,0,0,0,0,0c0,0,0,0,0,0c0,0,0,0,0,0c0,0,0,0,0,0c0,0,0,0,0,0c0,0,0,0,0,0c0,0,0,0,0,0
		c0,0,0,0,0,0c0,0,0,0,0,0c0,0,0,0,0,0l0,0c0,0,0,0,0,0c0,0,0,0,0,0c0,0,0,0,0-0.1C12.2,6,12.3,6,12.4,6c0,0,0.1,0.1,0.1,0.1
		C12.5,6.1,12.6,6.1,12.6,6.1C12.6,6.1,12.6,6.1,12.6,6.1C12.6,6.1,12.6,6.2,12.6,6.1c-0.1,0.1-0.1,0-0.1,0c0,0,0,0,0,0c0,0,0,0,0,0
		c0,0,0,0,0,0c0,0,0,0,0,0c0,0,0,0,0,0c0,0,0,0,0,0c0,0,0,0,0,0c0,0,0,0,0,0c0,0,0,0,0,0c0,0,0,0,0,0c0,0,0,0,0,0c0,0,0,0,0,0
		c0,0,0,0,0,0c0,0,0,0,0,0c0,0,0,0,0,0c0,0,0,0,0,0c0,0,0,0,0,0c0,0,0,0,0,0C12.7,6.2,12.6,6.2,12.6,6.1C12.6,6.2,12.7,6.2,12.6,6.1
		C12.7,6.2,12.7,6.2,12.6,6.1C12.7,6.2,12.7,6.2,12.6,6.1C12.7,6.1,12.7,6.1,12.6,6.1L12.6,6.1z"/>
	<path class="st0" d="M11.1,7.1L11.1,7.1C11,7.1,11,7.1,11.1,7.1C11,7.2,11,7.2,11,7.2l0,0c0,0,0,0,0,0c0,0.1,0,0.1,0,0.2l-0.3-0.4
		C10.9,7,11,7,11,7C11.1,7,11.1,7,11.1,7.1 M11,7.7l-0.4-0.6c0,0,0.1,0,0.1,0L11,7.5C11,7.6,11,7.7,11,7.7 M10.9,8l-0.6-0.8
		c0,0,0,0,0.1,0c0,0,0.1,0,0.1,0l0.5,0.7C10.9,7.9,10.9,7.9,10.9,8 M10.3,7.2l0.6,0.9C10.6,8,10.2,7.6,10.3,7.2 M11.2,7.1L11.2,7.1
		L11.2,7.1c0-0.1-0.1-0.2-0.2-0.2c-0.1,0-0.3,0.1-0.6,0.1c-0.1,0-0.2-0.1-0.3-0.1l0,0.1c0,0,0,0,0,0c0,0,0-0.1-0.1-0.1
		c0,0-0.1,0-0.1,0.1C10,7,10,7,10,7c0,0,0,0,0.1,0l0,0.1c0,0,0,0,0,0c0,0.4,0.3,0.9,0.8,1.1c0.1,0,0.2,0,0.2,0.1
		c0,0.1,0,0.1-0.1,0.1c0,0-0.1,0-0.1,0c0,0,0.1,0,0.1,0c0,0,0,0,0,0c0,0-0.1,0-0.1,0.1c0,0.1,0.1,0.1,0.1,0.1c0.1,0,0.2,0,0.2-0.2
		c0,0,0.1,0,0.1,0l0-0.1l0,0l0-0.9l0,0C11.2,7.2,11.3,7.2,11.2,7.1C11.3,7.1,11.2,7.1,11.2,7.1"/>
	<path class="st0" d="M10.7,5.1C10.7,5.1,10.7,5.1,10.7,5.1C10.8,5.1,10.8,5.1,10.7,5.1C10.8,5.1,10.8,5.1,10.7,5.1
		C10.8,5.1,10.8,5.1,10.7,5.1C10.8,5.1,10.7,5.1,10.7,5.1C10.7,5.1,10.8,5.1,10.7,5.1C10.8,5.1,10.8,5.1,10.7,5.1L10.7,5.1
		C10.8,5.1,10.8,5.1,10.7,5.1C10.8,5.1,10.8,5.1,10.7,5.1C10.8,5.1,10.8,5.1,10.7,5.1C10.8,5.1,10.8,5.1,10.7,5.1
		C10.8,5.1,10.8,5.1,10.7,5.1C10.8,5.1,10.8,5.1,10.7,5.1C10.8,5.1,10.8,5.2,10.7,5.1C10.8,5.2,10.8,5.2,10.7,5.1
		C10.7,5.2,10.7,5.2,10.7,5.1 M10.8,5.1C10.8,5.1,10.8,5.1,10.8,5.1C10.7,5.1,10.8,5.1,10.8,5.1C10.8,5,10.8,5.1,10.8,5.1 M10.8,5.1
		C10.8,5.1,10.8,5.1,10.8,5.1C10.8,5.1,10.8,5.1,10.8,5.1C10.8,5.1,10.8,5.1,10.8,5.1 M10.7,5.1C10.7,5.1,10.7,5.1,10.7,5.1
		C10.7,5.1,10.7,5.1,10.7,5.1 M11.1,5.2c0.1,0,0.2,0,0.2-0.1c0-0.1-0.3-0.1-0.3-0.1c0,0,0,0,0,0h0c0.2,0,0.2-0.1,0.3-0.2
		c-0.1,0-0.2,0.1-0.2,0.1c0,0,0-0.1,0-0.1c0,0-0.1,0-0.1,0.1c0,0,0,0,0,0c0,0,0,0,0,0c0,0.1,0.3,0,0.3,0.1
		C11.3,5.2,11.2,5.2,11.1,5.2c-0.1,0-0.1-0.1-0.3,0c0,0,0-0.1,0-0.1c0,0,0,0,0,0c0,0,0,0,0,0c0,0,0,0,0,0c0,0,0,0,0,0c0,0,0,0,0,0
		c0,0,0,0,0,0c0,0,0,0,0,0c0,0,0,0,0,0c0,0,0,0,0,0c0,0,0,0,0,0c0,0,0,0,0,0c0,0,0,0,0,0c0,0,0,0,0,0c0,0,0,0,0,0c0,0,0,0.1,0,0.1
		c0,0,0,0,0,0c0,0,0,0,0,0c0,0,0,0,0,0c0,0,0,0,0,0c0,0,0,0,0,0c0,0,0,0,0,0c0,0,0,0,0,0c0,0,0,0,0,0c0,0,0,0,0,0c0,0,0,0,0,0
		c0,0,0,0,0,0c0,0,0,0,0,0c0,0,0,0,0,0c0,0,0,0,0,0c0,0,0,0,0,0c0,0,0,0,0,0c0,0,0,0,0,0c0,0,0,0,0,0c0,0,0,0,0,0c0,0,0,0,0,0
		c0,0,0,0,0,0c0,0,0,0,0,0c0,0,0,0,0,0c0,0,0,0,0,0c0,0,0,0,0,0c0,0,0,0,0,0c0,0,0,0,0,0c0,0,0,0,0,0c0,0,0,0,0,0c0,0,0,0,0,0
		c0,0,0,0,0,0c0,0,0,0,0,0c0,0,0,0,0,0c0,0,0,0,0,0c0,0,0,0.1,0,0c0,0,0,0,0,0c0,0,0,0,0,0c0,0,0,0,0,0c0,0,0,0,0,0c0,0,0,0,0,0
		c0,0,0,0,0,0c0,0,0,0,0,0c0,0-0.1,0-0.1,0c0,0,0,0-0.1,0c0,0-0.1,0-0.1,0c0,0,0,0,0,0c0,0,0,0,0,0c0,0,0,0,0,0c0,0,0,0,0,0
		c0,0,0,0,0,0c0,0,0,0,0,0c0,0,0,0,0,0c0,0,0,0,0,0c0,0,0,0,0,0c0,0,0,0,0,0c0,0,0,0,0,0c0,0,0,0,0,0c0,0,0,0,0,0c0,0,0,0,0,0
		c0,0,0,0,0,0c0,0,0,0,0,0c0,0,0,0,0,0c0,0,0,0,0,0c0,0,0,0,0,0c0,0,0,0,0,0c0,0,0,0,0,0c0,0,0,0,0,0c0,0,0,0,0,0c0,0,0,0,0,0
		c0,0,0,0,0,0c0,0,0,0,0,0c0,0,0,0,0,0c0,0,0,0,0,0c0,0,0,0,0,0c0,0,0,0,0,0c0,0,0,0,0,0c0,0,0,0,0,0c0,0,0,0,0,0c0,0,0,0,0,0
		c0,0,0,0,0,0c0,0,0,0,0,0c0,0,0,0,0,0c0,0,0,0,0,0c0,0,0,0,0,0c0,0,0,0,0.1,0c0,0,0,0,0,0c0,0,0,0,0,0c0,0,0,0,0,0c0,0,0,0,0,0
		c0,0,0,0,0,0c0,0,0,0,0,0c0,0,0.1,0,0.1,0c0.1,0,0-0.1,0.1-0.1c0,0,0,0,0,0c0,0,0,0.1,0,0.1c0,0,0,0,0,0c0,0,0,0,0,0c0,0,0,0,0,0
		c0,0,0,0-0.1,0c0,0,0,0,0,0c0,0,0,0,0,0c0,0,0,0,0,0c0,0,0,0,0,0c0,0,0,0,0,0c0,0,0,0,0,0c0,0,0,0,0,0c0,0,0,0,0,0c0,0,0,0,0,0
		c0,0,0,0,0,0c0,0,0,0,0,0c0,0,0,0,0,0c0,0,0,0,0,0c0,0,0,0,0,0c0,0,0,0,0,0c0,0,0,0,0,0c0,0,0,0,0,0c0,0,0,0,0,0c0,0,0,0,0,0
		c0,0,0,0,0,0c0,0,0,0,0,0c0,0,0,0,0,0c0,0,0,0,0,0c0,0,0,0,0,0c0,0,0,0,0,0c0,0,0,0,0,0c0,0,0,0,0,0c0,0,0,0,0,0c0,0,0,0,0-0.1
		C11,5.3,11,5.3,11.1,5.2C11.1,5.3,11.1,5.3,11.1,5.2C11.1,5.3,11.1,5.3,11.1,5.2C11.1,5.3,11.2,5.3,11.1,5.2
		C11.2,5.3,11.2,5.3,11.1,5.2c0.1,0.1,0.1,0.1,0.1,0.1c0,0,0,0,0,0c0,0,0,0,0,0c0,0,0,0,0,0c0,0,0,0,0,0c0,0,0,0,0,0c0,0,0,0,0,0
		c0,0,0,0,0,0c0,0,0,0,0,0c0,0,0,0,0,0c0,0,0,0,0,0c0,0,0,0,0,0c0,0,0,0,0,0c0,0,0,0,0,0c0,0,0,0,0,0c0,0,0,0,0,0c0,0,0,0,0,0
		c0,0,0,0,0,0c0,0,0,0,0,0c0,0,0,0,0,0c0,0,0,0,0,0c0,0,0,0,0,0c0,0,0,0,0,0c0,0,0,0,0,0h0c0,0,0,0,0,0c0,0,0,0,0,0c0,0,0,0,0,0
		c0,0,0,0,0,0c0,0,0,0,0,0c0,0,0,0,0,0C11.2,5.3,11.2,5.2,11.1,5.2C11.1,5.2,11.1,5.2,11.1,5.2"/>
	<path class="st0" d="M10.5,5.9C10.5,5.9,10.5,5.9,10.5,5.9C10.5,5.9,10.5,5.9,10.5,5.9 M10.4,5.7C10.4,5.7,10.4,5.7,10.4,5.7
		C10.5,5.7,10.5,5.7,10.4,5.7C10.5,5.6,10.5,5.6,10.4,5.7C10.5,5.6,10.5,5.6,10.4,5.7C10.4,5.6,10.4,5.6,10.4,5.7
		C10.4,5.6,10.4,5.6,10.4,5.7C10.5,5.6,10.5,5.6,10.4,5.7L10.4,5.7C10.5,5.6,10.5,5.6,10.4,5.7C10.5,5.6,10.5,5.7,10.4,5.7
		C10.5,5.7,10.5,5.6,10.4,5.7C10.5,5.6,10.5,5.6,10.4,5.7C10.5,5.7,10.5,5.6,10.4,5.7C10.5,5.7,10.5,5.7,10.4,5.7
		C10.5,5.7,10.5,5.7,10.4,5.7C10.5,5.7,10.5,5.7,10.4,5.7C10.4,5.7,10.4,5.7,10.4,5.7 M10.5,5.6C10.5,5.6,10.5,5.6,10.5,5.6
		C10.4,5.6,10.4,5.6,10.5,5.6C10.4,5.6,10.5,5.6,10.5,5.6 M10.5,5.6C10.5,5.6,10.5,5.6,10.5,5.6C10.5,5.6,10.5,5.6,10.5,5.6
		C10.5,5.6,10.5,5.6,10.5,5.6 M10.3,5.8C10.3,5.8,10.3,5.8,10.3,5.8C10.3,5.8,10.3,5.8,10.3,5.8 M11.3,5.7c0,0,0-0.1-0.2-0.1
		c-0.1,0-0.4,0-0.4,0c0,0,0.1,0,0.1,0c0,0,0,0,0,0c0.2,0,0.3,0,0.4,0c-0.1-0.1-0.2,0-0.3,0c0.1,0,0.1,0,0.1,0c-0.1,0-0.2,0-0.2,0
		c0,0,0,0,0,0c-0.1,0-0.2,0-0.2,0.1c0,0.1,0.3,0.1,0.4,0.1C11.2,5.7,11.2,5.7,11.3,5.7c0,0-0.1,0-0.2,0c-0.1,0-0.4,0-0.5,0
		c0,0,0-0.1,0-0.1c0,0,0,0,0,0c0,0,0,0,0,0c0,0,0,0,0,0c0,0,0,0,0,0c0,0,0,0,0,0c0,0,0,0,0,0c0,0,0,0,0,0c0,0,0,0,0,0c0,0,0,0,0,0
		c0,0,0,0,0,0c0,0,0,0,0,0c0,0,0,0,0,0c0,0,0,0,0,0c0,0,0,0,0,0c0,0,0,0,0,0l0,0c0,0,0,0,0,0c0,0,0,0,0,0c0,0,0,0,0,0l0,0
		c0,0,0,0-0.1,0c0,0,0,0,0-0.1c0,0,0,0,0-0.1c0,0,0,0,0,0c0,0,0,0,0,0c0,0,0,0,0,0c0,0,0,0,0,0c0,0,0,0,0,0c0,0,0,0,0,0c0,0,0,0,0,0
		c0,0,0,0,0,0c0,0,0,0,0,0c0,0,0,0,0,0c0,0,0,0,0,0c0,0,0,0,0,0c0,0,0,0,0,0c0,0,0,0,0,0c0,0,0,0,0,0c0,0,0,0,0,0c0,0,0,0,0,0
		c0,0,0,0,0,0c0,0,0,0,0,0c0,0,0,0,0,0c0,0,0,0,0,0c0,0,0,0,0,0c0,0,0,0,0,0c0,0,0,0,0,0c0,0,0,0,0,0c0,0,0,0,0,0c0,0,0,0,0,0
		c0,0,0,0,0,0c0,0,0,0,0,0c0,0,0,0,0,0c0,0,0,0,0,0c0,0,0,0.1,0,0.1c0,0,0,0,0,0c0,0,0,0,0,0c0,0,0,0,0,0c0,0,0,0,0,0c0,0,0,0,0,0
		c0,0,0,0,0,0c0,0,0,0,0,0c0,0,0,0,0.1,0c0,0,0,0.1,0,0.1c0,0-0.1,0-0.1,0c0,0-0.1,0-0.1,0c0,0,0,0,0,0c0,0,0,0,0,0c0,0,0,0,0,0
		c0,0,0,0,0,0c0,0,0,0,0,0c0,0,0,0,0,0c0,0,0,0,0,0c0,0,0,0,0,0c0,0,0,0,0,0c0,0,0,0,0,0c0,0,0,0,0,0c0,0,0,0,0,0c0,0,0,0,0,0
		c0,0,0,0,0,0c0,0,0,0,0,0c0,0,0,0,0,0c0,0,0,0,0,0c0,0,0,0,0,0c0,0,0,0,0,0c0,0,0,0,0,0c0,0,0,0,0,0c0,0,0,0,0,0c0,0,0,0,0,0
		c0,0,0,0,0,0c0,0,0,0,0,0c0,0,0,0,0,0c0,0,0,0,0,0c0,0,0,0,0,0c0,0,0,0,0,0c0,0,0,0,0,0c0,0,0,0,0,0c0,0,0,0,0,0c0,0,0,0,0,0
		c0,0,0,0,0,0c0,0,0,0,0,0c0,0,0,0,0,0c0,0,0,0,0,0c0,0,0,0,0,0c0,0,0,0,0,0c0-0.1,0,0,0.1-0.1c0,0,0,0,0,0c0,0,0,0,0,0
		c0,0,0.1,0,0.1-0.1c0,0,0,0,0,0c0.1,0,0-0.1,0.2-0.1c0,0,0,0,0,0c0,0,0,0.1,0,0.1c0,0,0,0,0,0c0,0,0,0,0,0c0,0,0,0,0,0
		c0,0,0-0.1-0.1,0c0,0,0,0,0,0c0,0,0,0,0,0c0,0,0,0,0,0c0,0,0,0,0,0c0,0,0,0,0,0c0,0,0,0,0,0c0,0,0,0,0,0c0,0,0,0,0,0c0,0,0,0,0,0
		c0,0,0,0,0,0c0,0,0,0,0,0c0,0,0,0,0,0c0,0,0,0,0,0c0,0,0,0,0,0c0,0,0,0,0,0c0,0,0,0,0,0c0,0,0,0,0,0c0,0,0,0,0,0c0,0,0,0,0,0
		c0,0,0,0,0,0c0,0,0,0,0,0c0,0,0,0,0,0c0,0,0,0,0,0c0,0,0,0,0,0c0,0,0,0,0,0c0,0,0,0,0,0c0,0,0,0,0,0c0,0,0.1,0,0.1,0c0,0,0,0,0-0.1
		c0,0,0,0,0,0c0,0,0,0,0.1,0c0.1,0,0.1,0,0.1,0c0,0,0.1,0,0.1,0c0,0,0,0,0,0c0,0,0,0,0,0c0,0,0,0,0,0c0,0,0,0,0,0c0,0,0,0,0,0
		c0,0,0,0,0,0c0,0,0,0,0,0c0,0,0,0,0,0c0,0,0,0,0,0c0,0,0,0,0,0c0,0,0,0,0,0c0,0,0,0,0,0c0,0,0,0,0,0c0,0,0,0,0,0c0,0,0,0,0,0
		c0,0,0,0,0,0c0,0,0,0,0,0c0,0,0,0,0,0c0,0,0,0,0,0c0,0,0,0,0,0c0,0,0,0,0,0c0,0,0,0,0,0c0,0,0,0,0,0c0,0,0,0,0,0c0,0,0,0,0,0h0
		c0,0,0,0,0,0c0,0,0,0,0,0c0,0,0,0,0,0C11.3,5.8,11.3,5.8,11.3,5.7C11.3,5.8,11.2,5.8,11.3,5.7C11.2,5.8,11.2,5.8,11.3,5.7
		c-0.1,0.1-0.1,0.1-0.2,0.1C11.1,5.8,11.3,5.7,11.3,5.7"/>
	<path class="st0" d="M10.3,6.2C10.3,6.2,10.3,6.2,10.3,6.2C10.3,6.2,10.3,6.2,10.3,6.2C10.3,6.2,10.3,6.2,10.3,6.2
		C10.3,6.2,10.3,6.2,10.3,6.2C10.3,6.2,10.3,6.2,10.3,6.2C10.3,6.2,10.3,6.2,10.3,6.2C10.3,6.2,10.3,6.2,10.3,6.2L10.3,6.2
		C10.4,6.2,10.4,6.2,10.3,6.2C10.4,6.2,10.4,6.2,10.3,6.2C10.4,6.2,10.4,6.2,10.3,6.2C10.3,6.2,10.3,6.2,10.3,6.2
		C10.3,6.2,10.3,6.2,10.3,6.2C10.3,6.2,10.3,6.2,10.3,6.2C10.3,6.2,10.3,6.2,10.3,6.2C10.3,6.2,10.3,6.3,10.3,6.2
		C10.3,6.2,10.3,6.2,10.3,6.2 M10.3,6.1C10.3,6.1,10.3,6.1,10.3,6.1C10.3,6.1,10.3,6.1,10.3,6.1C10.3,6.1,10.3,6.1,10.3,6.1
		 M10.4,6.1C10.4,6.1,10.4,6.2,10.4,6.1C10.4,6.2,10.4,6.2,10.4,6.1C10.4,6.2,10.4,6.2,10.4,6.1 M11.2,6.2c0,0,0-0.1-0.2-0.1
		c-0.1,0-0.5,0-0.5,0c0,0,0.1,0,0.2,0c0,0,0,0,0,0c0.2,0,0.3-0.1,0.4,0c-0.1-0.1-0.2,0-0.3,0c0.1,0,0.1,0,0.1,0c-0.1,0-0.2,0-0.3,0
		c0,0,0,0,0,0c-0.1,0-0.2,0-0.2,0.1c0,0.1,0.4,0,0.5,0C11.2,6.2,11.2,6.2,11.2,6.2c0,0-0.1,0-0.2,0c-0.1,0-0.5,0-0.6,0
		c0,0,0-0.1,0-0.1c0,0,0,0,0,0c0,0,0,0,0,0c0,0,0,0,0,0c0,0,0,0,0,0c0,0,0,0,0,0c0,0,0,0,0,0c0,0,0,0,0,0c0,0,0,0,0,0c0,0,0,0,0,0
		c0,0,0,0,0,0c0,0,0,0,0,0c0,0,0,0,0,0c0,0,0,0,0,0c0,0,0,0,0,0c0,0,0,0,0,0l0,0c0,0,0,0,0,0c0,0,0,0,0,0c0,0,0,0-0.1,0c0,0,0,0,0,0
		c0,0,0,0,0-0.1c0,0,0,0,0,0c0,0,0,0,0,0c0,0,0,0,0,0c0,0,0,0,0,0c0,0,0,0,0,0c0,0,0,0,0,0c0,0,0,0,0,0c0,0,0,0,0,0c0,0,0,0,0,0
		c0,0,0,0,0,0c0,0,0,0,0,0c0,0,0,0,0,0c0,0,0,0,0,0c0,0,0,0,0,0c0,0,0,0,0,0c0,0,0,0,0,0c0,0,0,0,0,0c0,0,0,0,0,0c0,0,0,0,0,0
		c0,0,0,0,0,0c0,0,0,0,0,0c0,0,0,0,0,0c0,0,0,0,0,0c0,0,0,0,0,0c0,0,0,0,0,0c0,0,0,0,0,0c0,0,0,0,0,0c0,0,0,0,0,0c0,0,0,0,0,0
		c0,0,0,0,0,0c0,0,0,0,0,0c0,0,0,0.1,0.1,0c0,0,0,0,0,0c0,0,0,0,0,0c0,0,0,0,0,0c0,0,0,0,0,0c0,0,0,0,0,0c0,0,0,0,0,0
		c0,0,0,0,0.1,0.1c0,0,0,0,0,0c0,0,0,0,0,0c0,0,0,0,0,0c0,0-0.1,0-0.1,0c0,0-0.1,0-0.1,0c0,0,0,0,0,0c0,0,0,0,0,0c0,0,0,0,0,0
		c0,0,0,0,0,0c0,0,0,0,0,0c0,0,0,0,0,0c0,0,0,0,0,0c0,0,0,0,0,0c0,0,0,0,0,0c0,0,0,0,0,0c0,0,0,0,0,0c0,0,0,0,0,0c0,0,0,0,0,0
		c0,0,0,0,0,0c0,0,0,0,0,0c0,0,0,0,0,0c0,0,0,0,0,0c0,0,0,0,0,0c0,0,0,0,0,0c0,0,0,0,0,0c0,0,0,0,0,0c0,0,0,0,0,0c0,0,0,0,0,0
		c0,0,0,0,0,0c0,0,0,0,0,0c0,0,0,0,0,0c0,0,0,0,0,0c0,0,0,0,0,0c0,0,0,0,0,0c0,0,0,0,0,0c0,0,0,0,0,0c0,0,0,0,0,0c0,0,0,0,0,0
		c0,0,0,0,0,0c0,0,0,0,0,0c0,0,0,0,0,0c0,0,0,0,0,0c0,0,0,0,0,0c0,0,0,0,0,0c0-0.1,0.1,0,0.1,0c0,0,0,0,0,0c0,0,0,0,0,0c0,0,0,0,0,0
		c0,0,0,0,0,0l0.1,0c0,0,0,0,0,0c0,0,0,0,0,0c0,0,0,0,0,0c0,0,0,0,0,0c0.2,0,0.1-0.1,0.3-0.1c0,0,0,0,0,0c0,0,0,0.1,0,0.1
		c0,0,0,0,0,0c0,0,0,0,0,0c0,0,0,0,0,0c0,0,0-0.1-0.1,0c0,0,0,0,0,0c0,0,0,0,0,0c0,0,0,0,0,0c0,0,0,0,0,0c0,0,0,0,0,0c0,0,0,0,0,0
		c0,0,0,0,0,0c0,0,0,0,0,0c0,0,0,0,0,0c0,0,0,0,0,0c0,0,0,0,0,0c0,0,0,0,0,0c0,0,0,0,0,0c0,0,0,0,0,0c0,0,0,0,0,0c0,0,0,0,0,0
		c0,0,0,0,0,0c0,0,0,0,0,0c0,0,0,0,0,0c0,0,0,0,0,0c0,0,0,0,0,0c0,0,0,0,0,0c0,0,0,0,0,0c0,0,0,0,0,0c0,0,0,0,0,0c0,0,0,0,0,0
		c0,0,0,0,0,0c0,0,0,0,0.1,0c0,0,0,0,0-0.1c0,0,0,0,0,0c0,0,0,0,0.1,0c0.1,0,0.1,0,0.1,0c0,0,0.1,0,0.1,0c0,0,0,0,0,0c0,0,0,0,0,0
		c0,0,0,0,0,0c0,0,0,0,0,0c0,0,0,0,0,0c0,0,0,0,0,0c0,0,0,0,0,0c0,0,0,0,0,0c0,0,0,0,0,0c0,0,0,0,0,0c0,0,0,0,0,0c0,0,0,0,0,0
		c0,0,0,0,0,0c0,0,0,0,0,0c0,0,0,0,0,0c0,0,0,0,0,0c0,0,0,0,0,0c0,0,0,0,0,0c0,0,0,0,0,0c0,0,0,0,0,0c0,0,0,0,0,0c0,0,0,0,0,0
		c0,0,0,0,0,0c0,0,0,0,0,0c0,0,0,0,0,0v0c0,0,0,0,0,0c0,0,0,0,0,0c0,0,0,0,0,0C11.2,6.3,11.2,6.3,11.2,6.2
		C11.2,6.3,11.2,6.3,11.2,6.2C11.2,6.3,11.2,6.3,11.2,6.2c-0.1,0.1-0.1,0.1-0.2,0.1C11.1,6.3,11.2,6.3,11.2,6.2"/>
	<path class="st0" d="M12.1,7.2L12.1,7.2C12.1,7.2,12.1,7.2,12.1,7.2 M11.9,6.9C11.9,6.9,11.9,6.9,11.9,6.9
		C11.9,6.9,11.9,6.9,11.9,6.9 M11.9,6.9L11.9,6.9L11.9,6.9z M12,7C12,7,12,7,12,7C12,7,12,7,12,7C12,7,12,7,12,7C12,7,12,6.9,12,7
		C12,6.9,12,6.9,12,7C12,6.9,12,6.9,12,7C12,6.9,12,6.9,12,7L12,7C12,7,12,7,12,7C12,7,12,7,12,7C12,7,12,7,12,7C12,7,12,7,12,7
		C12,7,12,7,12,7C12,7,12,7,12,7C12,7,12,7,12,7C12,7,12,7,12,7C12,7,12,7,12,7 M12,6.9C12,6.9,12,6.9,12,6.9C12,6.9,12,6.9,12,6.9
		C12,6.9,12,6.9,12,6.9 M12,6.9C12,6.9,12.1,6.9,12,6.9C12.1,6.9,12.1,6.9,12,6.9C12,6.9,12,6.9,12,6.9 M12.9,7.1
		C12.9,7.1,12.9,7.1,12.9,7.1C12.9,7.1,12.9,7.1,12.9,7.1C12.9,7.1,12.9,7.1,12.9,7.1C12.9,7.1,12.9,7.1,12.9,7.1
		c-0.1,0-0.1,0-0.2-0.1c0,0,0,0,0,0c0.1,0,0.2,0,0.2-0.1c0,0,0-0.1-0.2-0.1s-0.5,0-0.5,0c0,0,0.1,0,0.2,0c0,0,0,0,0,0
		c0.2,0,0.3-0.1,0.4,0c-0.1,0-0.2,0-0.3,0c0.1,0,0.1,0,0.1,0c-0.1,0-0.2,0-0.3,0c0,0,0,0,0,0c-0.1,0-0.2,0-0.2,0.1
		c0,0.1,0.4,0,0.5,0c0.1,0,0.1,0,0.1,0c0,0-0.1,0-0.2,0c-0.1,0-0.5,0-0.6,0c0,0,0-0.1,0-0.1c0,0,0,0,0,0c0,0,0,0,0,0c0,0,0,0,0,0
		c0,0,0,0,0,0c0,0,0,0,0,0c0,0,0,0,0,0c0,0,0,0,0,0c0,0,0,0,0,0c0,0,0,0,0,0c0,0,0,0,0,0c0,0,0,0,0,0c0,0,0,0,0,0c0,0,0,0,0,0
		c0,0,0,0,0,0c0,0,0,0,0,0l0,0c0,0,0,0,0,0c0,0,0,0,0,0c0,0,0,0-0.1,0c0,0,0,0,0,0c0,0,0,0,0-0.1c0,0,0,0,0,0c0,0,0,0,0,0
		c0,0,0,0,0,0c0,0,0,0,0,0c0,0,0,0,0,0c0,0,0,0,0,0c0,0,0,0,0,0c0,0,0,0,0,0c0,0,0,0,0,0c0,0,0,0,0,0c0,0,0,0,0,0c0,0,0,0,0,0
		c0,0,0,0,0,0c0,0,0,0,0,0c0,0,0,0,0,0c0,0,0,0,0,0c0,0,0,0,0,0c0,0,0,0,0,0c0,0,0,0,0,0c0,0,0,0,0,0c0,0,0,0,0,0c0,0,0,0,0,0
		c0,0,0,0,0,0c0,0,0,0,0,0c0,0,0,0,0,0c0,0,0,0,0,0c0,0,0,0,0,0c0,0,0,0,0,0c0,0,0,0,0,0c0,0,0,0,0,0c0,0,0,0,0,0c0,0,0,0.1,0.1,0
		c0,0,0,0,0,0c0,0,0,0,0,0c0,0,0,0,0,0c0,0,0,0,0,0c0,0,0,0,0,0c0,0,0,0,0,0c0,0,0,0,0.1,0.1c0,0,0,0,0,0c0,0,0,0,0,0l0,0
		c0,0,0,0,0,0c0,0-0.1,0-0.1,0c0,0-0.1,0-0.1,0c0,0,0,0,0,0c0,0,0,0,0,0c0,0,0,0,0,0c0,0,0,0,0,0c0,0,0,0,0,0c0,0,0,0,0,0
		c0,0,0,0,0,0c0,0,0,0,0,0c0,0,0,0,0,0c0,0,0,0,0,0c0,0,0,0,0,0c0,0,0,0,0,0c0,0,0,0,0,0c0,0,0,0,0,0c0,0,0,0,0,0c0,0,0,0,0,0
		c0,0,0,0,0,0c0,0,0,0,0,0c0,0,0,0,0,0c0,0,0,0,0,0c0,0,0,0,0,0c0,0,0,0,0,0c0,0,0,0,0,0c0,0,0,0,0,0c0,0,0,0,0,0c0,0,0,0,0,0
		c0,0,0,0,0,0c0,0,0,0,0,0c0,0,0,0,0,0c0,0,0,0,0,0c0,0,0,0,0,0c0,0,0,0,0,0c0,0,0,0,0,0c0,0,0,0,0,0c0,0,0,0,0,0c0,0,0,0,0,0
		c0,0,0,0,0,0c0,0,0,0,0,0c0,0,0,0,0,0c0-0.1,0,0,0.1-0.1c0,0,0,0,0,0c0,0,0,0,0,0c0,0,0.1,0,0.1,0c0,0,0,0,0,0c0,0,0,0,0,0
		c0.2,0,0.1-0.1,0.3-0.1c0,0,0,0,0,0c0,0,0,0.1,0,0.1c0,0,0,0,0,0c0,0,0,0,0,0c0,0,0,0,0,0c0,0,0-0.1-0.1,0c0,0,0,0,0,0c0,0,0,0,0,0
		c0,0,0,0,0,0v0c0,0,0,0,0,0c0,0,0,0,0,0c0,0,0,0,0,0c0,0,0,0,0,0c0,0,0,0,0,0c0,0,0,0,0,0c0,0,0,0,0,0c0,0,0,0,0,0c0,0,0,0,0,0
		c0,0,0,0,0,0c0,0,0,0,0,0c0,0,0,0,0,0c0,0,0,0,0,0c0,0,0,0,0,0c0,0,0,0,0,0c0,0,0,0,0,0c0,0,0,0,0,0c0,0,0,0,0,0c0,0,0,0,0,0
		c0,0,0,0,0,0c0,0,0,0,0,0c0,0,0,0,0,0c0,0,0,0,0,0c0,0,0,0,0.1,0c0,0,0,0,0-0.1c0,0,0,0,0,0c0,0,0,0,0.1,0c0.1,0,0.1,0,0.1,0
		C12.8,7.1,12.8,7.1,12.9,7.1C12.8,7.1,12.8,7.1,12.9,7.1C12.8,7.2,12.8,7.2,12.9,7.1c-0.1,0.1-0.1,0.1-0.1,0.1c0,0,0,0,0,0
		c0,0,0,0,0,0c0,0,0,0,0,0v0C12.7,7.2,12.8,7.2,12.9,7.1C12.8,7.2,12.8,7.2,12.9,7.1c-0.1,0.1-0.1,0.1-0.1,0.1c0,0,0,0,0,0
		c0,0,0,0,0,0c0,0,0,0,0,0h0c0,0,0,0,0,0c0,0,0,0,0,0c0,0,0,0,0,0c0,0,0,0,0,0c0,0,0,0,0,0c0,0,0,0,0,0c0,0,0,0,0,0
		C12.9,7.2,12.8,7.2,12.9,7.1C12.8,7.2,12.9,7.2,12.9,7.1C12.9,7.2,12.9,7.2,12.9,7.1C12.9,7.2,12.9,7.2,12.9,7.1
		C12.9,7.2,12.9,7.2,12.9,7.1C12.9,7.2,12.9,7.1,12.9,7.1"/>
	<path class="st0" d="M12,7.5C12,7.5,12,7.4,12,7.5C12,7.4,12,7.4,12,7.5C12,7.5,12,7.5,12,7.5 M12,7.5C12,7.5,12,7.5,12,7.5
		C12,7.5,12,7.5,12,7.5C12,7.5,12,7.5,12,7.5C12,7.5,12,7.5,12,7.5C12,7.5,12,7.5,12,7.5C12,7.5,12,7.5,12,7.5
		C11.9,7.5,11.9,7.5,12,7.5C11.9,7.5,12,7.5,12,7.5C12,7.5,12,7.5,12,7.5C12,7.5,12,7.5,12,7.5C12,7.5,12,7.5,12,7.5
		C12,7.5,12,7.5,12,7.5C12,7.5,12,7.5,12,7.5C12,7.4,12,7.4,12,7.5L12,7.5C12,7.5,12,7.5,12,7.5C12,7.5,12,7.5,12,7.5 M12,7.4
		C12,7.4,12,7.4,12,7.4C12,7.4,12,7.4,12,7.4C12,7.4,12,7.4,12,7.4 M12.3,7.4C12.4,7.4,12.4,7.4,12.3,7.4c0.2,0.1,0.3,0,0.4,0
		c-0.1,0-0.2,0-0.3,0c0.1,0,0.1,0,0.1,0C12.6,7.4,12.4,7.4,12.3,7.4C12.4,7.4,12.4,7.4,12.3,7.4c-0.1,0-0.1,0-0.1,0
		c0,0.1,0.3,0,0.4,0c0.1,0,0.1,0,0.1,0c0,0-0.1,0-0.2,0c-0.1,0-0.3,0-0.5,0c0,0,0-0.1,0-0.1c0,0,0,0,0,0c0,0,0,0,0,0c0,0,0,0,0,0
		c0,0,0,0,0,0c0,0,0,0,0,0c0,0,0,0,0,0c0,0,0,0,0,0c0,0,0,0,0,0c0,0,0,0,0,0c0,0,0,0,0,0c0,0,0,0,0,0c0,0,0,0,0,0c0,0,0,0,0,0
		c0,0,0,0,0,0c0,0,0,0,0,0l0,0c0,0,0,0,0,0c0,0,0,0-0.1,0c0,0,0,0,0,0c0,0,0,0,0-0.1c0,0,0,0,0,0c0,0,0,0,0,0c0,0,0,0,0,0
		c0,0,0,0,0,0c0,0,0,0,0,0c0,0,0,0,0,0c0,0,0,0,0,0c0,0,0,0,0,0c0,0,0,0,0,0c0,0,0,0,0,0c0,0,0,0,0,0c0,0,0,0,0,0c0,0,0,0,0,0
		c0,0,0,0,0,0c0,0,0,0,0,0c0,0,0,0,0,0c0,0,0,0,0,0c0,0,0,0,0,0c0,0,0,0,0,0c0,0,0,0,0,0c0,0,0,0,0,0c0,0,0,0,0,0c0,0,0,0,0,0
		c0,0,0,0,0,0c0,0,0,0,0,0c0,0,0,0,0,0c0,0,0,0,0,0c0,0,0,0,0,0c0,0,0,0,0,0c0,0,0,0,0,0c0,0,0,0,0,0c0,0,0,0.1,0,0c0,0,0,0,0,0
		c0,0,0,0,0,0c0,0,0,0,0,0c0,0,0,0,0,0c0,0,0,0,0,0c0,0,0,0,0,0c0,0,0,0,0,0c0,0,0,0,0,0l0,0c0,0,0,0.1,0,0.1c0,0,0,0-0.1,0
		c0,0-0.1,0-0.1,0c0,0,0,0,0,0c0,0,0,0,0,0h0c0,0,0,0,0,0c0,0,0,0,0,0c0,0,0,0,0,0c0,0,0,0,0,0c0,0,0,0,0,0c0,0,0,0,0,0c0,0,0,0,0,0
		c0,0,0,0,0,0c0,0,0,0,0,0c0,0,0,0,0,0c0,0,0,0,0,0c0,0,0,0,0,0c0,0,0,0,0,0c0,0,0,0,0,0c0,0,0,0,0,0c0,0,0,0,0,0c0,0,0,0,0,0
		c0,0,0,0,0,0c0,0,0,0,0,0c0,0,0,0,0,0c0,0,0,0,0,0c0,0,0,0,0,0c0,0,0,0,0,0c0,0,0,0,0,0c0,0,0,0,0,0c0,0,0,0,0,0c0,0,0,0,0,0
		c0,0,0,0,0,0c0,0,0,0,0,0c0,0,0,0,0,0c0,0,0,0,0,0c0,0,0,0,0,0c0,0,0,0,0,0c0,0,0,0,0,0c0,0,0,0,0,0c0,0,0,0,0,0c0,0,0,0,0.1-0.1
		c0,0,0,0,0,0c0,0,0,0,0,0c0,0,0.1,0,0.1-0.1c0,0,0,0,0,0c0,0,0,0,0,0c0,0,0,0,0,0c0.1,0,0-0.1,0.2-0.1c0,0,0,0,0,0c0,0,0,0.1,0,0.1
		c0,0,0,0,0,0c0,0,0,0,0,0c0,0,0,0,0,0c0,0,0,0-0.1,0c0,0,0,0,0,0c0,0,0,0,0,0c0,0,0,0,0,0c0,0,0,0,0,0c0,0,0,0,0,0c0,0,0,0,0,0
		c0,0,0,0,0,0c0,0,0,0,0,0c0,0,0,0,0,0c0,0,0,0,0,0c0,0,0,0,0,0c0,0,0,0,0,0c0,0,0,0,0,0c0,0,0,0,0,0c0,0,0,0,0,0c0,0,0,0,0,0
		c0,0,0,0,0,0c0,0,0,0,0,0c0,0,0,0,0,0c0,0,0,0,0,0c0,0,0,0,0,0c0,0,0,0,0,0c0,0,0,0,0,0c0,0,0,0,0,0c0,0,0,0,0,0c0,0,0,0,0,0
		c0,0,0,0,0,0c0,0,0,0,0.1,0c0,0,0,0,0-0.1c0,0,0,0,0,0c0,0,0,0,0.1,0c0.1,0,0.1,0,0.1,0c0,0,0.1,0,0.1,0c0,0,0,0,0,0c0,0,0,0,0,0
		c0,0,0,0,0,0c0,0,0,0,0,0c0,0,0,0,0,0c0,0,0,0,0,0c0,0,0,0,0,0c0,0,0,0,0,0c0,0,0,0,0,0c0,0,0,0,0,0c0,0,0,0,0,0c0,0,0,0,0,0
		c0,0,0,0,0,0c0,0,0,0,0,0c0,0,0,0,0,0c0,0,0,0,0,0c0,0,0,0,0,0c0,0,0,0,0,0c0,0,0,0,0,0c0,0,0,0,0,0c0,0,0,0,0,0c0,0,0,0,0,0
		c0,0,0,0,0,0c0,0,0,0,0,0c0,0,0,0,0,0h0c0,0,0,0,0,0c0,0,0,0,0,0c0,0,0,0,0,0c0,0,0,0,0,0c0,0,0,0,0,0c0,0,0,0,0,0c0,0-0.1,0-0.1,0
		c0,0,0,0,0,0c0.1,0,0.2,0,0.2-0.1c0,0,0-0.1-0.1-0.1s-0.4,0-0.4,0C12.2,7.4,12.3,7.4,12.3,7.4"/>
	<path class="st0" d="M11.9,8C11.9,8,11.9,8,11.9,8C11.9,8,11.9,8,11.9,8C11.9,8,11.9,8,11.9,8C11.9,8,11.9,8,11.9,8
		C11.9,8,11.9,8,11.9,8C11.9,8,11.9,8,11.9,8C11.9,8,11.9,8,11.9,8L11.9,8C12,8,12,8,11.9,8C12,8,12,8,11.9,8C12,8,12,8,11.9,8
		C11.9,8,11.9,8,11.9,8C11.9,8,11.9,8,11.9,8C11.9,8,11.9,8,11.9,8C11.9,8,11.9,8,11.9,8C11.9,8,11.9,8.1,11.9,8
		C11.9,8,11.9,8,11.9,8 M11.9,7.9C11.9,7.9,11.9,8,11.9,7.9C11.9,7.9,11.9,7.9,11.9,7.9C11.9,7.9,11.9,7.9,11.9,7.9 M12,8
		C12,8,12,8,12,8C12,8,12,8,12,8C12,8,12,8,12,8 M12.2,7.9C12.2,7.9,12.2,8,12.2,7.9c0.2,0.1,0.3,0,0.4,0c-0.1,0-0.2,0-0.3,0
		c0.1,0,0.1,0,0.1,0C12.4,7.9,12.3,7.9,12.2,7.9C12.2,7.9,12.2,7.9,12.2,7.9C12.2,7.9,12.2,8,12.2,7.9C12.2,8.1,12.5,8,12.5,8
		c0,0-0.1,0-0.2,0c-0.1,0-0.2,0-0.4,0v0C12,8,12,8,12,8c0,0,0,0,0,0c0,0,0,0,0,0c0,0,0,0,0,0c0,0,0,0,0,0c0,0,0,0,0,0c0,0,0,0,0,0
		c0,0,0,0,0,0c0,0,0,0,0,0c0,0,0,0,0,0c0,0,0,0,0,0c0,0,0,0,0,0c0,0,0,0,0,0c0,0,0,0,0,0c0,0,0,0,0,0c0,0,0,0.1,0,0.1
		c0,0-0.1-0.1-0.1-0.1c0,0,0,0,0,0c0,0,0,0,0-0.1c0,0,0,0,0,0c0,0,0,0,0,0c0,0,0,0,0,0c0,0,0,0,0,0c0,0,0,0,0,0c0,0,0,0,0,0
		c0,0,0,0,0,0c0,0,0,0,0,0c0,0,0,0,0,0c0,0,0,0,0,0c0,0,0,0,0,0c0,0,0,0,0,0c0,0,0,0,0,0c0,0,0,0,0,0c0,0,0,0,0,0c0,0,0,0,0,0
		c0,0,0,0,0,0c0,0,0,0,0,0c0,0,0,0,0,0c0,0,0,0,0,0c0,0,0,0,0,0c0,0,0,0,0,0c0,0,0,0,0,0c0,0,0,0,0,0c0,0,0,0,0,0c0,0,0,0,0,0
		c0,0,0,0,0,0c0,0,0,0,0,0c0,0,0,0,0,0c0,0,0,0,0,0c0,0,0,0,0,0c0,0,0,0.1,0,0c0,0,0,0,0,0c0,0,0,0,0,0c0,0,0,0,0,0c0,0,0,0,0,0
		c0,0,0,0,0,0c0,0,0,0,0,0c0,0,0,0,0,0.1c0,0,0,0,0,0c0,0,0,0,0,0c0,0-0.1,0-0.1,0c0,0,0,0,0,0l0,0c0,0,0,0,0,0c0,0,0,0,0,0
		c0,0,0,0,0,0c0,0,0,0,0,0c0,0,0,0,0,0c0,0,0,0,0,0c0,0,0,0,0,0c0,0,0,0,0,0c0,0,0,0,0,0c0,0,0,0,0,0c0,0,0,0,0,0c0,0,0,0,0,0
		c0,0,0,0,0,0c0,0,0,0,0,0c0,0,0,0,0,0c0,0,0,0,0,0c0,0,0,0,0,0c0,0,0,0,0,0c0,0,0,0,0,0c0,0,0,0,0,0c0,0,0,0,0,0c0,0,0,0,0,0
		c0,0,0,0,0,0c0,0,0,0,0,0c0,0,0,0,0,0c0,0,0,0,0,0c0,0,0,0,0,0c0,0,0,0,0,0c0,0,0,0,0,0c0,0,0,0,0,0c0,0,0,0,0,0c0,0,0,0,0,0
		c0,0,0,0,0,0c0,0,0,0,0,0c0,0,0,0,0,0c0,0,0,0,0,0c0,0,0,0,0,0c0,0,0,0,0,0c0,0,0,0,0,0c0,0,0,0,0,0c0,0,0,0,0,0c0,0,0,0,0.1,0
		c0,0,0,0,0,0c0,0,0,0,0,0c0,0,0,0,0,0c0,0,0,0,0-0.1c0,0,0,0,0,0c0,0,0.1,0,0.1,0c0,0,0,0,0,0.1c0,0,0,0,0,0.1c0,0,0,0,0,0
		c0,0,0,0,0,0c0,0,0,0-0.1,0c0,0,0,0,0,0c0,0,0,0,0,0c0,0,0,0,0,0v0c0,0,0,0,0,0c0,0,0,0,0,0c0,0,0,0,0,0c0,0,0,0,0,0c0,0,0,0,0,0
		c0,0,0,0,0,0c0,0,0,0,0,0c0,0,0,0,0,0c0,0,0,0,0,0c0,0,0,0,0,0c0,0,0,0,0,0c0,0,0,0,0,0c0,0,0,0,0,0c0,0,0,0,0,0c0,0,0,0,0,0
		c0,0,0,0,0,0c0,0,0,0,0,0c0,0,0,0,0,0c0,0,0,0,0,0c0,0,0,0,0,0c0,0,0,0,0,0c0,0,0,0,0,0c0,0,0,0,0,0c0,0,0,0,0,0c0,0,0,0,0-0.1
		c0,0,0-0.1,0-0.1c0,0,0.1,0,0.1,0c0,0,0.1,0,0.1,0c0,0,0,0,0,0c0,0,0,0,0,0l0,0c0,0,0,0,0,0c0,0,0,0,0,0c0,0,0,0,0,0c0,0,0,0,0,0
		c0,0,0,0,0,0c0,0,0,0,0,0c0,0,0,0,0,0c0,0,0,0,0,0c0,0,0,0,0,0c0,0,0,0,0,0c0,0,0,0,0,0c0,0,0,0,0,0c0,0,0,0,0,0c0,0,0,0,0,0
		c0,0,0,0,0,0c0,0,0,0,0,0c0,0,0,0,0,0c0,0,0,0,0,0c0,0,0,0,0,0c0,0,0,0,0,0c0,0,0,0,0,0c0,0,0,0,0,0c0,0,0,0,0,0c0,0,0,0,0,0v0
		c0,0,0,0,0,0c0,0,0,0,0,0c0,0,0,0,0,0c0,0,0,0,0,0c0,0,0,0,0,0c0,0,0,0,0,0c0,0-0.1,0-0.1-0.1c0,0,0,0,0,0c0.1,0,0.2,0,0.2-0.1
		C12.5,8,12.2,8,12.2,7.9C12.2,8,12.2,7.9,12.2,7.9"/>
	<path class="st0" d="M6.3,1.5C6.3,1.5,6.2,1.4,6.3,1.5c-0.1-0.1-0.2,0-0.2,0C6.1,1.6,6.1,1.6,6.3,1.5C6.2,1.6,6.3,1.6,6.3,1.5"/>
	<path class="st0" d="M6.2,1.3C6.2,1.2,6.2,1.2,6.2,1.3c-0.1-0.1-0.2,0-0.2,0C6.1,1.3,6.1,1.4,6.2,1.3C6.2,1.4,6.2,1.3,6.2,1.3"/>
	<path class="st0" d="M6.3,1.2C6.3,1.2,6.4,1.1,6.3,1.2C6.4,1,6.3,1,6.3,1C6.2,1,6.2,1,6.3,1.2C6.2,1.1,6.2,1.2,6.3,1.2"/>
	<path class="st0" d="M6.5,1.2C6.6,1.2,6.6,1.1,6.5,1.2C6.6,1,6.6,1,6.5,1C6.5,1,6.4,1,6.5,1.2C6.4,1.1,6.5,1.2,6.5,1.2"/>
	<path class="st0" d="M7.5,1c0,0,0.1,0,0.1,0c0,0,0-0.1,0-0.1c0,0-0.1,0-0.1,0C7.5,0.9,7.5,1,7.5,1"/>
	<path class="st0" d="M7.5,0.8c0,0,0-0.1,0-0.1c0,0-0.1,0-0.1,0c0,0,0,0.1,0,0.1C7.4,0.8,7.5,0.8,7.5,0.8"/>
	<path class="st0" d="M7.3,0.8c0,0,0-0.1,0-0.1c0,0-0.1,0-0.1,0c0,0,0,0.1,0,0.1C7.2,0.8,7.2,0.8,7.3,0.8"/>
	<path class="st0" d="M7.1,0.9c0,0,0-0.1,0-0.1c0,0-0.1,0-0.1,0c0,0,0,0.1,0,0.1C7,0.9,7,0.9,7.1,0.9"/>
	<path class="st0" d="M6.5,0.8l0.1,0.2l0.1-0.1c0,0,0,0,0,0c0,0.1,0,0.1,0,0.2c0,0.1,0.1,0.1,0.1,0.1c0.1,0,0.1-0.1,0.1-0.1
		c0,0,0-0.1-0.1-0.1c0,0-0.1-0.1-0.1-0.1c0,0,0,0,0,0l0.2,0L6.8,0.7L6.7,0.8c0,0,0,0,0,0l0-0.2L6.5,0.6l0.1,0.1c0,0,0,0,0,0L6.5,0.8
		z"/>
	<path class="st0" d="M7.5,1.1c0,0.1,0,0.1,0,0.1C7.6,1.2,7.5,1.2,7.5,1.1l0,0.2c0,0,0-0.1,0.1-0.1c0,0.1-0.1,0.2-0.1,0.2
		c-0.1,0-0.1,0-0.1-0.1c0-0.1,0-0.1,0.1,0c0-0.1-0.1-0.1-0.1-0.1c0.1-0.1,0-0.2-0.1-0.3c-0.1,0.1,0,0.2,0,0.3c-0.1,0-0.2,0-0.1,0.1
		c0-0.1,0.1-0.1,0.1,0c0,0.1,0,0.1-0.1,0.2C7.1,1.6,7,1.5,7,1.4c0,0,0.1,0,0.2,0L7.1,1.3C7.1,1.3,7,1.4,7,1.4c0-0.1,0-0.2,0-0.2
		L6.8,1.3c0,0,0.1,0.1,0.2,0.1c-0.1,0-0.1,0-0.2,0l0.1,0.2c0-0.1,0.1-0.1,0.1-0.1C7,1.5,7,1.6,6.9,1.7c-0.1,0-0.2,0-0.2,0
		c0-0.1,0-0.1,0.1-0.1c0-0.1-0.1-0.1-0.1,0c0-0.1,0-0.2-0.2-0.2c0,0.1,0,0.2,0.1,0.2c-0.1,0-0.1,0.1,0,0.1c0-0.1,0.1-0.1,0.1,0
		c0,0,0,0.1,0,0.1c0,0-0.1,0-0.2-0.1c0,0,0.1,0,0.1,0L6.4,1.6c0,0.1,0,0.1,0,0.1c0,0,0-0.1,0-0.1L6.2,1.7C6.3,1.7,6.4,1.8,6.5,2
		c0.1-0.1,0.4-0.2,0.5-0.3c0.2-0.1,0.4-0.2,0.6-0.2c0-0.2,0-0.4,0-0.5L7.5,1.1z"/>
	<path class="st0" d="M7.8,2.3c-0.1,0.1-0.3,0-0.4-0.1C7.6,2.1,7.8,2,8,1.9C7.8,2.1,7.9,2.2,7.8,2.3 M7.8,3.5
		C7.6,3.6,7.5,3.5,7.5,3.4c0-0.1-0.1-0.2,0-0.2C7.5,3.1,7.5,3,7.5,3c0-0.1-0.2-0.1-0.3,0c0.1-0.1,0.1-0.2,0-0.2
		c-0.1,0-0.1,0.1-0.1,0.1c0,0,0-0.1,0-0.1c0-0.1,0-0.1,0.1-0.1l0.5-0.2c0.1,0,0.1,0,0.1,0c0,0,0.1,0.1,0.1,0.1c0,0-0.1-0.1-0.2,0
		c-0.1,0,0,0.1,0.1,0.1C7.7,2.8,7.6,2.8,7.6,2.9c0,0.1,0.1,0.1,0.2,0.1c0.1,0,0.1,0.1,0.1,0.2C8,3.3,8,3.5,7.8,3.5 M6.9,2.6
		c-0.1,0-0.1-0.1-0.3-0.2c0.2,0,0.4-0.1,0.5-0.2C7.1,2.4,7.1,2.6,6.9,2.6 M9.5,6.8c0-0.1-0.1-0.2-0.2-0.3c0-0.1,0-0.3-0.2-0.5
		C9,5.8,8.5,5.2,8.3,5c0,0,0.1,0,0.2,0.1c0.1,0.1,0.2,0.2,0.3,0.3C9,5,9.2,4.7,9.4,4.5c0,0,0.1-0.1,0.1-0.1c-0.1,0-0.2,0-0.3,0.1
		c0-0.2,0-0.3-0.1-0.4c0-0.2,0-0.5-0.5-0.8C8.9,3.3,9,3.5,9.2,3.4C9,3.4,9,3,8.4,2.7c0.2,0,0.4,0.4,0.7,0.2c-0.3,0-0.3-0.5-0.8-0.6
		c0.2,0,0.3,0.1,0.5-0.1C8.6,2.1,8.5,2,8.3,2c0.1-0.2,0-0.3,0-0.5C8.2,1.5,8,1.5,8,1.6c0-0.1-0.1-0.1-0.2-0.1c0,0,0,0.1,0,0.1
		c-0.1,0-0.4,0.1-0.6,0.2C6.9,1.9,6.7,2.1,6.6,2.1c0,0-0.1,0-0.1-0.1C6.4,2.1,6.3,2.2,6.4,2.3c-0.1,0-0.3,0-0.4,0.1
		c0,0.1,0.1,0.3,0.3,0.3C6,3,6.3,3.3,6,3.5c0.4,0,0.3-0.5,0.5-0.6c0,0.4-0.2,0.4-0.2,0.8c0,0.2,0.1,0.4,0,0.6
		c0.3-0.1,0.2-0.7,0.4-0.9c0,0.1,0,0.2,0,0.3C6.6,4,6.7,4.5,6.5,4.6c0.3,0,0.3-0.5,0.6-0.7C6.9,4.3,6.7,5.3,6.4,5.8
		C5.8,6.5,5.5,7.3,5.1,7.3c-0.2,0-0.4-0.1-0.4-0.4c0-0.8,1.4-1.3,1.4-2.2c0-0.4-0.3-0.5-0.5-0.5c-0.1,0-0.3,0.1-0.4,0.2
		c-0.1,0-0.1,0-0.2,0c-0.5,0-0.4,0.9-0.8,0.9c0.2,0.1,0.5-0.1,0.6-0.3C4.8,5.4,3.9,5.3,4,6c0.1-0.5,1.4-0.5,1.4-1.3
		c0-0.1,0-0.2-0.1-0.2c0.1-0.1,0.2-0.1,0.3-0.1c0.2,0,0.3,0.1,0.3,0.3c0,0.7-1.4,1.3-1.4,2.2c0,0.1,0,0.3,0.1,0.4
		c-0.1,0-0.2,0-0.3-0.1c0,0.2,0.3,0.4,0.5,0.3c0,0,0.1,0,0.1,0C4.9,7.7,4.7,7.7,4.6,7.7C5,8,5.5,7.6,5.5,7.3
		c0.3-0.2,0.4-0.6,0.6-0.8c0,0.1,0,0.1,0,0.2C5.9,7,5.7,7.3,5.7,7.8c0,0.4-0.2,0.7-0.5,0.7C5.1,8.6,5,8.5,5,8.5
		c-0.1,0.1,0,0.2,0,0.2c0,0.1-0.2,0.2-0.2,0.6c0,0.2,0.1,0.3,0.1,0.4C4.9,9.7,5,9.6,5,9.4c0.1,0.5-0.2,0.4,0,0.8
		c0-0.1,0.2-0.2,0.2-0.1c0.1,0.1,0,0.1,0,0.2c-0.1,0.1-0.1,0.4,0.2,0.3c-0.1,0-0.1-0.1,0.1-0.1c0.2,0,0.2,0,0.4,0
		c0.1,0,0.2-0.2,0.3-0.2c0.1,0,0.1,0.1,0.1,0.1c0.2,0,0.2-0.1,0.2-0.2c0-0.1-0.1-0.1,0-0.2c0.1,0,0.2,0,0.2,0.2
		c0.1,0,0.1-0.1,0.1-0.2c0-0.1-0.1-0.2-0.3-0.2c0-0.1-0.1-0.1-0.2-0.1c-0.2,0-0.2,0.2-0.3,0.2C5.7,9.9,5.5,9.6,5.5,9
		c0-0.3,0.3-0.4,0.5-0.5c0.2-0.1,0.6-0.3,0.8-0.7C7,7.6,7,7.2,7,6.8C7.3,7,7.3,7.3,7.3,7.5c0,0.2-0.1,0.3-0.2,0.4C7,7.9,7,7.9,7,7.9
		C7,8,7,8,7.1,8c0.1,0.1,0.1,0.2,0.1,0.3c0,0.1,0.1,0.3,0.3,0.4c0-0.1,0-0.2,0-0.3C7.7,8.5,7.5,9,8,9C7.9,9,7.9,8.8,8,8.8
		c0,0,0.1,0,0.2,0.2c0.1,0.1,0.1,0.1,0.3,0.1C8.7,9.1,8.6,9,8.7,9c0.1,0,0.1,0.1,0,0.2C8.9,9.2,9,9,8.9,8.9c0.2-0.1,0.3,0,0.3,0.1
		c0.2-0.2,0-0.4-0.1-0.4C9.1,8.6,9,8.5,9,8.5c-0.1,0-0.1,0-0.2,0c-0.1,0-0.1,0.1-0.2,0.1c-0.3,0-0.9-0.5-0.9-0.8
		c0-0.2,0.5-0.4,0.5-0.7c0-0.5-0.5-0.6-0.8-0.9C7.5,6.1,7.9,6,8.1,6.2c0-0.1,0.1-0.1,0.1-0.3c0.1,0.2,0,0.4,0.1,0.4
		C8.4,6.2,8.6,6.2,8.6,6c0,0.2-0.1,0.4,0,0.5c0-0.1,0.1-0.1,0.1-0.1c0,0,0.1,0,0.1,0.1c0,0.2-0.2,0.1-0.2,0.3c0,0.1,0.1,0.1,0.1,0.2
		c0,0.1-0.1,0.1-0.2,0.1c0,0.1,0.1,0.2,0.2,0.2C8.8,7.1,8.9,7,9,6.9C9,7,9,7.2,8.9,7.2c0.1,0,0.3,0,0.3-0.3c0.1,0,0.2,0.1,0.1,0.3
		c0.1,0,0.2-0.1,0.2-0.2C9.6,6.9,9.5,6.9,9.5,6.8"/>
	<path class="st0" d="M18.3,9c0-0.2,0.1-0.3,0.3-0.3c0.2,0,0.3,0.1,0.3,0.3c0,0.2-0.1,0.3-0.3,0.3C18.5,9.2,18.3,9.1,18.3,9 M18.2,9
		c0,0.2,0.2,0.4,0.4,0.4C18.8,9.3,19,9.2,19,9s-0.2-0.4-0.4-0.4C18.4,8.6,18.2,8.7,18.2,9"/>
	<path class="st0" d="M17,9.7c-0.1,0-0.2-0.1-0.2-0.2c0,0,0-0.1,0.1-0.1c0,0,0.1,0,0.2,0c0.1,0,0.2,0.1,0.2,0.2c0,0,0,0,0,0
		C17.2,9.6,17.1,9.7,17,9.7 M16.8,9.3c-0.1,0-0.1,0.1-0.1,0.1c0,0.1,0,0.1,0.1,0.2c0,0.1,0.1,0.1,0.2,0.1c0.1,0,0.2,0,0.2,0
		c0.1,0,0.1-0.1,0.1-0.2c0-0.1-0.1-0.3-0.3-0.3C17,9.2,16.9,9.3,16.8,9.3"/>
	<path class="st0" d="M14.7,4.1c0,0,0-0.1,0.1-0.1c0,0,0.1-0.1,0.1,0c0,0,0.1,0,0.1,0c0,0,0,0.1,0,0.1c0,0,0,0.1-0.1,0.1
		C14.8,4.2,14.7,4.2,14.7,4.1C14.7,4.2,14.7,4.2,14.7,4.1 M14.7,3.9c-0.1,0.1-0.2,0.2-0.1,0.3c0.1,0.1,0.2,0.1,0.4,0
		c0.1-0.1,0.1-0.1,0.1-0.2c0-0.1,0-0.1,0-0.2c0,0-0.1-0.1-0.1-0.1C14.8,3.8,14.7,3.9,14.7,3.9"/>
	<path class="st0" d="M16.5,9.2 M16.5,9.1L16.5,9.1C16.5,9.1,16.4,9.1,16.5,9.1C16.4,9,16.4,9,16.4,8.9c0-0.1,0-0.1,0.1-0.2
		c0,0,0,0,0.1,0c0.1,0,0.1,0.1,0.1,0.2C16.6,9,16.6,9,16.5,9.1C16.6,9.1,16.5,9.1,16.5,9.1 M16.3,8.7c-0.1,0.1-0.1,0.1-0.1,0.2v0
		c0,0.1,0,0.2,0.1,0.2c0,0,0.1,0.1,0.2,0.1c0.1,0,0.1,0,0.2-0.1c0.1-0.1,0.1-0.1,0.1-0.2c0-0.1,0-0.2-0.1-0.2c0-0.1-0.1-0.1-0.2-0.1
		C16.4,8.6,16.4,8.6,16.3,8.7"/>
	<path class="st0" d="M14.5,5.9c-0.1,0-0.2-0.1-0.1-0.2c0,0,0-0.1,0.1-0.1c0.1,0,0.1,0,0.2,0c0.1,0,0.1,0.1,0.1,0.1c0,0,0,0.1,0,0.1
		c0,0,0,0.1-0.1,0.1C14.7,6,14.6,6,14.5,5.9 M14.5,5.6c-0.1,0-0.1,0.1-0.1,0.1c-0.1,0.1,0,0.3,0.2,0.4c0.1,0,0.2,0,0.2,0
		c0.1,0,0.1-0.1,0.1-0.1c0-0.1,0-0.1,0-0.2c0-0.1-0.1-0.1-0.2-0.2C14.6,5.5,14.5,5.5,14.5,5.6"/>
	<path class="st0" d="M17.3,7.3c-0.1,0.1-0.2,0.1-0.2,0.1c-0.1-0.1-0.1-0.2,0-0.3C17.1,7,17.2,7,17.2,7.1
		C17.3,7.1,17.3,7.2,17.3,7.3 M16.8,8c-0.1,0.1-0.2,0.1-0.2,0.1c-0.1,0-0.1-0.2,0-0.3c0.1-0.1,0.2-0.1,0.2-0.1
		C16.9,7.8,16.9,7.9,16.8,8 M15.2,4.1c0.1-0.2,0.2-0.5,0.2-0.5l0.2,0.1c-0.1,0-0.1,0.1-0.2,0.1c0,0,0.1,0,0.2,0L15.5,4
		c0,0-0.1-0.1-0.1-0.1c0,0.1,0.1,0.2,0.1,0.2c0.1,0.1,0.2,0.1,0.2,0c0-0.1,0-0.1-0.1-0.1c0-0.1,0-0.1,0.1-0.1c0,0,0.1,0,0.1,0.1
		c0-0.1,0.1-0.3,0.2-0.3C16,3.8,16,3.9,15.9,4C15.9,4,16,4,16,4c0,0,0,0.1-0.1,0.2c0-0.1-0.1-0.1-0.2,0c0,0.1,0,0.1,0.1,0.2
		c0.1,0.1,0.2,0,0.3-0.1c0,0-0.1,0-0.2,0L16.1,4c0,0,0,0.1,0.1,0.1c0,0,0-0.1,0-0.2l0.3,0.1c-0.1,0-0.1,0.1-0.2,0.1
		c0.1,0,0.1,0,0.1,0l-0.1,0.2c0-0.1,0-0.1-0.1-0.2c-0.1,0.1,0,0.2,0.1,0.3c0.1,0.1,0.2,0.1,0.2,0c0-0.1,0-0.2-0.1-0.1
		c0-0.1,0.1-0.1,0.1-0.1c0,0,0.1,0.1,0.1,0.1c0-0.1,0.1-0.2,0.2-0.3c0,0.1,0,0.3-0.2,0.3c0.1,0,0.1,0,0.1,0c0,0.1,0,0.1-0.1,0.2
		c0-0.1-0.1-0.1-0.2-0.1c0,0.1,0,0.1,0.1,0.2c0.1,0,0.2,0.1,0.3,0c0,0-0.1,0-0.1,0L17,4.6c0,0.1,0,0.1,0.1,0.1c0-0.1,0-0.2,0-0.2
		l0.1,0.1c0,0-0.2,0.3-0.4,0.4L15.2,4.1z M17.1,6.2C17.1,6.2,17.1,6.2,17.1,6.2c0.1-0.1,0.1-0.1,0.1-0.1c0.1,0,0.1,0,0.2,0.1
		c0,0,0.1,0.1,0.1,0.2c0,0,0,0.1,0,0.1v0c0,0-0.1,0-0.1,0c-0.1,0-0.1,0-0.2-0.1C17.2,6.4,17.1,6.3,17.1,6.2 M17.8,9.4
		c0-0.1,0-0.1,0.1-0.1c0.1,0,0.1-0.1,0.2,0c0,0,0.1,0,0.1,0.1c0,0,0,0.1,0,0.1c0,0.1,0,0.1-0.1,0.1C18,9.6,17.9,9.6,17.8,9.4
		C17.8,9.5,17.8,9.4,17.8,9.4 M14.5,4.6c0,0.1,0,0.1-0.1,0.1c0,0,0,0-0.1,0c-0.1,0-0.1-0.1-0.1-0.2c0,0,0,0,0,0c0-0.1,0-0.1,0.1-0.1
		c0,0,0,0,0.1,0c0,0,0.1,0,0.1,0C14.5,4.5,14.5,4.6,14.5,4.6 M15.6,2.5c0.1-0.1,0-0.3,0.2-0.3c0.1,0,0.2,0.1,0.3,0.1
		C15.8,2.4,15.7,2.5,15.6,2.5 M18.5,5.2c0.1,0.3,0.4,0.5,0.6,0.4c-0.4,0-0.1-0.8-0.6-0.8c0,0-0.1,0-0.1,0c-0.1-0.1-0.2-0.1-0.4-0.1
		c-0.2,0-0.6,0.2-0.6,0.7c0,1,1.2,1.1,1.2,2c0,0.3-0.2,0.4-0.4,0.4c-0.2,0-0.4-0.2-0.5-0.6c-0.1-0.2-0.2-0.4-0.4-0.6
		c0.1,0,0.1,0.1,0.2,0.1c0.1,0,0.1,0,0.2-0.1c0,0,0.1-0.1,0.1-0.2v0c0-0.1,0-0.2-0.1-0.2C17.4,6.1,17.3,6,17.3,6
		c-0.1,0-0.1,0-0.2,0.1c0,0-0.1,0.1-0.1,0.2v0c0,0,0,0.1,0,0.1c-0.2-0.3-0.5-0.6-0.5-0.8c0-0.2,0.1-0.3,0.2-0.5c0,0,0,0,0,0l0,0
		c0-0.1,0.1-0.2,0.3-0.4l0,0l0,0l0-0.1l-0.1-0.1c0-0.1,0.1-0.2,0.1-0.2c0,0.2,0.1,0.3,0.2,0.2c-0.1-0.2,0.1-0.4,0-0.8
		c0.1,0.2,0.2,0.2,0.3,0.2c-0.3-0.2,0.1-0.5-0.3-1c0.1,0,0.2,0,0.2,0c-0.3,0-0.2-0.4-0.7-0.6c0.1,0,0.2-0.1,0.2-0.2
		c-0.1,0.1-0.3-0.2-0.7-0.2c0-0.2-0.2-0.4-0.4-0.4c0,0.1,0,0.3,0,0.4l-1.5-1.5c0,0-0.1-0.1-0.1,0c0,0,0,0,0,0.1L15.8,2
		c-0.1,0-0.2,0.1-0.3,0.1c-0.1,0-0.1,0.1-0.1,0.2c-0.2,0.1-0.5,0.3-0.6,0.4c-0.1,0.1-0.1,0.1-0.1,0.3c0,0.1-0.1,0.2,0.1,0.1
		c0.1-0.1,0.4-0.2,0.4-0.1c0,0-0.1,0.1-0.2,0.2c-0.1,0-0.2,0.1-0.2,0.1c0,0,0.1,0,0.1,0c0,0,0,0.1,0.1,0.1c0,0,0.1-0.1,0.1-0.1
		c0,0,0,0.2,0,0.2c0.1,0,0.2-0.2,0.2-0.3c0-0.1,0-0.1,0.1-0.2c0,0,0,0.1,0,0.2c0.1,0,0.2-0.1,0.1-0.3c0,0,0.1-0.1,0.1-0.1
		c0,0,0.1,0.1,0.3,0.1c0.3,0,0.4-0.2,0.4-0.3c0-0.1,0-0.2,0-0.2c0.1,0.1,0.1,0.2,0.1,0.3c0,0.4-0.6,0.5-0.9,0.8c0,0,0,0,0,0
		l-0.3-0.1l0,0.1c0,0,0,0,0,0.1c0,0.1-0.1,0.3-0.1,0.4c0,0,0,0,0,0l0,0c-0.2,0.2-0.3,0.5-0.4,0.8c-0.1-0.1-0.1-0.1-0.2-0.2
		c0,0,0-0.1,0-0.1c0-0.1,0-0.2-0.1-0.2c0,0-0.1-0.1-0.1-0.1c-0.1,0-0.1,0-0.1,0.1c0,0,0,0,0,0c0,0,0,0,0,0c-0.1-0.1-0.2-0.2-0.3-0.2
		c0,0-0.1-0.1-0.1-0.1c0,0-0.1,0-0.1,0c0,0-0.1,0-0.1,0.1c0,0-0.1,0.1-0.2,0.1c0,0,0.1,0.1,0.1,0.1c0,0,0,0,0.1,0.1c0,0,0,0,0.1,0
		c0,0,0.1,0,0.1,0c0,0,0.1,0,0.1,0.1c0,0,0.3,0.4,0.5,0.6c0,0,0,0-0.1,0c-0.1,0-0.3,0-0.4,0c-0.1,0-0.1,0-0.2,0.1
		c0,0-0.1,0.1-0.1,0.1c0,0-0.1,0.1,0,0.2C13.7,5.7,13.9,6,14,6.2c0.1,0.2,0.2,0.2,0.3,0.3c0.1,0.1,0.4,0.2,0.4,0.2l0-0.1
		c0,0-0.2-0.1-0.2-0.1c0,0-0.1,0,0,0c0.1,0,0.2,0.1,0.3,0.1c0-0.1-0.2-0.3-0.2-0.4c-0.1,0-0.2,0-0.2,0c0,0,0,0.1-0.1,0.1
		c0,0-0.1,0-0.1-0.1c0,0,0.1-0.1,0.1-0.1c0-0.1-0.1-0.1-0.2-0.1c-0.1-0.1-0.2-0.3-0.2-0.4c0-0.1,0-0.1,0-0.1c0.1-0.1,0.2,0,0.5,0.1
		c0.1,0,0.2,0,0.4,0c0,0.4,0.2,0.7,0.7,0.8c0.2,0.1,0.5,0.2,0.6,0.5c-1,0-1.1,0.4-1.1,0.7c0,0.4,0.3,0.4,0.3,0.7
		c0,0.3-0.8,0.4-1.1,0.4c-0.2,0-0.3,0.1-0.4,0.2c-0.1,0.1-0.2,0.2-0.4,0.4c0,0,0.1,0,0.2,0L13.7,9c0-0.1,0.1-0.1,0.1-0.1
		c0,0,0,0.1,0,0.1l-0.1,0.2c0.5,0,0.5-0.1,0.5-0.2c0-0.1-0.1-0.1-0.1-0.2c0.1,0,0.1,0,0.2,0.1C14.4,9,14.4,9,14.5,9
		c0,0,1.1-0.4,1.2-0.5c0.1-0.1,0.1-0.1,0-0.2c-0.1-0.1-0.1-0.2-0.1-0.3c0-0.3,0.2-0.4,0.5-0.4c0,0.1,0,0.1,0,0.2c0,0.5,0.8,1,1,1
		c0.1,0,0.2-0.1,0.2,0.2c0,0.2,0,0.4,0,0.6c0,0.3-0.1,0.3-0.3,0.4c-0.2,0.1-0.3,0.4-0.4,0.5c0.1,0,0.1,0.1,0.2-0.1
		c0-0.1,0.1-0.2,0.2-0.3C17,10.3,17,10.5,17,10.6c0.2,0,0.5-0.1,0.5-0.3c0-0.1-0.1-0.1-0.1-0.2c0,0,0-0.1,0.1-0.1
		c0.1,0,0.1,0.1,0.1,0.1c0.1,0,0.1-0.1,0.1-0.3c0-0.1,0-0.2,0-0.2c0,0,0,0,0,0c0,0.1,0.1,0.1,0.2,0.1c0.1,0,0.1,0,0.2-0.1
		c0.1-0.1,0.1-0.1,0.1-0.2c0,0,0,0,0,0c0,0,0-0.1,0-0.1c0,0-0.1-0.1-0.1-0.1c-0.1,0-0.2,0-0.2,0.1c-0.1,0-0.1,0.1-0.1,0.2
		c0-0.3,0-0.5,0-0.6c0-0.2,0-0.2,0-0.2c-0.1,0-0.1,0.1-0.2,0.1c-0.1,0-0.3-0.2-0.3-0.4c0-0.2,0.2-0.5,0.2-0.8c0-0.1,0.1-0.1,0.1-0.1
		c0,0.1,0.1,0.2,0.2,0.4c-0.1,0.4,0.3,0.7,0.7,0.5c-0.2,0-0.3-0.1-0.4-0.3c0,0,0.1,0,0.1,0c0,0,0,0,0.1,0C18.3,8,18.7,8,18.8,7.6
		c-0.1,0.1-0.2,0.1-0.3,0.1c0.1-0.1,0.2-0.3,0.2-0.5c0-0.9-1.1-1.1-1.1-1.9c0-0.3,0.3-0.5,0.5-0.5c0.1,0,0.1,0,0.2,0.1
		c-0.1,0.1-0.1,0.2-0.1,0.3c0,0.7,1.1,0.6,1.2,1C19.4,5.7,18.5,5.8,18.5,5.2"/>
	<rect y="0" class="st0" width="0.8" height="31.8"/>
	<g>
		<path class="st0" d="M5.9,16v2.9h3.5V16h0.9v6.6H9.4v-3H5.9v3H5V16H5.9z"/>
		<path class="st0" d="M12.8,16l2.1,5.6l2.1-5.6h1.2v6.6h-0.8v-5.5h0l-2.1,5.5h-0.8l-2.1-5.5h0v5.5h-0.8V16H12.8z"/>
		<path class="st0" d="M24.8,16c0.7,0,1.2,0.2,1.5,0.5c0.3,0.3,0.5,0.8,0.5,1.4c0,0.6-0.2,1.1-0.5,1.5c-0.3,0.3-0.9,0.5-1.5,0.5h-2
			v2.7h-0.9V16H24.8z M24.5,19.2c0.5,0,0.9-0.1,1.1-0.3c0.2-0.2,0.3-0.5,0.3-0.9c0-0.4-0.1-0.7-0.3-0.9c-0.2-0.2-0.6-0.3-1.1-0.3
			h-1.7v2.4H24.5z"/>
		<path class="st0" d="M28.3,17.9v1h0c0.2-0.4,0.4-0.7,0.7-0.9c0.3-0.2,0.6-0.3,1.1-0.3v0.8c-0.3,0-0.6,0-0.8,0.1
			c-0.2,0.1-0.4,0.2-0.5,0.4c-0.1,0.2-0.2,0.4-0.3,0.6c-0.1,0.2-0.1,0.5-0.1,0.8v2.1h-0.8v-4.8H28.3z"/>
		<path class="st0" d="M30.6,17v-1h0.8v1H30.6z M31.4,17.9v4.8h-0.8v-4.8H31.4z"/>
		<path class="st0" d="M33,21.6c0.1,0.1,0.2,0.2,0.3,0.3c0.1,0.1,0.3,0.1,0.4,0.2c0.2,0,0.3,0,0.5,0c0.1,0,0.3,0,0.4,0
			c0.1,0,0.3-0.1,0.4-0.1c0.1,0,0.2-0.1,0.3-0.2c0.1-0.1,0.1-0.2,0.1-0.4c0-0.2-0.1-0.4-0.2-0.5c-0.2-0.1-0.3-0.2-0.6-0.3
			c-0.2-0.1-0.5-0.1-0.8-0.2c-0.3-0.1-0.5-0.1-0.8-0.2c-0.2-0.1-0.4-0.2-0.6-0.4c-0.2-0.2-0.2-0.4-0.2-0.7c0-0.2,0.1-0.5,0.2-0.6
			c0.1-0.2,0.2-0.3,0.4-0.4c0.2-0.1,0.4-0.2,0.6-0.2c0.2-0.1,0.4-0.1,0.6-0.1c0.3,0,0.5,0,0.8,0.1c0.2,0,0.4,0.1,0.6,0.2
			c0.2,0.1,0.3,0.3,0.4,0.5c0.1,0.2,0.2,0.4,0.2,0.7h-0.8c0-0.2-0.1-0.3-0.1-0.4c-0.1-0.1-0.2-0.2-0.3-0.2c-0.1-0.1-0.2-0.1-0.3-0.1
			c-0.1,0-0.3,0-0.4,0c-0.1,0-0.2,0-0.4,0c-0.1,0-0.2,0.1-0.3,0.1c-0.1,0-0.2,0.1-0.2,0.2c-0.1,0.1-0.1,0.2-0.1,0.3
			c0,0.1,0,0.2,0.1,0.3c0.1,0.1,0.2,0.2,0.4,0.2c0.1,0.1,0.3,0.1,0.5,0.1c0.2,0,0.4,0.1,0.6,0.1c0.2,0,0.4,0.1,0.6,0.2
			c0.2,0.1,0.4,0.1,0.5,0.2c0.1,0.1,0.3,0.2,0.4,0.4s0.1,0.3,0.1,0.6c0,0.3-0.1,0.5-0.2,0.7c-0.1,0.2-0.3,0.3-0.5,0.5
			c-0.2,0.1-0.4,0.2-0.7,0.2c-0.2,0-0.5,0.1-0.7,0.1c-0.3,0-0.5,0-0.8-0.1c-0.2-0.1-0.5-0.1-0.6-0.3c-0.2-0.1-0.3-0.3-0.4-0.5
			c-0.1-0.2-0.2-0.5-0.2-0.8h0.8C32.9,21.3,33,21.5,33,21.6z"/>
		<path class="st0" d="M36.8,19.3c0.1-0.3,0.2-0.6,0.4-0.8c0.2-0.2,0.4-0.4,0.7-0.5c0.3-0.1,0.6-0.2,1-0.2c0.4,0,0.7,0.1,1,0.2
			c0.3,0.1,0.5,0.3,0.7,0.5c0.2,0.2,0.3,0.5,0.4,0.8c0.1,0.3,0.1,0.6,0.1,1c0,0.4,0,0.7-0.1,1c-0.1,0.3-0.2,0.6-0.4,0.8
			c-0.2,0.2-0.4,0.4-0.7,0.5c-0.3,0.1-0.6,0.2-1,0.2c-0.4,0-0.7-0.1-1-0.2c-0.3-0.1-0.5-0.3-0.7-0.5c-0.2-0.2-0.3-0.5-0.4-0.8
			c-0.1-0.3-0.1-0.6-0.1-1C36.7,19.9,36.7,19.6,36.8,19.3z M37.6,21c0.1,0.2,0.2,0.4,0.3,0.6c0.1,0.2,0.3,0.3,0.5,0.3
			c0.2,0.1,0.4,0.1,0.6,0.1c0.2,0,0.4,0,0.6-0.1c0.2-0.1,0.3-0.2,0.5-0.3c0.1-0.2,0.2-0.3,0.3-0.6c0.1-0.2,0.1-0.5,0.1-0.8
			c0-0.3,0-0.6-0.1-0.8c-0.1-0.2-0.2-0.4-0.3-0.6c-0.1-0.2-0.3-0.3-0.5-0.4c-0.2-0.1-0.4-0.1-0.6-0.1c-0.2,0-0.4,0-0.6,0.1
			c-0.2,0.1-0.3,0.2-0.5,0.4c-0.1,0.2-0.2,0.3-0.3,0.6c-0.1,0.2-0.1,0.5-0.1,0.8C37.5,20.6,37.5,20.8,37.6,21z"/>
		<path class="st0" d="M42.8,17.9v0.8h0c0.3-0.6,0.8-0.9,1.6-0.9c0.3,0,0.6,0,0.8,0.1c0.2,0.1,0.4,0.2,0.5,0.4
			c0.1,0.2,0.2,0.3,0.3,0.6c0.1,0.2,0.1,0.5,0.1,0.7v3.2h-0.8v-3.3c0-0.3-0.1-0.5-0.3-0.7c-0.2-0.2-0.4-0.3-0.7-0.3
			c-0.2,0-0.5,0-0.6,0.1c-0.2,0.1-0.3,0.2-0.4,0.3C43.1,19,43,19.2,43,19.3c-0.1,0.2-0.1,0.4-0.1,0.6v2.7h-0.8v-4.8H42.8z"/>
		<path class="st0" d="M52.4,22.5c-0.3,0.2-0.7,0.2-1.1,0.2c-0.4,0-0.8-0.1-1.1-0.2c-0.3-0.1-0.5-0.3-0.6-0.5
			c-0.1-0.2-0.2-0.4-0.3-0.6c0-0.2-0.1-0.4-0.1-0.5c0-0.3,0-0.5,0.1-0.7s0.2-0.4,0.3-0.5c0.1-0.2,0.3-0.3,0.5-0.4
			c0.2-0.1,0.4-0.2,0.6-0.4c-0.1-0.1-0.2-0.3-0.3-0.4c-0.1-0.1-0.2-0.2-0.2-0.4c-0.1-0.1-0.1-0.2-0.2-0.4c0-0.1-0.1-0.3-0.1-0.5
			c0-0.2,0-0.4,0.1-0.5c0.1-0.2,0.2-0.3,0.3-0.4c0.1-0.1,0.3-0.2,0.5-0.3c0.2-0.1,0.4-0.1,0.6-0.1c0.2,0,0.4,0,0.6,0.1
			s0.4,0.1,0.5,0.3c0.1,0.1,0.3,0.3,0.4,0.4c0.1,0.2,0.1,0.4,0.1,0.6c0,0.2,0,0.4-0.1,0.6c-0.1,0.2-0.2,0.3-0.3,0.5
			c-0.1,0.1-0.3,0.3-0.4,0.4c-0.1,0.1-0.3,0.2-0.5,0.3l1.2,1.5c0.1-0.3,0.2-0.7,0.2-1h0.8c0,0.2,0,0.4-0.1,0.5c0,0.1,0,0.3-0.1,0.4
			c0,0.1-0.1,0.2-0.1,0.3c0,0.1-0.1,0.2-0.2,0.4l1.3,1.5h-1l-0.7-0.8C53,22.1,52.7,22.4,52.4,22.5z M50.8,19.7
			c-0.1,0.1-0.3,0.2-0.4,0.3c-0.1,0.1-0.2,0.2-0.3,0.4c-0.1,0.1-0.1,0.3-0.1,0.5c0,0.2,0,0.3,0.1,0.5c0.1,0.1,0.2,0.3,0.3,0.4
			c0.1,0.1,0.3,0.2,0.4,0.2c0.2,0.1,0.3,0.1,0.5,0.1c0.3,0,0.6-0.1,0.8-0.2c0.2-0.1,0.4-0.3,0.6-0.6l-1.5-1.8
			C51.1,19.5,50.9,19.6,50.8,19.7z M51.8,18.4c0.1-0.1,0.2-0.2,0.3-0.3c0.1-0.1,0.2-0.2,0.2-0.3c0.1-0.1,0.1-0.2,0.1-0.4
			c0-0.2-0.1-0.4-0.2-0.5c-0.1-0.1-0.3-0.2-0.6-0.2c-0.2,0-0.4,0.1-0.5,0.2c-0.2,0.1-0.2,0.3-0.2,0.5c0,0.1,0,0.2,0.1,0.3
			c0,0.1,0.1,0.2,0.2,0.3s0.1,0.2,0.2,0.3c0.1,0.1,0.1,0.2,0.2,0.3C51.6,18.5,51.7,18.4,51.8,18.4z"/>
		<path class="st0" d="M7.9,25.2c0.7,0,1.2,0.2,1.5,0.5c0.3,0.3,0.5,0.8,0.5,1.4c0,0.6-0.2,1.1-0.5,1.5c-0.3,0.3-0.9,0.5-1.5,0.5h-2
			v2.7H5v-6.6H7.9z M7.6,28.4c0.5,0,0.9-0.1,1.1-0.3C8.9,27.9,9,27.6,9,27.2c0-0.4-0.1-0.7-0.3-0.9C8.5,26.1,8.1,26,7.6,26H5.9v2.4
			H7.6z"/>
		<path class="st0" d="M11.4,27v1h0c0.2-0.4,0.4-0.7,0.7-0.9c0.3-0.2,0.6-0.3,1.1-0.3v0.8c-0.3,0-0.6,0-0.8,0.1
			c-0.2,0.1-0.4,0.2-0.5,0.4c-0.1,0.2-0.2,0.4-0.3,0.6c-0.1,0.2-0.1,0.5-0.1,0.8v2.1h-0.8V27H11.4z"/>
		<path class="st0" d="M13.4,28.5c0.1-0.3,0.2-0.6,0.4-0.8c0.2-0.2,0.4-0.4,0.7-0.5c0.3-0.1,0.6-0.2,1-0.2c0.4,0,0.7,0.1,1,0.2
			c0.3,0.1,0.5,0.3,0.7,0.5c0.2,0.2,0.3,0.5,0.4,0.8c0.1,0.3,0.1,0.6,0.1,1c0,0.4,0,0.7-0.1,1c-0.1,0.3-0.2,0.6-0.4,0.8
			c-0.2,0.2-0.4,0.4-0.7,0.5c-0.3,0.1-0.6,0.2-1,0.2c-0.4,0-0.7-0.1-1-0.2c-0.3-0.1-0.5-0.3-0.7-0.5c-0.2-0.2-0.3-0.5-0.4-0.8
			c-0.1-0.3-0.1-0.6-0.1-1C13.2,29.1,13.3,28.8,13.4,28.5z M14.2,30.2c0.1,0.2,0.2,0.4,0.3,0.6c0.1,0.2,0.3,0.3,0.5,0.3
			c0.2,0.1,0.4,0.1,0.6,0.1c0.2,0,0.4,0,0.6-0.1c0.2-0.1,0.3-0.2,0.5-0.3c0.1-0.2,0.2-0.3,0.3-0.6C17,30,17,29.7,17,29.4
			c0-0.3,0-0.6-0.1-0.8c-0.1-0.2-0.2-0.4-0.3-0.6c-0.1-0.2-0.3-0.3-0.5-0.4c-0.2-0.1-0.4-0.1-0.6-0.1c-0.2,0-0.4,0-0.6,0.1
			c-0.2,0.1-0.3,0.2-0.5,0.4c-0.1,0.2-0.2,0.3-0.3,0.6c-0.1,0.2-0.1,0.5-0.1,0.8C14,29.7,14.1,30,14.2,30.2z"/>
		<path class="st0" d="M19.5,25.2v2.5h0c0.1-0.3,0.3-0.5,0.6-0.6c0.3-0.1,0.6-0.2,0.9-0.2c0.4,0,0.7,0.1,1,0.2
			c0.3,0.1,0.5,0.3,0.7,0.6c0.2,0.2,0.3,0.5,0.4,0.8c0.1,0.3,0.1,0.6,0.1,1c0,0.3,0,0.7-0.1,1c-0.1,0.3-0.2,0.6-0.4,0.8
			c-0.2,0.2-0.4,0.4-0.7,0.5c-0.3,0.1-0.6,0.2-1,0.2c-0.1,0-0.3,0-0.4,0c-0.1,0-0.3-0.1-0.4-0.1s-0.3-0.1-0.4-0.2
			c-0.1-0.1-0.2-0.2-0.3-0.4h0v0.6h-0.8v-6.6H19.5z M22.3,28.7c-0.1-0.2-0.1-0.4-0.3-0.6c-0.1-0.2-0.3-0.3-0.5-0.4
			c-0.2-0.1-0.4-0.1-0.7-0.1c-0.3,0-0.5,0.1-0.7,0.2c-0.2,0.1-0.3,0.2-0.5,0.4c-0.1,0.2-0.2,0.4-0.3,0.6c-0.1,0.2-0.1,0.4-0.1,0.7
			c0,0.2,0,0.5,0.1,0.7c0.1,0.2,0.1,0.4,0.3,0.6c0.1,0.2,0.3,0.3,0.5,0.4c0.2,0.1,0.4,0.2,0.7,0.2s0.5-0.1,0.7-0.2
			c0.2-0.1,0.3-0.2,0.4-0.4c0.1-0.2,0.2-0.4,0.2-0.6c0-0.2,0.1-0.5,0.1-0.7C22.4,29.2,22.4,29,22.3,28.7z"/>
		<path class="st0" d="M28.3,31.8c-0.1,0.1-0.3,0.1-0.6,0.1c-0.2,0-0.4-0.1-0.5-0.2c-0.1-0.1-0.2-0.3-0.2-0.6
			c-0.2,0.3-0.5,0.4-0.8,0.6C26,31.9,25.7,32,25.3,32c-0.2,0-0.4,0-0.6-0.1c-0.2,0-0.4-0.1-0.5-0.2c-0.1-0.1-0.3-0.2-0.3-0.4
			c-0.1-0.2-0.1-0.4-0.1-0.6c0-0.3,0-0.5,0.1-0.7c0.1-0.2,0.2-0.3,0.4-0.4c0.2-0.1,0.3-0.2,0.5-0.2s0.4-0.1,0.6-0.1
			c0.2,0,0.4-0.1,0.6-0.1c0.2,0,0.4-0.1,0.5-0.1s0.3-0.1,0.4-0.2c0.1-0.1,0.1-0.2,0.1-0.3c0-0.2,0-0.3-0.1-0.4
			c-0.1-0.1-0.1-0.2-0.3-0.2c-0.1-0.1-0.2-0.1-0.3-0.1c-0.1,0-0.3,0-0.4,0c-0.3,0-0.6,0.1-0.8,0.2c-0.2,0.1-0.3,0.4-0.4,0.7h-0.8
			c0-0.3,0.1-0.5,0.2-0.8c0.1-0.2,0.3-0.4,0.4-0.5c0.2-0.1,0.4-0.2,0.6-0.3c0.2-0.1,0.5-0.1,0.8-0.1c0.2,0,0.4,0,0.6,0
			c0.2,0,0.4,0.1,0.6,0.2c0.2,0.1,0.3,0.2,0.4,0.4c0.1,0.2,0.2,0.4,0.2,0.7v2.5c0,0.2,0,0.3,0,0.4c0,0.1,0.1,0.1,0.2,0.1
			c0.1,0,0.1,0,0.2,0V31.8z M27,29.4c-0.1,0.1-0.2,0.1-0.4,0.2c-0.2,0-0.3,0.1-0.5,0.1c-0.2,0-0.4,0-0.5,0.1c-0.2,0-0.3,0.1-0.5,0.1
			c-0.1,0.1-0.3,0.2-0.3,0.3c-0.1,0.1-0.1,0.3-0.1,0.5c0,0.1,0,0.2,0.1,0.3c0.1,0.1,0.1,0.2,0.2,0.2c0.1,0.1,0.2,0.1,0.3,0.1
			c0.1,0,0.2,0,0.4,0c0.3,0,0.5,0,0.7-0.1c0.2-0.1,0.3-0.2,0.5-0.3c0.1-0.1,0.2-0.2,0.3-0.4c0.1-0.1,0.1-0.2,0.1-0.4V29.4z"/>
		<path class="st0" d="M30.9,27v0.7h-1v3c0,0.1,0,0.2,0,0.2c0,0.1,0,0.1,0.1,0.1c0,0,0.1,0.1,0.2,0.1c0.1,0,0.2,0,0.3,0h0.4v0.7
			h-0.6c-0.2,0-0.4,0-0.5,0s-0.3-0.1-0.4-0.2c-0.1-0.1-0.2-0.2-0.2-0.3c0-0.1-0.1-0.3-0.1-0.5v-3.1h-0.8V27h0.8v-1.4h0.8V27H30.9z"
			/>
		<path class="st0" d="M31.6,26.2v-1h0.8v1H31.6z M32.4,27v4.8h-0.8V27H32.4z"/>
		<path class="st0" d="M33.4,28.5c0.1-0.3,0.2-0.6,0.4-0.8c0.2-0.2,0.4-0.4,0.7-0.5c0.3-0.1,0.6-0.2,1-0.2c0.4,0,0.7,0.1,1,0.2
			c0.3,0.1,0.5,0.3,0.7,0.5c0.2,0.2,0.3,0.5,0.4,0.8c0.1,0.3,0.1,0.6,0.1,1c0,0.4,0,0.7-0.1,1c-0.1,0.3-0.2,0.6-0.4,0.8
			c-0.2,0.2-0.4,0.4-0.7,0.5c-0.3,0.1-0.6,0.2-1,0.2c-0.4,0-0.7-0.1-1-0.2c-0.3-0.1-0.5-0.3-0.7-0.5c-0.2-0.2-0.3-0.5-0.4-0.8
			c-0.1-0.3-0.1-0.6-0.1-1C33.2,29.1,33.3,28.8,33.4,28.5z M34.2,30.2c0.1,0.2,0.2,0.4,0.3,0.6c0.1,0.2,0.3,0.3,0.5,0.3
			c0.2,0.1,0.4,0.1,0.6,0.1c0.2,0,0.4,0,0.6-0.1c0.2-0.1,0.3-0.2,0.5-0.3c0.1-0.2,0.2-0.3,0.3-0.6c0.1-0.2,0.1-0.5,0.1-0.8
			c0-0.3,0-0.6-0.1-0.8c-0.1-0.2-0.2-0.4-0.3-0.6c-0.1-0.2-0.3-0.3-0.5-0.4c-0.2-0.1-0.4-0.1-0.6-0.1c-0.2,0-0.4,0-0.6,0.1
			c-0.2,0.1-0.3,0.2-0.5,0.4c-0.1,0.2-0.2,0.3-0.3,0.6c-0.1,0.2-0.1,0.5-0.1,0.8C34.1,29.7,34.1,30,34.2,30.2z"/>
		<path class="st0" d="M39.4,27v0.8h0c0.3-0.6,0.8-0.9,1.6-0.9c0.3,0,0.6,0,0.8,0.1c0.2,0.1,0.4,0.2,0.5,0.4
			c0.1,0.2,0.2,0.3,0.3,0.6c0.1,0.2,0.1,0.5,0.1,0.7v3.2h-0.8v-3.3c0-0.3-0.1-0.5-0.3-0.7c-0.2-0.2-0.4-0.3-0.7-0.3
			c-0.2,0-0.5,0-0.6,0.1c-0.2,0.1-0.3,0.2-0.4,0.3c-0.1,0.1-0.2,0.3-0.3,0.5s-0.1,0.4-0.1,0.6v2.7h-0.8V27H39.4z"/>
		<path class="st0" d="M49.5,26.1c-0.3-0.2-0.7-0.3-1.1-0.3c-0.2,0-0.4,0-0.5,0.1c-0.2,0-0.3,0.1-0.5,0.2c-0.1,0.1-0.3,0.2-0.3,0.3
			c-0.1,0.1-0.1,0.3-0.1,0.5c0,0.2,0.1,0.4,0.2,0.5c0.1,0.1,0.3,0.2,0.5,0.3c0.2,0.1,0.4,0.1,0.7,0.2c0.3,0.1,0.5,0.1,0.8,0.2
			c0.3,0.1,0.5,0.1,0.8,0.2s0.5,0.2,0.7,0.3c0.2,0.1,0.4,0.3,0.5,0.5c0.1,0.2,0.2,0.5,0.2,0.8c0,0.4-0.1,0.7-0.2,0.9
			c-0.2,0.3-0.4,0.5-0.6,0.6c-0.2,0.2-0.5,0.3-0.8,0.3C49.2,32,48.9,32,48.6,32c-0.4,0-0.7,0-1.1-0.1c-0.3-0.1-0.6-0.2-0.9-0.4
			c-0.3-0.2-0.4-0.4-0.6-0.7c-0.1-0.3-0.2-0.6-0.2-1h0.8c0,0.3,0.1,0.5,0.2,0.7c0.1,0.2,0.3,0.4,0.4,0.5c0.2,0.1,0.4,0.2,0.6,0.3
			c0.2,0.1,0.5,0.1,0.7,0.1c0.2,0,0.4,0,0.6-0.1c0.2,0,0.4-0.1,0.5-0.2c0.2-0.1,0.3-0.2,0.4-0.4c0.1-0.2,0.1-0.4,0.1-0.6
			c0-0.2-0.1-0.4-0.2-0.6c-0.1-0.1-0.3-0.3-0.5-0.3c-0.2-0.1-0.4-0.2-0.7-0.2c-0.3-0.1-0.5-0.1-0.8-0.2c-0.3-0.1-0.5-0.1-0.8-0.2
			s-0.5-0.2-0.7-0.3c-0.2-0.1-0.4-0.3-0.5-0.5C46.1,27.5,46,27.3,46,27c0-0.3,0.1-0.6,0.2-0.9c0.1-0.2,0.3-0.4,0.5-0.6
			c0.2-0.2,0.5-0.3,0.8-0.4c0.3-0.1,0.6-0.1,0.9-0.1c0.3,0,0.7,0,0.9,0.1c0.3,0.1,0.5,0.2,0.8,0.4c0.2,0.2,0.4,0.4,0.5,0.7
			c0.1,0.3,0.2,0.6,0.2,0.9h-0.8C50,26.7,49.8,26.3,49.5,26.1z"/>
		<path class="st0" d="M55.4,31.5C55,31.8,54.5,32,54,32c-0.4,0-0.7-0.1-1-0.2c-0.3-0.1-0.5-0.3-0.7-0.5s-0.3-0.5-0.4-0.8
			c-0.1-0.3-0.2-0.6-0.2-1c0-0.4,0.1-0.7,0.2-1c0.1-0.3,0.3-0.6,0.5-0.8c0.2-0.2,0.4-0.4,0.7-0.5c0.3-0.1,0.6-0.2,0.9-0.2
			c0.4,0,0.8,0.1,1.1,0.3c0.3,0.2,0.5,0.4,0.7,0.7c0.2,0.3,0.3,0.6,0.4,0.9c0.1,0.3,0.1,0.6,0.1,0.9h-3.6c0,0.2,0,0.4,0.1,0.6
			c0.1,0.2,0.1,0.4,0.3,0.5c0.1,0.1,0.3,0.3,0.5,0.3c0.2,0.1,0.4,0.1,0.7,0.1c0.3,0,0.6-0.1,0.8-0.2c0.2-0.2,0.4-0.4,0.4-0.7h0.8
			C55.9,30.9,55.7,31.3,55.4,31.5z M55.2,28.5c-0.1-0.2-0.2-0.3-0.3-0.4c-0.1-0.1-0.3-0.2-0.4-0.3s-0.3-0.1-0.5-0.1
			c-0.2,0-0.4,0-0.6,0.1c-0.2,0.1-0.3,0.2-0.4,0.3c-0.1,0.1-0.2,0.3-0.3,0.4c-0.1,0.2-0.1,0.3-0.1,0.5h2.8
			C55.3,28.8,55.2,28.6,55.2,28.5z"/>
		<path class="st0" d="M57.5,27v1h0c0.2-0.4,0.4-0.7,0.7-0.9c0.3-0.2,0.6-0.3,1.1-0.3v0.8c-0.3,0-0.6,0-0.8,0.1
			c-0.2,0.1-0.4,0.2-0.5,0.4c-0.1,0.2-0.2,0.4-0.3,0.6c-0.1,0.2-0.1,0.5-0.1,0.8v2.1h-0.8V27H57.5z"/>
		<path class="st0" d="M61,31.9L59.2,27h0.9l1.4,4h0l1.3-4h0.8l-1.8,4.8H61z"/>
		<path class="st0" d="M64.2,26.2v-1H65v1H64.2z M65,27v4.8h-0.8V27H65z"/>
		<path class="st0" d="M69,27.9c-0.2-0.2-0.5-0.3-0.8-0.3c-0.3,0-0.5,0.1-0.7,0.2c-0.2,0.1-0.3,0.2-0.5,0.4
			c-0.1,0.2-0.2,0.4-0.2,0.6c0,0.2-0.1,0.5-0.1,0.7c0,0.2,0,0.4,0.1,0.7c0.1,0.2,0.1,0.4,0.2,0.6s0.3,0.3,0.4,0.4
			c0.2,0.1,0.4,0.1,0.6,0.1c0.4,0,0.7-0.1,0.9-0.3c0.2-0.2,0.4-0.5,0.4-0.9h0.8c-0.1,0.6-0.3,1.1-0.7,1.4c-0.4,0.3-0.8,0.5-1.5,0.5
			c-0.4,0-0.7-0.1-1-0.2c-0.3-0.1-0.5-0.3-0.7-0.5c-0.2-0.2-0.3-0.5-0.4-0.8c-0.1-0.3-0.1-0.6-0.1-1c0-0.4,0-0.7,0.1-1
			c0.1-0.3,0.2-0.6,0.4-0.8c0.2-0.2,0.4-0.4,0.7-0.5c0.3-0.1,0.6-0.2,1-0.2c0.3,0,0.5,0,0.8,0.1c0.2,0.1,0.4,0.2,0.6,0.3
			c0.2,0.1,0.3,0.3,0.5,0.5c0.1,0.2,0.2,0.5,0.2,0.7h-0.8C69.3,28.3,69.2,28,69,27.9z"/>
		<path class="st0" d="M74.3,31.5C74,31.8,73.5,32,73,32c-0.4,0-0.7-0.1-1-0.2c-0.3-0.1-0.5-0.3-0.7-0.5c-0.2-0.2-0.3-0.5-0.4-0.8
			c-0.1-0.3-0.2-0.6-0.2-1c0-0.4,0.1-0.7,0.2-1c0.1-0.3,0.3-0.6,0.5-0.8c0.2-0.2,0.4-0.4,0.7-0.5c0.3-0.1,0.6-0.2,0.9-0.2
			c0.4,0,0.8,0.1,1.1,0.3c0.3,0.2,0.5,0.4,0.7,0.7c0.2,0.3,0.3,0.6,0.4,0.9c0.1,0.3,0.1,0.6,0.1,0.9h-3.6c0,0.2,0,0.4,0.1,0.6
			c0.1,0.2,0.1,0.4,0.3,0.5c0.1,0.1,0.3,0.3,0.5,0.3c0.2,0.1,0.4,0.1,0.7,0.1c0.3,0,0.6-0.1,0.8-0.2c0.2-0.2,0.4-0.4,0.4-0.7H75
			C74.9,30.9,74.7,31.3,74.3,31.5z M74.1,28.5c-0.1-0.2-0.2-0.3-0.3-0.4c-0.1-0.1-0.3-0.2-0.4-0.3c-0.2-0.1-0.3-0.1-0.5-0.1
			c-0.2,0-0.4,0-0.6,0.1S72,27.9,71.9,28s-0.2,0.3-0.3,0.4c-0.1,0.2-0.1,0.3-0.1,0.5h2.8C74.3,28.8,74.2,28.6,74.1,28.5z"/>
	</g>
</g>
</svg>
