<?xml version="1.0" encoding="utf-8"?>
<!-- Generator: Adobe Illustrator 22.0.1, SVG Export Plug-In . SVG Version: 6.00 Build 0)  -->
<svg version="1.1" id="Layer_1" xmlns="http://www.w3.org/2000/svg" xmlns:xlink="http://www.w3.org/1999/xlink" x="0px" y="0px"
	 viewBox="0 0 150.2 64" style="enable-background:new 0 0 150.2 64;" xml:space="preserve">
<style>
	.st0{fill:#FFFFFF;}
</style>
<g>
	<path class="st0" d="M21,4.1c-0.1,0.3-0.3,0.4-0.2,0.6c0,0.2,0.2,0.4,0.3,0.6c0.1-0.2,0.3-0.4,0.2-0.6C21.3,4.5,21.1,4.2,21,4.1"/>
	<path class="st0" d="M24.7,4.1C24.9,4.4,25,4.5,25,4.7c0,0.2-0.2,0.4-0.3,0.6c-0.1-0.2-0.3-0.4-0.2-0.6C24.4,4.5,24.7,4.2,24.7,4.1
		"/>
	<path class="st0" d="M18.9,3.9c0.1,0,0.2-0.1,0.2-0.2c0-0.1-0.1-0.2-0.2-0.2c-0.1,0-0.2,0.1-0.2,0.2C18.7,3.8,18.8,3.9,18.9,3.9"/>
	<path class="st0" d="M19.1,4.3C19.1,4.2,19,4,18.8,4c-0.1,0-0.2,0.1-0.2,0.2c0,0.1,0.1,0.2,0.2,0.2C19,4.5,19.1,4.4,19.1,4.3"/>
	<path class="st0" d="M19.2,4.9c0-0.1-0.1-0.2-0.2-0.2c-0.1,0-0.2,0.1-0.2,0.2c0,0.1,0.1,0.2,0.2,0.2C19.1,5.1,19.2,5,19.2,4.9"/>
	<path class="st0" d="M20.3,2.8c0.1,0,0.2-0.1,0.2-0.2c0-0.1-0.1-0.2-0.2-0.2c-0.1,0-0.2,0.1-0.2,0.2C20,2.6,20.2,2.8,20.3,2.8"/>
	<path class="st0" d="M19.7,2.9c0.1,0,0.2-0.1,0.2-0.2c0-0.1-0.1-0.2-0.2-0.2c-0.1,0-0.2,0.1-0.2,0.2C19.4,2.8,19.5,2.9,19.7,2.9"/>
	<path class="st0" d="M19.2,3.4c0.1,0,0.2-0.1,0.2-0.2c0-0.1-0.1-0.2-0.2-0.2c-0.1,0-0.2,0.1-0.2,0.2C18.9,3.3,19.1,3.4,19.2,3.4"/>
	<path class="st0" d="M20.9,2.8c0.1,0,0.2-0.1,0.2-0.2c0-0.1-0.1-0.2-0.2-0.2c-0.1,0-0.2,0.1-0.2,0.2C20.7,2.7,20.8,2.8,20.9,2.8"/>
	<path class="st0" d="M21.6,3c0.1,0,0.2-0.1,0.2-0.2c0-0.1-0.1-0.2-0.2-0.2c-0.1,0-0.2,0.1-0.2,0.2C21.3,2.9,21.4,3,21.6,3"/>
	<path class="st0" d="M22.1,3.3c0.1,0,0.2-0.1,0.2-0.2c0-0.1-0.1-0.2-0.2-0.2c-0.1,0-0.2,0.1-0.2,0.2C21.9,3.2,22,3.3,22.1,3.3"/>
	<path class="st0" d="M26.6,3.7c0,0.1,0.1,0.2,0.2,0.2s0.2-0.1,0.2-0.2c0-0.1-0.1-0.2-0.2-0.2S26.6,3.6,26.6,3.7"/>
	<path class="st0" d="M26.9,4c-0.1,0-0.2,0.1-0.2,0.2c0,0.1,0.1,0.2,0.2,0.2c0.1,0,0.2-0.1,0.2-0.2C27.1,4.2,27,4,26.9,4"/>
	<path class="st0" d="M26.8,4.6c-0.1,0-0.2,0.1-0.2,0.2c0,0.1,0.1,0.2,0.2,0.2C26.9,5.1,27,5,27,4.9C27,4.8,26.9,4.6,26.8,4.6"/>
	<path class="st0" d="M25.4,2.8c0.1,0,0.2-0.1,0.2-0.2c0-0.1-0.1-0.2-0.2-0.2c-0.1,0-0.2,0.1-0.2,0.2C25.2,2.6,25.3,2.8,25.4,2.8"/>
	<path class="st0" d="M26.1,2.9c0.1,0,0.2-0.1,0.2-0.2c0-0.1-0.1-0.2-0.2-0.2c-0.1,0-0.2,0.1-0.2,0.2C25.8,2.8,25.9,2.9,26.1,2.9"/>
	<path class="st0" d="M26.5,3.4c0.1,0,0.2-0.1,0.2-0.2c0-0.1-0.1-0.2-0.2-0.2c-0.1,0-0.2,0.1-0.2,0.2C26.3,3.3,26.4,3.4,26.5,3.4"/>
	<path class="st0" d="M24.8,2.8c0.1,0,0.2-0.1,0.2-0.2c0-0.1-0.1-0.2-0.2-0.2c-0.1,0-0.2,0.1-0.2,0.2C24.5,2.7,24.7,2.8,24.8,2.8"/>
	<path class="st0" d="M24.2,3c0.1,0,0.2-0.1,0.2-0.2c0-0.1-0.1-0.2-0.2-0.2c-0.1,0-0.2,0.1-0.2,0.2C23.9,2.9,24,3,24.2,3"/>
	<path class="st0" d="M23.3,3c0,0.1,0.1,0.2,0.2,0.2c0.1,0,0.2-0.1,0.2-0.2s-0.1-0.2-0.2-0.2C23.5,2.8,23.3,2.9,23.3,3"/>
	<path class="st0" d="M22.4,4.4h0.3V3.3c-0.1,0-0.2,0-0.3-0.1V4.4z"/>
	<path class="st0" d="M23.3,3.2c-0.1,0-0.2,0.1-0.3,0.1v1.1h0.3V3.2z"/>
	<path class="st0" d="M22.7,2V1.4c-0.3,0.1-0.6,0.3-0.6,0.6H22.7z"/>
	<path class="st0" d="M23,2h0.6c-0.1-0.3-0.3-0.6-0.6-0.6V2z"/>
	<path class="st0" d="M22.1,2.3c0.1,0.4,0.4,0.6,0.8,0.6c0.4,0,0.7-0.3,0.8-0.6H22.1z"/>
	<path class="st0" d="M23.3,1.3C23.1,1.2,23,1,23,0.8c0.2,0,0.4,0.2,0.6,0.4V0.3c-0.1,0.2-0.4,0.3-0.6,0.4c0-0.2,0.2-0.4,0.3-0.6
		h-0.8c0.2,0.2,0.3,0.4,0.3,0.6c-0.2,0-0.4-0.2-0.6-0.4v0.9c0.1-0.2,0.4-0.3,0.6-0.4c0,0.2-0.2,0.4-0.3,0.6H23.3z"/>
	<path class="st0" d="M23.3,19.1c-0.2,0-0.3-0.1-0.3-0.3c0-0.2,0.1-0.3,0.3-0.3c0.2,0,0.3,0.1,0.3,0.3C23.6,19,23.5,19.1,23.3,19.1
		 M21.8,18.7c-0.2,0-0.3-0.2-0.3-0.3c0-0.2,0.1-0.3,0.3-0.3c0.2,0,0.3,0.1,0.3,0.3C22.2,18.5,22,18.7,21.8,18.7 M21.3,17.2
		L21.3,17.2C21.1,17,21,17,20.8,17.1c-0.1,0.1-0.1,0.1-0.2,0.2l-0.1,0.1l0.1,0c0.2,0.1,0.2,0.3,0.1,0.4c0,0,0,0.1-0.1,0.1
		c-0.1,0-0.2,0-0.3-0.1l-0.1,0l0,0.1c0,0,0,0,0,0c0,0,0,0,0,0.1c-0.1,0.1-0.1,0.2-0.1,0.3c0,0,0,0,0,0.1c0,0.1,0.1,0.1,0.2,0.2l0,0
		c0.1,0,0.2,0.1,0.2,0.1c-0.1,0.1-0.3,0.1-0.4,0c-0.2-0.1-0.4-0.3-0.4-0.5c0-0.2,0.1-0.4,0.2-0.7l0,0l0,0c0-0.1-0.1-0.1-0.1-0.2
		c0.1,0,0.2,0,0.2,0l0,0l0,0c0.1-0.1,0.4-0.4,0.7-0.4c0.1,0,0.3,0.1,0.4,0.2c0.1,0.1,0.1,0.2,0.1,0.3C21.4,17.3,21.4,17.2,21.3,17.2
		 M24.2,18.4c-0.8-0.2-1.7-0.5-2.6-0.9l0,0c0-0.2,0-0.4-0.2-0.5c-0.1-0.2-0.3-0.2-0.5-0.2c-0.1,0-0.2,0-0.2,0
		c-0.1-0.1-0.2-0.2-0.4-0.4C20,16,19.8,15.5,19.6,15c-0.1-0.3-0.2-0.6-0.2-0.9c0,0.3-0.3,0.6-0.8,0.6c0-0.1,0-0.2,0-0.2
		c-0.1,0.1-0.3,0.3-0.8,0.1c0.1,0.3,0.2,0.7,0.3,1c0.3,0.7,0.6,1.3,1.1,1.9c0.2,0.2,0.3,0.3,0.5,0.5c0,0,0,0.1,0,0.1
		c0,0.2,0.2,0.5,0.4,0.6c0.2,0.1,0.4,0.1,0.6-0.1c0.4,0.2,0.9,0.4,1.4,0.5c0.6,0.2,1.2,0.3,1.6,0.3c0.4,0,0.9-0.2,1.4-0.5
		c0.2-0.1,0.4-0.3,0.5-0.4c0,0,0,0,0.1-0.1C25.3,18.6,24.7,18.5,24.2,18.4"/>
	<path class="st0" d="M24,21.5c-0.1-0.1-0.1-0.2-0.2-0.2c-0.3,0-0.2,0.8-0.6,0.8c-0.2,0-0.3-0.1-0.3-0.2c0-0.1,0.1-0.2,0.1-0.2
		c0-0.1-0.1-0.1-0.2-0.1c-0.1,0-0.2,0-0.2,0.1c0,0.1,0.1,0.1,0.1,0.2c0,0.1-0.1,0.2-0.3,0.2c-0.4,0-0.3-0.8-0.6-0.8
		c-0.1,0-0.2,0.1-0.2,0.2c-0.1-0.1-0.1-0.2-0.1-0.3c0-0.2,0.1-0.4,0.4-0.4c0.4,0,0.3,0.6,0.5,0.6c0.1,0,0.2-0.1,0.2-0.1
		c0-0.2-0.3-0.3-0.3-0.6c0-0.2,0.2-0.4,0.5-0.6c0.2,0.2,0.5,0.4,0.5,0.6c0,0.2-0.3,0.4-0.3,0.6c0,0.1,0.1,0.1,0.2,0.1
		c0.2,0,0.1-0.6,0.5-0.6c0.2,0,0.4,0.2,0.4,0.4C24.1,21.3,24.1,21.4,24,21.5 M22.9,22.7c-0.1,0-0.2-0.1-0.2-0.2
		c0-0.1,0.1-0.2,0.2-0.2c0.1,0,0.2,0.1,0.2,0.2C23.1,22.6,23,22.7,22.9,22.7 M23.7,20.7c-0.1,0-0.1,0-0.2,0v-0.9
		c-0.4,0-0.9-0.1-1.4-0.2v1.1c0,0-0.1,0-0.2,0c-0.3,0-0.5,0.3-0.5,0.5c0,0.2,0.1,0.5,0.3,0.6c0.1-0.1,0.1-0.3,0.2-0.3
		c0.2,0,0.1,0.8,0.6,0.8c0,0,0,0.1,0,0.1c0,0.2,0.2,0.4,0.4,0.4s0.4-0.2,0.4-0.4c0,0,0-0.1,0-0.1c0.5,0,0.4-0.8,0.6-0.8
		c0.1,0,0.1,0.1,0.2,0.3c0.1-0.1,0.3-0.4,0.3-0.6C24.3,21,24,20.7,23.7,20.7"/>
	<path class="st0" d="M34.7,21.8c0,0-0.1-0.1-0.1-0.1c-1.1,0.3-2.5-0.6-3.8-1.5c-1.1-0.7-2.2-1.4-3-1.4c-0.3,0-0.6,0.1-0.9,0.2
		c-0.3,0.2-0.5,0.4-0.7,0.8c-0.2,0.4-0.3,0.6-0.4,0.8c-0.2,0.2-0.3,0.4-0.3,0.6c0,0.2,0.1,0.3,0.2,0.5c0.1,0.1,0.3,0.3,0.6,0.4
		c0.1,0,0.1,0.1,0.2,0.1c0.2,0.1,0.4,0.2,0.4,0.3c-0.4,0.2-1,0.3-1.6,0.5c-0.7,0.1-1.5,0.2-2.3,0.2c-0.8,0-1.6-0.1-2.3-0.2
		c-0.6-0.1-1.2-0.3-1.6-0.5c0-0.2,0.2-0.3,0.4-0.4c0.1,0,0.1-0.1,0.2-0.1c0.2-0.1,0.4-0.2,0.6-0.4c0.2-0.1,0.2-0.3,0.2-0.5
		c0-0.2-0.1-0.4-0.3-0.6c-0.1-0.2-0.3-0.5-0.4-0.8c-0.1-0.4-0.4-0.6-0.7-0.8c-0.3-0.1-0.5-0.2-0.9-0.2c-0.9,0-1.9,0.7-3,1.4
		c-1.3,0.9-2.7,1.8-3.8,1.5c-0.1,0-0.1,0-0.1,0.1c0,0,0,0.1,0.1,0.1c0.3,0.1,0.6,0.4,0.9,0.6c0.4,0.3,0.8,0.6,1.2,0.6
		c0.4,0,0.8-0.1,1.3-0.4c0.4-0.2,0.9-0.5,1.3-0.8c0.9-0.6,1.8-1.2,2.6-1.3c-0.1,0.1-0.2,0.2-0.3,0.2c-0.3,0.2-0.5,0.4-0.5,0.8
		c0,0.3,0.1,0.5,0.3,0.8c0,0.1,0.1,0.2,0.1,0.3c0.1,0.2,0.1,0.4,0.2,0.6c0,0.1,0.1,0.2,0.1,0.3c0.1,0.2,0.2,0.6,0.8,0.9
		c0.7,0.4,2,0.6,3.7,0.6c1.7,0,3-0.2,3.7-0.6c0.6-0.3,0.7-0.7,0.8-0.9c0-0.1,0.1-0.2,0.1-0.3c0.1-0.2,0.1-0.4,0.2-0.6
		c0.1-0.2,0.1-0.3,0.2-0.4c0.1-0.2,0.2-0.4,0.2-0.7c0-0.4-0.2-0.6-0.5-0.8c-0.1-0.1-0.2-0.2-0.3-0.3c0.9,0.1,1.7,0.7,2.6,1.3
		c0.4,0.3,0.9,0.6,1.3,0.8c0.5,0.3,0.9,0.4,1.3,0.4c0.4,0,0.8-0.3,1.2-0.6c0.3-0.2,0.6-0.4,0.9-0.6C34.7,21.9,34.7,21.9,34.7,21.8"
		/>
	<path class="st0" d="M23,13.3V9.2c0.4,0,0.8,0.1,1.2,0.3c0.4,0.2,0.8,0.5,1.1,0.9c0.3,0.4,0.6,0.8,0.8,1.3c0.2,0.5,0.3,1,0.3,1.6
		H23z M22.9,7.5c-1.2,0-2,0.3-2.4,0.7c-0.3-0.2-0.4-0.3-0.4-0.5c0-0.7,1.9-0.7,2.8-0.7h0c0.9,0,2.8,0.1,2.8,0.7
		c0,0.2-0.1,0.3-0.4,0.5C24.8,7.8,24,7.5,22.9,7.5 M22.8,13.3h-3.5c0-0.5,0.1-1.1,0.3-1.6c0.2-0.5,0.4-0.9,0.8-1.3
		c0.3-0.4,0.7-0.7,1.1-0.9c0.4-0.2,0.9-0.3,1.3-0.3V13.3z M28.1,13c-0.1-0.1-0.3-0.3-0.4-0.5c-0.1-0.3-0.7-1.3-0.8-1.5
		c-0.1-0.1-0.1-0.2-0.1-0.3c0-0.1,0.1-0.2,0.1-0.3c0-0.1,0.2-0.2,0.2-0.2c0-0.1,0.1-0.1,0.1-0.1c-0.2-0.3-0.4-0.6-0.7-0.9
		c-0.3-0.4-0.7-0.7-1.1-0.9C25.7,8.1,26,8,26,7.6c0-0.2-0.1-0.3-0.2-0.5c0.2-0.7,0.6-1.5,0.9-1.9L26,4.9c0.2,0.3,0.2,0.6,0.2,0.8
		c-0.2-0.1-0.3-0.3-0.4-0.5c0,0.2-0.2,0.6-0.3,0.8c0.2-0.1,0.4-0.1,0.6-0.1c-0.1,0.2-0.4,0.4-0.9,0.3c-0.2-0.1-0.5-0.2-0.5-0.4
		c0-0.1,0.1-0.3,0.2-0.2c0.2,0,0.2,0.2,0.1,0.4c0.2-0.1,0.4-0.7,0.1-0.8c-0.2-0.1-0.5,0.3-0.6,0.5c0-0.3-0.2-0.6-0.4-0.6
		c-0.3,0-0.2,0.6-0.1,0.8c0-0.2,0.1-0.3,0.2-0.3c0.1,0,0.2,0.1,0.2,0.3c0,0.2-0.3,0.3-0.6,0.3C23.6,6.1,23,6,23,5.4
		c0.2,0,0.5,0.2,0.6,0.4c0-0.3,0-0.6,0-1c-0.2,0.2-0.4,0.3-0.6,0.4c0.1-0.2,0.3-0.5,0.5-0.7h-1.3c0.2,0.2,0.5,0.4,0.5,0.7
		c-0.2,0-0.5-0.1-0.6-0.4c0,0.4,0,0.6,0,1c0.1-0.2,0.4-0.3,0.6-0.4c0,0.6-0.6,0.7-0.9,0.7c-0.3,0-0.6-0.1-0.6-0.3
		c0-0.2,0.1-0.3,0.2-0.3c0.1,0,0.2,0.1,0.2,0.3c0.1-0.2,0.2-0.7-0.1-0.8c-0.3,0-0.4,0.3-0.4,0.6c-0.1-0.3-0.3-0.6-0.6-0.5
		c-0.3,0.1-0.1,0.7,0.1,0.8c0-0.1,0-0.3,0.1-0.4c0.2,0,0.2,0.1,0.2,0.2c0,0.2-0.2,0.3-0.5,0.4c-0.5,0.1-0.8-0.1-0.9-0.3
		c0.2-0.1,0.4,0,0.6,0.1C20.2,5.8,20,5.4,20,5.2c-0.1,0.2-0.2,0.4-0.4,0.5c0-0.2,0-0.5,0.2-0.8l-0.7,0.3c0.3,0.4,0.7,1.2,0.9,1.9
		c-0.1,0.1-0.2,0.3-0.2,0.5c0,0.3,0.2,0.5,0.4,0.7c-0.4,0.3-0.7,0.6-1.1,0.9c-0.5,0.5-0.9,1.2-1.1,1.9c0.1,0.1,0.5,0.6,0.6,0.7
		c0.2,0.2,0.3,0.4,0.3,0.6c0,0.3,0.1,0.4,0.2,0.7c0.1,0.1,0.1,0.3,0.1,0.5h3.5v3.8c-0.1,0-0.3,0-0.4,0.2c0.4,0.2,0.8,0.3,1.2,0.4
		c0-0.2,0.1-0.4,0.2-0.6c0,0-0.5-0.1-0.8-0.1v-3.8h3.4c0,0.5-0.1,1-0.3,1.5c-0.2,0.5-0.4,1-0.8,1.3c-0.3,0.4-0.7,0.7-1.1,0.9
		c-0.1,0-0.1,0.1-0.1,0.1c-0.1,0.1-0.1,0.2-0.2,0.3c0,0.1-0.1,0.2-0.1,0.3c0.2,0,0.2,0.1,0.4,0.1c1.2,0.3,1.5,0.2,1.6,0.2l0,0
		c0.3-0.2,0.5-0.4,0.8-0.7c0.5-0.5,0.9-1.2,1.1-1.9c0.3-0.7,0.4-1.5,0.4-2.3C28.1,13.2,28.1,13.2,28.1,13"/>
	<path class="st0" d="M24.9,10.9C24.9,10.9,24.9,10.9,24.9,10.9c0,0.1,0,0.2,0.1,0.2c0,0-0.1,0.1-0.1,0.1c0.1,0,0.1,0,0.2,0
		c0,0.1,0,0.1,0,0.1c0,0,0.1,0,0.1,0c0.3,0.4,0.4,0.9,0.5,1.4c0,0-0.1,0-0.1,0c0,0.1,0,0.1,0.1,0.2h-0.9c0-0.1,0-0.1-0.1-0.1
		c0,0-0.1,0-0.1,0c0,0,0-0.1-0.1-0.1c0,0-0.1,0.1-0.1,0.1c0,0-0.1-0.1-0.1,0c0,0-0.1,0.1-0.1,0.1h-0.7c0,0,0-0.1,0.1-0.1
		c-0.1,0-0.1,0-0.1,0.1v-1.2c0.1,0,0.1,0,0.1-0.1c0,0,0-0.1,0-0.1c0.1,0,0.1,0,0.2-0.1c0,0-0.1-0.1-0.2-0.1c0,0,0.1-0.1,0-0.1
		c0,0-0.1-0.1-0.1-0.1v-1c0,0,0.1,0,0.1,0.1c0-0.1,0-0.1,0-0.1c0.2,0.1,0.4,0.2,0.7,0.3C24.5,10.4,24.7,10.6,24.9,10.9 M25.9,12.6
		c0.1,0,0,0.1,0,0.1c-0.1-0.6-0.3-1.2-0.7-1.7c0,0,0,0,0,0c0.1,0,0.1-0.1,0.1-0.2c-0.1,0-0.2,0-0.2,0.1c0,0-0.1-0.1-0.1-0.1
		c-0.2-0.3-0.5-0.5-0.7-0.7c-0.3-0.2-0.5-0.3-0.8-0.4c0-0.1,0.1-0.1,0.1,0c0-0.1-0.1-0.2-0.1-0.1c0,0-0.1,0-0.1,0.1
		c0,0-0.1-0.1-0.2-0.1c0,0.1,0,0.1,0,0.2c0,0-0.1,0-0.1,0c0,0.1,0,0.2,0.1,0.2c-0.1,0,0-0.1,0-0.1v1.3c-0.1,0-0.2,0-0.2,0.1
		c0.1,0.1,0.2,0.1,0.2,0.1v1.5c-0.1,0-0.1-0.1,0-0.1c-0.1,0-0.2,0.1-0.1,0.1c0,0,0,0.1,0.1,0.1c0,0-0.1,0.1-0.1,0.2
		c0.1,0,0.1,0,0.2-0.1c0,0.1,0,0.1,0.1,0.1c0.1,0,0.1,0,0.1-0.1c0,0.1-0.1,0-0.1,0h1c0,0.1,0,0.1,0.1,0.2c0.1-0.1,0.1-0.2,0.1-0.2
		h1.1c0,0.1-0.1,0.1-0.1,0c0,0.1,0.1,0.2,0.2,0.1c0,0,0.1-0.1,0.1-0.1c0,0,0.1,0.1,0.2,0.1c0-0.1,0-0.1-0.1-0.2c0.1,0,0.1,0,0.1-0.1
		C26.1,12.7,26,12.6,25.9,12.6"/>
	<path class="st0" d="M25.3,12.3C25.3,12.2,25.4,12.2,25.3,12.3C25.3,12.2,25.3,12.2,25.3,12.3c0-0.1,0.1-0.1,0-0.2
		c0-0.1-0.1-0.1-0.1,0c0,0-0.3,0-0.3-0.2c0,0,0.1,0.1,0.1,0.1c0,0,0,0,0,0c0,0,0,0,0,0c0,0,0.1,0,0.1,0l0,0v0c0.1,0,0.1,0,0.1-0.1
		c0-0.1-0.1-0.2-0.2-0.3c0,0-0.1-0.1-0.1-0.1c0-0.1,0-0.2-0.1-0.3c0,0,0-0.1,0-0.1c-0.1,0.1-0.1,0.3,0.1,0.4
		c0.1,0.1,0.4,0.2,0.3,0.4c0,0,0,0-0.1,0.1c0,0,0,0,0,0c0,0,0,0,0,0c0,0,0,0-0.1,0c0,0-0.1,0-0.1-0.1c-0.1-0.1-0.2-0.2-0.2-0.3
		c-0.1-0.1-0.1-0.3,0-0.4c0.1-0.1,0-0.3-0.1-0.4c0,0,0-0.1,0-0.1c0,0-0.1,0-0.1,0c0,0,0,0-0.1-0.1c0,0,0,0-0.1-0.1c0,0,0,0-0.1,0.1
		c0,0-0.1,0-0.1,0c0,0,0,0-0.1,0c0,0,0,0,0,0.1c0,0,0,0.1,0,0.1c0,0,0,0,0,0l0,0l0,0c0,0,0.1,0,0.1,0c0,0,0,0,0,0c0,0-0.1,0-0.1,0
		c0,0,0,0,0,0.1c0,0,0,0,0.1,0c0.1,0,0.2,0,0.2,0c0,0.1-0.1,0.1-0.2,0.3c0,0-0.1,0-0.1-0.1c0,0-0.1-0.1-0.1-0.1c0,0-0.1-0.1-0.1-0.1
		c0,0,0-0.1,0-0.1c0,0,0-0.1,0-0.1c0,0,0,0,0,0c0,0,0,0-0.1,0c0,0,0,0,0,0c0,0,0,0,0,0c0,0,0,0,0,0c0,0,0,0,0,0c0,0,0,0,0,0
		c0,0,0,0,0,0c0,0,0-0.1-0.1-0.1c0,0,0,0,0,0c0,0,0,0,0,0c0,0,0-0.1-0.1,0c0,0,0,0,0,0c0,0,0,0,0,0c0,0,0,0,0.1,0c0,0,0,0,0,0
		c0,0,0,0,0,0c0,0,0,0,0,0c-0.1,0-0.1,0-0.1,0c0,0,0,0,0,0c0,0,0,0,0,0.1c0,0,0,0,0,0c0,0,0,0,0,0c0,0,0,0,0,0c0,0,0,0,0,0
		c0,0,0,0,0,0c0,0,0,0,0,0c0,0,0,0,0,0c0,0,0,0.1,0,0.1c0,0-0.1,0-0.1,0c0,0.1,0,0.1,0.1,0.1c0,0,0,0.1,0,0.1c0,0,0,0,0,0
		c0,0,0,0,0,0c0,0,0,0,0,0c0,0,0,0,0,0c0,0,0,0,0,0.1c0,0.1,0.1,0.2,0.2,0.3c-0.1,0-0.1,0.1-0.2,0.2c0,0-0.1,0.1-0.1,0.1
		c0,0,0,0,0,0c0,0,0,0,0,0c0,0,0,0,0,0c0,0-0.1,0-0.1,0c0,0,0,0,0.1,0c0,0,0,0,0,0c0,0,0,0,0.1,0c0,0,0,0,0,0c0,0,0,0,0,0
		c0,0,0,0-0.1,0c0,0,0,0,0,0c0,0,0,0,0,0c0,0-0.1,0.1,0,0.1c0,0,0,0,0,0c0,0,0,0,0,0c0,0,0,0.1,0.1,0c0,0,0,0,0,0c0,0,0,0.1,0,0.1
		c0,0,0,0,0,0c0,0,0,0,0,0c0,0,0.1,0.1,0.1,0c0,0,0,0,0-0.1c0,0,0,0,0,0c0,0,0-0.1,0-0.1c0,0,0,0,0,0c0,0,0,0,0.1,0c0,0,0,0,0,0
		c0.1,0,0.1,0,0.1,0c0,0,0-0.1,0.1-0.1c0.1,0,0.1,0,0.1,0c0,0,0-0.1,0.1-0.1c0,0.2,0.3,0.2,0.3,0.3c-0.1,0-0.2-0.1-0.2,0
		c-0.1,0-0.2,0.1-0.2,0.2c0,0.1,0.1,0.2,0.1,0.2c-0.1,0-0.1,0-0.2,0l0,0c-0.1,0-0.1-0.1-0.2-0.1c0,0,0,0,0,0c0,0-0.1,0-0.1,0.1
		c0,0,0,0,0,0c0,0,0,0,0,0c0,0,0,0,0,0c0,0,0,0,0,0c0,0,0,0,0,0c0,0-0.1,0-0.1,0.1c0,0,0,0,0,0c0,0,0,0,0.1,0c0,0,0,0,0,0
		c0,0,0,0,0,0s0,0,0,0c0,0,0,0,0,0c0,0,0,0,0,0c0,0,0,0,0,0c0,0,0,0,0,0c0,0,0,0.1,0.1,0c0,0,0,0,0,0c0,0,0,0,0,0c0,0,0,0,0,0
		c0,0,0,0,0,0c0,0,0,0,0,0c0,0,0,0,0,0c0,0,0,0,0.1,0c0,0,0,0,0,0c0,0,0,0,0,0c0,0,0-0.1,0.1,0l0,0c0,0,0.1,0,0.1,0c0,0,0,0,0-0.1
		c0-0.1,0-0.1-0.1-0.1c0-0.1,0.1-0.2,0.2-0.1c0,0.1,0.1,0.2,0.3,0.3c0.1,0,0.1-0.1,0.2-0.1c0,0,0,0,0,0c0,0,0,0.1,0,0.1
		c0,0-0.1,0-0.1,0c0,0,0,0,0,0c0,0-0.1,0-0.1,0.1c0,0,0,0,0.1,0c0,0,0,0,0,0c0,0,0.1,0.1,0.1,0c0,0,0,0,0,0c0,0-0.1,0.1,0,0.1
		c0,0,0,0,0,0c0,0,0,0.1,0,0.1c0,0,0,0,0-0.1c0,0,0,0,0,0c0,0,0-0.1,0-0.1c0,0,0,0,0,0c0,0,0,0.1,0,0.1c0,0,0,0,0,0c0,0,0,0,0.1,0
		c0,0,0,0,0,0c0,0,0,0,0,0c0-0.1,0-0.1,0-0.1C25.2,12.4,25.3,12.4,25.3,12.3C25.3,12.3,25.3,12.3,25.3,12.3
		C25.3,12.3,25.4,12.3,25.3,12.3C25.3,12.3,25.3,12.3,25.3,12.3L25.3,12.3z"/>
	<path class="st0" d="M22.1,14.2L22.1,14.2c-0.1,0-0.2,0-0.2,0.1c0,0.1,0,0.1,0.1,0.1l0,0c0,0,0,0,0,0c0,0.1,0,0.3-0.1,0.5l-0.5-0.7
		c0.2-0.1,0.4-0.2,0.5-0.2C22.1,14,22.1,14,22.1,14.2 M21.9,15.5l-0.8-1.2c0.1,0,0.2,0,0.3-0.1l0.6,0.9C22,15.2,21.9,15.3,21.9,15.5
		 M21.8,16l-1.2-1.7c0,0,0.1,0,0.1,0c0.1,0,0.1,0,0.2,0l0.9,1.3C21.9,15.8,21.8,15.9,21.8,16 M20.5,14.3l1.3,1.8
		C21.1,15.9,20.4,15.3,20.5,14.3 M22.4,14.2L22.4,14.2L22.4,14.2c0-0.3-0.2-0.4-0.4-0.4c-0.2,0-0.6,0.3-1.1,0.3
		c-0.2,0-0.5-0.1-0.7-0.2L20.2,14c0,0,0,0,0,0c0-0.1-0.1-0.1-0.1-0.1c-0.1,0-0.1,0.1-0.1,0.1c0,0.1,0.1,0.1,0.1,0.1
		c0,0,0.1,0,0.1-0.1l-0.1,0.2c0,0,0,0,0.1,0c-0.1,0.8,0.5,1.8,1.6,2.1c0.2,0,0.3,0,0.3,0.2c0,0.1-0.1,0.1-0.1,0.1
		c-0.1,0-0.1,0-0.1-0.1c0-0.1,0.1,0,0.1-0.1c0-0.1,0-0.1-0.1-0.1c-0.1,0-0.2,0-0.2,0.2c0,0.1,0.1,0.2,0.2,0.2c0.1,0,0.4-0.1,0.3-0.4
		c0.1,0,0.1,0,0.1-0.1l0-0.2l-0.1,0l0-1.8l0,0c0.1,0,0.1,0,0.1-0.1C22.5,14.2,22.5,14.2,22.4,14.2"/>
	<path class="st0" d="M21.5,10.3C21.5,10.3,21.5,10.3,21.5,10.3C21.5,10.3,21.5,10.3,21.5,10.3C21.5,10.2,21.5,10.2,21.5,10.3
		C21.5,10.2,21.5,10.2,21.5,10.3C21.5,10.2,21.5,10.2,21.5,10.3c0-0.1,0-0.1,0-0.1c0,0,0,0,0,0l0.1,0c0,0,0,0,0,0c0,0,0,0,0,0
		c0,0,0,0,0,0C21.6,10.2,21.6,10.2,21.5,10.3C21.6,10.2,21.5,10.2,21.5,10.3C21.5,10.3,21.5,10.3,21.5,10.3
		C21.6,10.3,21.5,10.3,21.5,10.3C21.5,10.3,21.5,10.4,21.5,10.3C21.5,10.3,21.5,10.3,21.5,10.3 M21.6,10.1
		C21.5,10.1,21.5,10.2,21.6,10.1C21.5,10.1,21.5,10.1,21.6,10.1C21.5,10.1,21.5,10.1,21.6,10.1 M21.6,10.1
		C21.6,10.2,21.7,10.2,21.6,10.1C21.7,10.2,21.7,10.2,21.6,10.1C21.6,10.2,21.6,10.2,21.6,10.1 M21.4,10.2
		C21.4,10.2,21.4,10.2,21.4,10.2C21.4,10.2,21.4,10.2,21.4,10.2 M22.2,10.5c0.2,0,0.4-0.1,0.4-0.2c0-0.3-0.7-0.1-0.7-0.3
		c0,0,0-0.1,0.1-0.1h0c0.3,0,0.4-0.3,0.6-0.3c-0.3,0-0.3,0.2-0.5,0.2c0.1,0,0.1-0.1,0.1-0.1c-0.1,0.1-0.2,0.1-0.3,0.2c0,0,0,0,0,0
		c0,0-0.1,0.1-0.1,0.1c0,0.3,0.7,0.1,0.7,0.3C22.5,10.4,22.4,10.4,22.2,10.5c-0.1-0.1-0.2-0.2-0.5-0.1c0,0,0.1-0.1,0.1-0.2
		c0,0,0,0,0-0.1c0,0,0,0,0,0c0,0,0,0,0,0c0,0,0,0,0,0c0,0,0,0-0.1,0c0,0,0,0-0.1,0c0,0,0,0,0,0c0,0,0,0,0,0c0,0,0,0,0,0
		c0,0,0,0,0,0.1c0,0,0,0.1-0.1,0.1c0,0,0,0,0,0c0,0,0,0.1-0.1,0.1c0,0,0,0,0,0c0,0.1,0,0.1,0,0.2c0,0,0,0-0.1,0c0,0,0,0,0-0.1
		c0,0,0-0.1,0-0.1c0,0,0,0,0,0c0,0,0,0-0.1,0c0,0,0,0,0,0c0,0,0,0,0,0c0,0,0,0,0,0c0,0,0,0,0,0c0,0,0,0,0,0c0,0,0,0,0,0
		c0,0,0-0.1,0-0.1h0c0,0,0,0,0,0c0,0,0,0-0.1,0c0,0,0,0,0,0c0,0,0,0,0,0c0,0,0,0,0,0c0,0,0,0,0,0c0,0,0,0,0,0c0,0,0,0,0,0
		c0,0-0.1,0-0.1,0c0,0,0,0,0,0c0,0,0,0,0,0.1c0,0,0,0,0,0c0,0,0,0,0,0c0,0,0,0,0,0c0,0,0,0,0,0c0,0,0,0,0,0c0,0,0,0,0,0c0,0,0,0,0,0
		c0,0,0,0.1,0,0.1c0,0,0,0,0,0c0,0.1-0.1,0-0.1,0c-0.1,0.1,0,0.1,0.1,0.1c0,0,0,0,0,0c0,0,0,0,0,0c0,0,0,0,0,0c0,0,0,0,0,0
		c0,0,0,0,0,0c0,0,0,0,0,0c0,0,0,0,0.1,0.1c-0.1,0-0.1,0-0.1,0c0,0-0.1,0-0.1,0c0,0-0.1,0.1-0.2,0c0,0,0,0,0,0c0,0,0,0,0,0
		c0,0,0,0,0,0c0,0-0.1,0-0.1,0c0,0,0,0,0,0c0,0,0,0,0,0c0,0,0,0,0.1,0.1c0,0,0,0,0,0c0,0,0,0,0,0c0,0,0,0-0.1,0c0,0,0,0,0,0l0,0
		c0,0-0.1,0-0.1,0.1c0,0,0,0,0,0c0,0,0,0,0,0c0,0,0,0.1,0.1,0c0,0,0,0,0,0c0,0-0.1,0.1,0,0.1c0,0,0,0,0,0c0,0,0,0,0,0
		c0,0,0,0.1,0.1,0.1c0,0,0,0,0-0.1c0,0,0,0,0,0c0,0,0,0,0-0.1c0,0,0,0,0,0c0,0,0,0.1,0,0c0,0,0.1,0,0.1-0.1c0,0,0,0,0,0c0,0,0,0,0,0
		c0,0,0,0,0,0c0,0,0,0,0,0.1c0,0,0,0,0.1-0.1c0,0,0,0,0,0c0,0,0,0,0,0c0,0,0,0,0.1,0c0,0,0,0,0,0c0,0,0,0,0,0c0,0,0,0,0,0
		c0,0,0,0,0,0.1c0-0.1,0.1-0.1,0.1-0.1c0,0,0,0,0,0c0,0,0,0,0,0c0,0,0.1,0,0.1-0.1c0,0,0,0,0,0c0,0,0.1,0,0.1,0c0,0,0,0,0,0
		c0.1,0,0.1-0.1,0.1-0.1c0.1,0-0.1-0.1,0.2-0.1c0,0,0.1,0,0.1,0c0,0,0,0.1,0,0.1c0,0,0.1,0,0.1,0c0,0,0,0,0,0c0,0,0,0-0.1,0
		c-0.1,0-0.1-0.1-0.1-0.1c0,0,0,0,0,0c0,0-0.1,0-0.1,0.1c0,0,0,0,0,0c0,0,0,0,0,0c0,0,0,0,0,0c0,0,0,0,0,0c0,0,0,0,0,0
		c0,0-0.1,0-0.1,0.1c0,0,0,0,0,0c0,0,0,0,0,0c0,0,0,0,0,0c0,0,0,0,0,0c0,0,0,0,0,0c0,0,0,0,0,0c0,0,0,0,0,0c0,0,0,0,0,0c0,0,0,0,0,0
		c0,0,0,0.1,0.1,0c0,0,0,0,0,0c0,0,0,0,0,0c0,0,0,0,0,0c0,0,0,0,0,0c0,0,0,0,0,0c0,0,0,0,0,0c0,0,0,0,0.1,0c0,0,0-0.1,0-0.1
		c0,0,0,0,0,0c0,0,0.1,0,0.1,0c0,0,0-0.1,0-0.1c0,0,0,0,0-0.1c0,0,0.1,0,0.1,0c0.1,0,0,0,0,0c0,0,0.1,0,0.1,0c0,0,0,0,0,0
		c0,0.1,0,0.1,0,0.1c0,0,0,0-0.1,0c0,0,0,0,0,0c0,0-0.1,0-0.1,0.1c0,0,0,0,0,0c0,0,0,0,0,0c0,0,0,0,0.1,0c0,0,0,0,0,0
		c0,0-0.1,0,0,0.1c0,0,0,0,0,0c0,0,0,0,0,0c0,0,0,0,0,0h0c0,0,0,0,0-0.1c0,0,0,0,0,0c0,0,0,0.1,0,0.1c0,0,0,0,0,0c0,0,0,0,0.1,0
		c0,0,0,0,0,0c0,0,0,0,0,0c0-0.1,0-0.1,0-0.1c0,0,0.1,0,0.1-0.1c0,0,0,0,0,0l0,0h0c0,0,0,0,0,0c0,0,0,0,0,0c0,0,0,0,0,0
		c0,0,0,0,0-0.1c0,0-0.1,0-0.1,0c0,0,0,0,0,0C22.3,10.5,22.3,10.5,22.2,10.5C22.2,10.5,22.2,10.5,22.2,10.5"/>
	<path class="st0" d="M21.1,11.8C21.1,11.8,21.1,11.8,21.1,11.8C21.1,11.8,21.1,11.8,21.1,11.8 M20.9,11.4
		C20.9,11.3,20.9,11.3,20.9,11.4C20.9,11.3,20.9,11.3,20.9,11.4C20.9,11.3,20.9,11.3,20.9,11.4c0-0.1,0.1-0.1,0-0.1c0,0,0,0,0,0
		c0,0,0,0,0,0c0,0,0,0,0,0l0.1,0c0,0,0,0,0,0c0,0,0,0,0,0c0,0,0,0,0,0c0,0,0,0,0,0C21,11.3,20.9,11.3,20.9,11.4
		C20.9,11.3,20.9,11.3,20.9,11.4C20.9,11.4,20.9,11.4,20.9,11.4C20.9,11.4,20.9,11.4,20.9,11.4C20.9,11.4,20.9,11.4,20.9,11.4
		 M21,11.2C20.9,11.2,20.9,11.2,21,11.2C20.9,11.2,20.9,11.2,21,11.2C20.9,11.1,20.9,11.2,21,11.2 M21,11.2
		C21,11.2,21.1,11.2,21,11.2C21.1,11.2,21.1,11.3,21,11.2C21,11.3,21,11.2,21,11.2 M20.6,11.5C20.6,11.5,20.6,11.5,20.6,11.5
		C20.6,11.5,20.6,11.5,20.6,11.5 M22.5,11.4c0-0.1-0.1-0.1-0.3-0.1c-0.2,0-0.8,0.1-0.8,0c0-0.1,0.1-0.1,0.2-0.1c0,0,0,0,0.1,0
		c0.3,0.1,0.7-0.1,0.9,0c-0.2-0.2-0.4,0-0.7,0c0.1,0,0.2,0,0.2-0.1c-0.1,0.1-0.3,0-0.4,0c0,0,0,0,0,0c-0.2,0-0.3,0-0.3,0.1
		c0,0.2,0.7,0.1,0.9,0.1C22.4,11.3,22.5,11.4,22.5,11.4c-0.1,0-0.3,0.1-0.4,0.1c-0.2,0-0.7-0.1-1,0c0-0.1,0.1-0.1,0.1-0.2
		c0,0,0,0,0.1-0.1c0,0,0,0-0.1,0c0,0,0,0,0,0c0,0,0,0,0,0c0,0,0,0-0.1,0c0,0-0.1,0-0.1,0c0,0,0,0,0,0c0,0,0,0,0,0c0,0,0,0-0.1,0
		c0,0,0,0,0,0.1c0,0-0.1,0.1-0.1,0.1c0,0,0,0,0,0c0,0,0,0.1-0.1,0.1c0,0,0,0,0,0c0,0,0,0.1,0,0.1l-0.1,0c0,0,0,0,0,0c0,0,0,0,0,0
		c0,0,0,0,0,0l0,0c0,0-0.1-0.1-0.1-0.1c0,0,0-0.1,0-0.1c0,0,0-0.1,0-0.1c0,0,0,0,0,0c0,0,0,0-0.1,0c0,0,0,0,0,0c0,0,0,0,0,0
		c0,0,0,0,0,0c0,0,0,0,0,0c0,0,0,0,0,0c0,0,0,0,0,0c0,0,0-0.1,0-0.1c0,0,0,0,0,0c0,0,0,0,0,0c0,0,0-0.1-0.1,0c0,0,0,0,0,0
		c0,0,0,0,0,0c0,0,0,0,0.1,0c0,0,0,0,0,0c0,0,0,0,0,0c0,0,0,0,0,0c-0.1,0-0.1,0-0.1,0c0,0,0,0,0,0c0,0,0,0,0,0.1c0,0,0,0,0,0
		c0,0,0,0,0,0c0,0,0,0,0,0c0,0,0,0,0,0c0,0,0,0,0,0c0,0,0,0,0,0c0,0,0,0,0,0c0,0,0,0.1,0,0.1c0,0,0,0,0,0c0,0.1-0.1,0.1-0.1,0
		c-0.1,0.1,0,0.1,0.1,0.1c0,0,0,0,0,0c0,0,0,0,0,0c0,0,0,0,0,0c0,0,0,0,0,0c0,0,0,0,0,0c0,0,0,0,0,0c0,0,0,0.1,0.1,0.1
		c0,0,0.1,0.1,0.1,0c0,0,0,0.1,0,0.1c0,0-0.1,0-0.2,0c0,0-0.2,0.1-0.2,0c0,0,0,0,0-0.1c0,0,0,0,0,0c0,0,0,0,0,0c0,0-0.1,0-0.1,0
		c0,0,0,0,0,0c0,0,0,0,0,0c0,0,0,0,0.1,0.1c0,0,0,0,0,0c0,0,0,0,0,0c0,0,0-0.1-0.1,0c0,0,0,0,0,0c0,0,0,0,0,0c0,0-0.1,0-0.1,0.1
		c0,0,0,0,0,0c0,0,0,0,0,0c0,0,0,0.1,0.1,0c0,0,0,0,0,0c0,0-0.1,0.1,0,0.1c0,0,0,0,0,0c0,0,0,0,0,0c0,0,0,0.1,0.1,0.1c0,0,0,0,0-0.1
		c0,0,0,0,0,0c0,0,0-0.1,0-0.1c0,0,0,0,0,0c0,0,0,0.1,0.1,0.1c0,0,0.1,0,0.1-0.1c0,0,0,0,0,0c0,0,0,0,0,0c0,0,0,0,0,0c0,0,0,0,0,0.1
		c0,0,0.1,0,0.1-0.1c0,0,0,0,0,0c0,0,0,0,0,0c0,0,0,0,0.1,0c0,0,0,0,0,0c0,0,0,0,0,0c0,0,0,0,0,0c0,0,0,0,0,0.1
		c0-0.1,0.1-0.1,0.1-0.1c0,0,0,0,0,0c0,0,0,0,0,0c0.1,0,0.2-0.1,0.2-0.1c0,0,0.1,0,0.1,0c0.2,0,0.1-0.2,0.4-0.1c0,0,0.1,0,0.1,0
		c0,0,0,0.1,0,0.1c0,0,0.1,0,0.1,0c0,0,0,0,0,0c0,0-0.1,0-0.1,0c-0.1,0-0.1-0.1-0.2-0.1c0,0,0,0,0,0c0,0-0.1,0-0.1,0.1c0,0,0,0,0,0
		c0,0,0,0,0,0c0,0,0,0,0,0c0,0,0,0,0,0c0,0,0,0,0,0c0,0-0.1,0-0.1,0.1c0,0,0,0,0,0c0,0,0,0,0.1,0c0,0,0,0,0,0c0,0,0,0,0,0s0,0,0,0
		c0,0,0,0,0,0s0,0,0,0c0,0,0,0,0,0c0,0,0,0,0,0c0,0,0,0.1,0.1,0c0,0,0,0,0,0c0,0,0,0,0,0c0,0,0,0,0,0c0,0,0,0,0,0s0,0,0,0
		c0,0,0,0,0,0c0,0,0,0,0.1,0c0.1,0,0-0.1,0-0.1c0,0,0,0,0,0c0,0,0.1,0,0.1,0c0,0,0-0.1,0-0.1c0,0,0,0,0-0.1c0,0,0.1,0,0.2,0
		c0.1,0,0.1,0,0.2,0c0.1,0,0.1,0,0.1,0c0,0,0,0,0,0c0,0.1,0,0.1,0,0.1c0,0-0.1,0-0.1,0c0,0,0,0,0,0c0,0-0.1,0-0.1,0.1c0,0,0,0,0,0
		c0,0,0,0,0,0c0,0,0,0.1,0.1,0c0,0,0,0,0,0c0,0-0.1,0.1,0,0.1c0,0,0,0,0,0c0,0,0,0,0,0.1c0,0,0,0,0,0c0,0,0,0,0,0c0,0,0,0,0-0.1
		c0,0,0,0,0,0c0,0,0,0.1,0,0.1c0,0,0,0,0,0c0,0,0,0,0.1,0c0,0,0,0,0,0c0,0,0,0,0,0c0-0.1,0-0.1,0-0.1c0,0,0.1,0,0.1-0.1c0,0,0,0,0,0
		c0,0,0,0,0,0h0c0,0,0,0,0,0c0,0,0,0,0-0.1c0,0,0,0,0,0c0,0,0,0,0-0.1c0,0-0.1,0-0.1,0c0,0,0,0,0,0c-0.1,0-0.1,0-0.3,0
		C22.3,11.5,22.5,11.5,22.5,11.4"/>
	<path class="st0" d="M20.6,12.4C20.6,12.4,20.6,12.4,20.6,12.4C20.6,12.4,20.6,12.4,20.6,12.4C20.6,12.4,20.6,12.4,20.6,12.4
		c0-0.1,0.1-0.1,0-0.1c0,0,0,0,0,0c0,0,0,0,0,0c0,0,0,0,0,0l0.1,0c0,0,0,0,0,0c0,0,0,0,0,0c0,0,0,0,0,0c0,0,0,0,0,0
		C20.7,12.4,20.7,12.4,20.6,12.4C20.6,12.4,20.6,12.4,20.6,12.4C20.7,12.4,20.7,12.5,20.6,12.4C20.6,12.5,20.6,12.5,20.6,12.4
		C20.6,12.5,20.6,12.5,20.6,12.4 M20.7,12.3C20.7,12.3,20.6,12.3,20.7,12.3C20.6,12.3,20.6,12.2,20.7,12.3
		C20.6,12.2,20.7,12.3,20.7,12.3 M20.7,12.3C20.7,12.3,20.8,12.3,20.7,12.3C20.8,12.3,20.8,12.3,20.7,12.3
		C20.7,12.3,20.7,12.3,20.7,12.3 M22.4,12.5c0-0.1-0.1-0.1-0.3-0.1c-0.2,0-0.9,0.1-0.9,0c0-0.1,0.2,0,0.4,0c0,0,0,0,0,0
		c0.3,0.1,0.6-0.1,0.8,0c-0.2-0.2-0.4,0-0.6,0c0.1,0,0.3,0,0.3-0.1c-0.1,0.1-0.4,0-0.5,0c0,0,0,0,0,0c-0.2,0-0.5,0-0.5,0.1
		c0,0.2,0.8,0.1,1,0.1C22.3,12.4,22.4,12.4,22.4,12.5c-0.1,0-0.3,0.1-0.4,0.1c-0.2,0-0.9-0.1-1.2,0c0-0.1,0.1-0.1,0.1-0.2
		c0,0,0,0,0-0.1c0,0,0,0-0.1,0c0,0,0,0,0,0c0,0,0,0,0,0c0,0,0,0-0.1,0c0,0-0.1,0-0.1,0c0,0,0,0,0,0c0,0,0,0,0,0c0,0,0,0-0.1,0
		c0,0,0,0,0,0.1c0,0-0.1,0.1-0.1,0.1c0,0,0,0,0,0c0,0,0,0.1-0.1,0.1c0,0,0,0,0,0c0,0,0,0,0,0.1l0,0c0,0,0,0,0,0c0,0,0,0,0,0
		c0,0-0.1-0.1-0.1-0.1c0,0-0.1,0-0.1-0.1c0,0,0-0.1,0-0.1c0,0,0,0,0,0c0,0,0,0-0.1,0c0,0,0,0,0,0c0,0,0,0,0,0c0,0,0,0,0,0
		c0,0,0,0,0,0c0,0,0,0,0,0c0,0,0,0,0,0c0,0,0-0.1,0-0.1l0,0c0,0,0,0,0,0c0,0,0-0.1-0.1,0c0,0,0,0,0,0c0,0,0,0,0,0c0,0,0,0,0.1,0
		c0,0,0,0,0,0c0,0,0,0,0,0c0,0,0,0,0,0c-0.1,0-0.1,0-0.1,0c0,0,0,0,0,0c0,0,0,0,0,0.1c0,0,0,0,0,0c0,0,0,0,0,0c0,0,0,0,0,0
		c0,0,0,0,0,0c0,0,0,0,0,0c0,0,0,0,0,0c0,0,0,0,0,0c0,0,0,0.1,0,0.1c0,0,0,0,0,0c0,0.1-0.1,0.1-0.1,0c0,0.1,0,0.1,0.1,0.1
		c0,0,0,0,0,0c0,0,0,0,0,0c0,0,0,0,0,0c0,0,0,0,0,0c0,0,0,0,0,0c0,0,0,0,0,0c0,0,0.1,0.1,0.2,0.1c0,0,0,0,0.1,0c0,0,0,0,0,0
		c0,0,0,0.1,0,0.1c0,0-0.2,0-0.2,0c0,0-0.1,0.1-0.2,0c0,0,0,0,0-0.1c0,0,0,0,0,0c0,0,0,0,0,0c0,0-0.1,0-0.1,0c0,0,0,0,0,0
		c0,0,0,0,0,0c0,0,0,0,0.1,0.1c0,0,0,0,0,0c0,0,0,0,0,0c0,0,0-0.1-0.1,0c0,0,0,0,0,0l0,0c0,0-0.1,0-0.1,0.1c0,0,0,0,0,0c0,0,0,0,0,0
		c0,0,0,0.1,0.1,0c0,0,0,0,0,0c0,0-0.1,0.1,0,0.1c0,0,0,0,0,0c0,0,0,0,0,0c0,0,0,0.1,0.1,0.1c0,0,0,0,0-0.1c0,0,0,0,0,0
		c0,0,0-0.1,0-0.1c0,0,0,0,0,0c0,0,0,0.1,0.1,0c0,0,0.1,0,0.1-0.1c0,0,0,0,0,0c0,0,0,0,0,0c0,0,0,0,0,0c0,0,0,0,0,0.1
		c0,0,0.1,0,0.1-0.1c0,0,0,0,0,0c0,0,0,0,0,0c0,0,0,0,0.1,0c0,0,0,0,0,0c0,0,0,0,0,0c0,0,0,0,0,0c0,0,0,0,0,0.1
		c0-0.1,0.1-0.1,0.2-0.1c0,0,0,0,0,0c0,0,0,0,0,0c0,0,0.1,0,0.1,0c0,0,0,0,0,0l0.1,0c0,0,0,0,0,0c0,0,0,0,0,0c0,0,0,0,0,0
		c0.1,0,0.1-0.1,0.1,0c0.4,0,0.2-0.2,0.6-0.1c0,0,0,0,0.1,0c0,0,0,0.1,0,0.1c0,0,0.1,0,0.1,0c0,0,0,0,0,0c0,0-0.1,0-0.1,0
		c-0.1,0-0.1-0.1-0.1-0.1c0,0,0,0,0,0c0,0-0.1,0-0.1,0.1c0,0,0,0,0,0c0,0,0,0,0,0c0,0,0,0,0,0c0,0,0,0,0,0c0,0,0,0,0,0
		c0,0-0.1,0-0.1,0.1c0,0,0,0,0,0c0,0,0,0,0.1,0c0,0,0,0,0,0c0,0,0,0,0,0s0,0,0,0c0,0,0,0,0,0c0,0,0,0,0,0c0,0,0,0,0,0c0,0,0,0,0,0
		c0,0,0,0.1,0.1,0c0,0,0,0,0,0c0,0,0,0,0,0c0,0,0,0,0,0c0,0,0,0,0,0c0,0,0,0,0,0c0,0,0,0,0,0c0,0,0,0,0.1,0c0,0,0-0.1,0-0.1
		c0,0,0,0,0,0c0,0,0.1,0,0.1,0c0,0,0-0.1,0-0.1c0,0,0,0,0-0.1c0,0,0.1,0,0.1,0c0.1,0,0.1,0,0.2,0c0.1,0,0.1,0,0.1,0c0,0,0,0,0,0
		c0,0.1,0,0.1,0,0.1c0,0-0.1,0-0.1,0c0,0,0,0,0,0c0,0-0.1,0-0.1,0.1c0,0,0,0,0,0c0,0,0,0,0,0c0,0,0,0.1,0.1,0c0,0,0,0,0,0
		c0,0-0.1,0.1,0,0.1c0,0,0,0,0,0c0,0,0,0,0,0.1c0,0,0,0,0,0h0c0,0,0,0,0-0.1c0,0,0,0,0,0c0,0,0,0.1,0,0.1c0,0,0,0,0,0c0,0,0,0,0.1,0
		c0,0,0,0,0,0c0,0,0,0,0,0c0-0.1,0-0.1,0-0.1c0,0,0.1,0,0.1-0.1c0,0,0,0,0,0c0,0,0,0,0,0v0c0,0,0,0,0,0c0,0,0,0,0-0.1c0,0,0,0,0,0
		c0,0,0,0,0-0.1c0,0-0.1,0-0.1,0c0,0,0,0,0,0c-0.1,0-0.1,0-0.3,0C22.2,12.6,22.4,12.6,22.4,12.5"/>
	<path class="st0" d="M24.2,14.3L24.2,14.3L24.2,14.3 M23.9,13.8C23.9,13.8,23.9,13.8,23.9,13.8L23.9,13.8 M23.9,13.9L23.9,13.9
		L23.9,13.9z M23.9,14C23.9,14,23.9,14,23.9,14C24,14,24,14,23.9,14C24,13.9,24,13.9,23.9,14c0-0.1,0.1-0.1,0-0.1c0,0,0,0,0,0
		c0,0,0,0,0,0c0,0,0,0,0,0l0.1,0c0,0,0,0,0,0c0,0,0,0,0,0c0,0,0,0,0,0c0,0,0,0,0,0C24,13.9,24,13.9,23.9,14C24,14,24,14,23.9,14
		C24,14,24,14,23.9,14C24,14,24,14.1,23.9,14C23.9,14,23.9,14,23.9,14 M24,13.8C24,13.8,24,13.8,24,13.8C23.9,13.8,24,13.8,24,13.8
		C23.9,13.8,24,13.8,24,13.8 M24.1,13.8C24.1,13.8,24.1,13.9,24.1,13.8C24.1,13.9,24.1,13.9,24.1,13.8
		C24.1,13.9,24.1,13.9,24.1,13.8 M25.7,14.3C25.7,14.3,25.7,14.3,25.7,14.3C25.8,14.2,25.8,14.2,25.7,14.3
		C25.8,14.2,25.7,14.2,25.7,14.3C25.7,14.2,25.7,14.2,25.7,14.3c-0.2-0.1-0.2-0.1-0.4-0.1c0,0,0,0,0,0c0.1,0,0.4,0,0.4-0.1
		c0-0.1-0.1-0.1-0.3-0.1s-0.9,0.1-0.9,0c0-0.1,0.2,0,0.4,0c0,0,0,0,0,0c0.3,0.1,0.6-0.1,0.8-0.1c-0.2-0.1-0.4,0.1-0.6,0
		c0.1,0,0.3,0,0.3-0.1c-0.1,0.1-0.4,0-0.5,0c0,0,0,0,0,0c-0.2,0-0.5,0-0.5,0.1c0,0.2,0.8,0.1,1,0.1c0.2,0,0.2,0,0.2,0.1
		c0,0.1-0.2,0.1-0.3,0.1c-0.2,0-0.9-0.1-1.2,0c0-0.1,0.1-0.1,0.1-0.2c0,0,0,0,0-0.1c0,0,0,0-0.1,0c0,0,0,0,0,0c0,0,0,0,0,0
		c0,0,0,0-0.1,0c0,0-0.1,0-0.1,0c0,0,0,0,0,0c0,0,0,0,0,0c0,0,0,0-0.1,0c0,0,0,0,0,0.1c0,0-0.1,0.1-0.1,0.1c0,0,0,0,0,0
		c0,0,0,0.1-0.1,0.1c0,0,0,0,0,0c0,0,0,0,0,0.1l0,0c0,0,0,0,0,0c0,0,0,0,0,0c0,0-0.1-0.1-0.1-0.1c0,0,0,0,0-0.1c0,0,0-0.1,0-0.1
		c0,0,0,0,0,0c0,0,0,0-0.1,0c0,0,0,0,0,0c0,0,0,0,0,0c0,0,0,0,0,0c0,0,0,0,0,0c0,0,0,0,0,0c0,0,0,0,0,0c0,0,0-0.1,0-0.1c0,0,0,0,0,0
		c0,0,0,0,0,0c0,0,0-0.1-0.1,0c0,0,0,0,0,0c0,0,0,0,0,0c0,0,0,0,0.1,0c0,0,0,0,0,0c0,0,0,0,0,0c0,0,0,0,0,0c-0.1,0-0.1,0-0.1,0
		c0,0,0,0,0,0c0,0,0,0,0,0.1c0,0,0,0,0,0h0c0,0,0,0,0,0c0,0,0,0,0,0c0,0,0,0,0,0c0,0,0,0,0,0c0,0,0,0,0,0c0,0,0,0.1,0,0.1
		c0,0,0,0,0,0c0,0.1-0.1,0.1-0.1,0c0,0.1,0,0.1,0.1,0.1c0,0,0,0,0,0c0,0,0,0,0,0c0,0,0,0,0,0c0,0,0,0,0,0c0,0,0,0,0,0c0,0,0,0,0,0
		c0,0,0.1,0.1,0.1,0.1c0,0,0,0,0.1,0c0,0,0,0,0,0l0,0c0,0,0,0.1,0,0.1c0,0-0.1,0-0.1,0c0,0-0.1,0.1-0.2,0c0,0,0,0,0-0.1c0,0,0,0,0,0
		c0,0,0,0,0,0c0,0-0.1,0-0.1,0c0,0,0,0,0,0c0,0,0,0,0,0c0,0,0,0,0.1,0.1c0,0,0,0,0,0c0,0,0,0,0,0c0,0,0,0-0.1,0c0,0,0,0,0,0h0
		c0,0-0.1,0-0.1,0.1c0,0,0,0,0,0c0,0,0,0,0,0c0,0,0,0.1,0.1,0c0,0,0,0,0,0c0,0-0.1,0.1,0,0.1c0,0,0,0,0,0c0,0,0,0,0,0
		c0,0,0,0.1,0.1,0.1c0,0,0,0,0-0.1c0,0,0,0,0,0c0,0,0-0.1,0-0.1c0,0,0,0,0,0c0,0,0,0.1,0.1,0.1c0,0,0.1,0,0-0.1c0,0,0,0,0,0
		c0,0,0,0,0,0c0,0,0,0,0,0c0,0,0,0,0,0.1c0,0,0.1,0,0.1-0.1c0,0,0,0,0,0c0,0,0,0,0,0c0,0,0,0,0.1,0c0,0,0,0,0,0c0,0,0,0,0,0
		c0,0,0,0,0,0c0,0,0,0,0,0.1c0-0.1,0.1-0.1,0.1-0.1c0,0,0,0,0,0c0,0,0,0,0,0c0,0,0.1,0,0.1-0.1c0,0,0,0,0.1,0c0.1,0,0.1,0,0.1,0
		c0.4,0.1,0.2-0.2,0.6-0.1c0,0,0,0,0,0c0,0,0,0.1,0,0.1c0,0,0.1,0,0.1,0c0,0,0,0,0,0c0,0-0.1,0-0.1,0c-0.1,0-0.1-0.1-0.1-0.1
		c0,0,0,0,0,0c0,0-0.1,0-0.1,0.1c0,0,0,0,0,0v0c0,0,0,0,0,0c0,0,0,0,0,0c0,0,0,0,0,0c0,0-0.1,0-0.1,0.1c0,0,0,0,0,0c0,0,0,0,0.1,0
		c0,0,0,0,0,0c0,0,0,0,0,0c0,0,0,0,0,0c0,0,0,0,0,0s0,0,0,0c0,0,0,0,0,0c0,0,0,0,0,0c0,0,0,0.1,0.1,0c0,0,0,0,0,0c0,0,0,0,0,0
		c0,0,0,0,0,0c0,0,0,0,0,0c0,0,0,0,0,0c0,0,0,0,0,0c0,0,0,0,0.1,0c0,0,0-0.1,0-0.1c0,0,0,0,0,0c0,0,0.1,0,0.1,0c0,0,0-0.1,0-0.1
		c0,0,0,0,0-0.1c0,0,0.1,0,0.1,0c0.1,0,0.1,0,0.2,0c0.1,0,0.1,0,0.1,0c0,0,0,0,0,0c0,0.1,0,0.1,0,0.1c0,0-0.1,0-0.1,0c0,0,0,0,0,0
		c0,0-0.1,0-0.1,0.1c0,0,0,0,0.1,0v0c0,0,0,0,0.1,0c0,0,0,0,0,0c0,0-0.1,0.1,0,0.1c0,0,0,0,0,0c0,0,0,0,0,0.1c0,0,0,0,0,0h0
		c0,0,0,0,0-0.1c0,0,0,0,0,0c0,0,0,0.1,0,0.1c0,0,0,0,0,0c0,0,0,0,0.1,0c0,0,0,0,0,0c0,0,0,0,0,0c0-0.1,0-0.1,0-0.1
		c0,0,0.1,0,0.1-0.1C25.8,14.4,25.7,14.4,25.7,14.3C25.7,14.3,25.7,14.3,25.7,14.3C25.7,14.3,25.8,14.3,25.7,14.3
		C25.7,14.3,25.7,14.3,25.7,14.3"/>
	<path class="st0" d="M24.1,14.9C24,14.9,24,14.9,24.1,14.9C24,14.9,24.1,14.9,24.1,14.9C24.1,14.9,24.1,14.9,24.1,14.9 M24,15
		C24,15,24,14.9,24,15C24,14.9,24,15,24,15C24,15,24,15,24,15C23.9,15,24,15,24,15C24,15,24,15,24,15c-0.1,0.1-0.1,0.1-0.1,0.1
		c0,0,0,0,0-0.1c0,0,0,0,0,0C23.9,15,23.9,15,24,15c-0.1,0-0.1,0-0.1,0C23.9,14.9,23.9,14.9,24,15c-0.1-0.1-0.1-0.1-0.1-0.1
		c0,0,0,0,0,0C23.9,14.9,23.9,14.9,24,15L24,15C24,14.9,24,14.9,24,15C24,15,24,15,24,15 M24,14.8C24,14.9,23.9,14.9,24,14.8
		C23.9,14.8,23.9,14.8,24,14.8C23.9,14.8,24,14.8,24,14.8 M24.7,14.9C24.7,14.9,24.7,14.9,24.7,14.9c0.3,0.1,0.7-0.1,0.8,0
		c-0.2-0.1-0.4,0.1-0.6,0c0.1,0,0.3,0,0.3-0.1C25.1,14.8,24.8,14.7,24.7,14.9C24.7,14.8,24.7,14.8,24.7,14.9c-0.1-0.1-0.3-0.1-0.3,0
		c0,0.2,0.6,0.1,0.8,0.1c0.2,0,0.2,0,0.2,0.1c0,0.1-0.2,0.1-0.3,0.1c-0.2,0-0.6-0.1-0.9,0c0,0,0.1-0.1,0-0.1c0,0,0,0,0-0.1
		c0,0,0,0-0.1,0c0,0,0,0,0,0c0,0,0,0,0,0c0,0,0,0-0.1,0c0,0-0.1,0-0.1,0c0,0,0,0,0,0c0,0,0,0,0,0c0,0,0,0-0.1,0c0,0,0,0,0,0.1
		c0,0-0.1,0.1-0.1,0.1c0,0,0,0,0,0c0,0,0,0.1-0.1,0.1c0,0,0,0,0,0c0,0,0,0.1,0,0.1l0,0h0c0,0-0.1,0-0.1,0c0,0,0,0,0-0.1
		c0,0,0-0.1,0-0.1c0,0,0,0,0,0c0,0,0,0-0.1,0c0,0,0,0,0,0c0,0,0,0,0,0c0,0,0,0,0,0c0,0,0,0,0,0c0,0,0,0,0,0c0,0,0,0,0,0
		c0,0,0-0.1,0-0.1c0,0,0,0,0,0c0,0,0,0,0,0c0,0,0-0.1-0.1,0c0,0,0,0,0,0c0,0,0,0,0,0c0,0,0,0,0.1,0c0,0,0,0,0,0c0,0,0,0,0,0
		c0,0,0,0,0,0c0,0-0.1,0-0.1,0c0,0,0,0,0,0c0,0,0,0,0,0.1c0,0,0,0,0,0c0,0,0,0,0,0c0,0,0,0,0,0c0,0,0,0,0,0c0,0,0,0,0,0c0,0,0,0,0,0
		c0,0,0,0,0,0c0,0,0,0.1,0,0.1c0,0,0,0,0,0c0,0.1-0.1,0-0.1,0c0,0.1,0,0.1,0.1,0.1c0,0,0,0,0,0c0,0,0,0,0,0c0,0,0,0,0,0c0,0,0,0,0,0
		c0,0,0,0,0,0c0,0,0,0,0,0c0,0,0,0,0.1,0c0,0,0,0,0,0l0.1,0c0,0,0,0.1,0,0.1c0,0-0.1,0-0.1,0c0,0-0.1,0.1-0.2,0c0,0,0,0,0-0.1
		c0,0,0,0,0,0h0c0,0-0.1,0-0.1,0c0,0,0,0,0,0c0,0,0,0,0,0c0,0,0,0,0.1,0.1c0,0,0,0,0,0c0,0,0,0,0,0c0,0,0,0-0.1,0c0,0,0,0,0,0
		c0,0,0,0,0,0c0,0-0.1,0-0.1,0.1c0,0,0,0,0,0c0,0,0,0,0,0c0,0,0,0.1,0.1,0c0,0,0,0,0,0c0,0-0.1,0.1,0,0.1c0,0,0,0,0,0c0,0,0,0,0,0
		c0,0,0,0.1,0.1,0.1c0,0,0,0,0-0.1c0,0,0,0,0,0c0,0,0-0.1,0-0.1c0,0,0,0,0,0c0,0,0,0.1,0,0c0,0,0.1,0,0.1-0.1c0,0,0,0,0,0
		c0,0,0,0,0,0c0,0,0,0,0,0c0,0,0,0,0,0.1c0,0,0.1,0,0.1-0.1c0,0,0,0,0,0c0,0,0,0,0,0c0,0,0,0,0.1,0c0,0,0,0,0,0c0,0,0,0,0,0
		c0,0,0,0,0,0c0,0,0,0,0,0.1c0-0.1,0.1-0.1,0.1-0.1c0,0,0,0,0,0c0,0,0,0,0,0c0.1,0,0.1-0.1,0.2-0.1c0,0,0,0,0,0c0,0,0,0,0,0
		c0.1,0,0.1,0,0.1,0c0.2,0,0-0.2,0.4-0.1c0,0,0.1,0,0.1,0c0,0,0,0.1,0,0.1c0,0,0.1,0,0.1,0c0,0,0,0,0,0c0,0-0.1,0-0.1,0
		c-0.1,0-0.1-0.1-0.1-0.1c0,0,0,0,0,0c0,0-0.1,0-0.1,0.1c0,0,0,0,0,0c0,0,0,0,0,0c0,0,0,0,0,0c0,0,0,0,0,0c0,0,0,0,0,0
		c0,0-0.1,0-0.1,0.1c0,0,0,0,0,0c0,0,0,0,0.1,0c0,0,0,0,0,0c0,0,0,0,0,0c0,0,0,0,0,0c0,0,0,0,0,0c0,0,0,0,0,0c0,0,0,0,0,0
		c0,0,0,0,0,0c0,0,0,0.1,0.1,0c0,0,0,0,0,0c0,0,0,0,0,0c0,0,0,0,0,0c0,0,0,0,0,0c0,0,0,0,0,0c0,0,0,0,0,0c0,0,0,0,0.1,0
		c0,0,0-0.1,0-0.1c0,0,0,0,0,0c0,0,0.1,0,0.1,0c0,0,0-0.1,0-0.1c0,0,0,0,0-0.1c0,0,0.1,0,0.1,0c0.1,0,0.1,0,0.2,0c0.1,0,0.1,0,0.1,0
		c0,0,0,0,0,0c0,0.1,0,0.1,0,0.1c0,0-0.1,0-0.1,0c0,0,0,0,0,0c0,0-0.1,0-0.1,0.1c0,0,0,0,0,0c0,0,0,0,0,0c0,0,0,0,0.1,0c0,0,0,0,0,0
		c0,0-0.1,0,0,0.1c0,0,0,0,0,0c0,0,0,0,0,0c0,0,0,0,0,0h0c0,0,0,0,0.1-0.1c0,0,0,0,0,0c0,0,0,0.1,0,0.1c0,0,0,0,0,0c0,0,0,0,0.1,0
		c0,0,0,0,0,0c0,0,0,0,0,0c0-0.1,0-0.1,0-0.1c0,0,0.1,0,0.1-0.1c0,0,0,0,0,0l0,0h0c0,0,0,0,0,0c0,0,0,0,0-0.1c0,0,0,0,0,0
		c0,0,0,0,0-0.1c0,0-0.1,0-0.1,0c0,0,0,0,0,0c-0.1,0-0.2,0-0.3,0c0,0,0,0,0,0c0.1,0,0.4,0,0.4-0.1c0-0.1,0-0.1-0.2-0.1
		s-0.7,0.1-0.7,0C24.5,14.8,24.6,14.8,24.7,14.9"/>
	<path class="st0" d="M23.8,16C23.8,16,23.8,16,23.8,16C23.8,16,23.8,16,23.8,16C23.9,16,23.8,16,23.8,16C23.8,16,23.8,16,23.8,16
		C23.8,15.9,23.8,16,23.8,16c0-0.1,0-0.1,0-0.1c0,0,0,0,0,0l0.1,0c0,0,0,0,0,0c0,0,0,0,0,0c0,0,0,0,0,0C23.9,16,23.9,16,23.8,16
		C23.9,16,23.9,16,23.8,16C23.9,16,23.9,16,23.8,16C23.9,16,23.9,16.1,23.8,16C23.9,16.1,23.8,16.1,23.8,16
		C23.8,16.1,23.8,16.1,23.8,16 M23.9,15.9C23.9,15.9,23.8,15.9,23.9,15.9C23.8,15.9,23.8,15.9,23.9,15.9
		C23.8,15.9,23.9,15.9,23.9,15.9 M23.9,15.9C23.9,15.9,24,15.9,23.9,15.9C24,15.9,24,16,23.9,15.9C23.9,16,23.9,15.9,23.9,15.9
		 M24.5,15.9C24.5,15.9,24.5,15.9,24.5,15.9c0.3,0.1,0.7-0.1,0.8,0c-0.2-0.1-0.4,0.1-0.6,0c0.1,0,0.3,0,0.3-0.1
		C24.9,15.9,24.6,15.7,24.5,15.9C24.5,15.8,24.5,15.8,24.5,15.9c-0.1,0-0.2,0-0.2,0.1c0,0.2,0.7,0,0.7,0.1c0,0-0.1,0.1-0.3,0.1
		c-0.1,0-0.4-0.1-0.7,0v0c0-0.1,0.1-0.1,0.1-0.2c0,0,0,0,0-0.1c0,0,0,0-0.1,0c0,0,0,0,0,0c0,0,0,0,0,0c0,0,0,0-0.1,0
		c0,0-0.1,0-0.1,0c0,0,0,0,0,0c0,0,0,0,0,0c0,0,0,0,0,0c0,0,0,0,0,0.1c0,0,0,0.1-0.1,0.1c0,0,0,0,0,0c0,0,0,0.1,0,0.1c0,0,0,0,0,0
		c0,0.1,0,0.1,0,0.2c0,0-0.1-0.2-0.2-0.2c0,0,0,0,0-0.1c0,0,0-0.1,0-0.1c0,0,0,0,0,0c0,0,0,0-0.1,0c0,0,0,0,0,0c0,0,0,0,0,0
		c0,0,0,0,0,0c0,0,0,0,0,0c0,0,0,0,0,0c0,0,0,0,0,0c0,0,0-0.1,0-0.1h0c0,0,0,0,0,0c0,0,0,0-0.1,0c0,0,0,0,0,0c0,0,0,0,0,0
		c0,0,0,0,0,0c0,0,0,0,0,0c0,0,0,0,0,0c0,0,0,0,0,0c0,0-0.1,0-0.1,0c0,0,0,0,0,0c0,0,0,0,0,0.1c0,0,0,0,0,0c0,0,0,0,0,0c0,0,0,0,0,0
		c0,0,0,0,0,0c0,0,0,0,0,0c0,0,0,0,0,0c0,0,0,0,0,0c0,0,0,0.1,0,0.1c0,0,0,0,0,0c0,0.1-0.1,0-0.1,0c0,0.1,0,0.1,0.1,0.1c0,0,0,0,0,0
		c0,0,0,0,0,0c0,0,0,0,0,0c0,0,0,0,0,0c0,0,0,0,0,0c0,0,0,0,0,0c0,0,0,0.1,0.1,0.1c0,0.1,0.1,0.1,0.1,0.1c0,0,0,0.1,0,0.1
		c0,0-0.1,0-0.1,0c0,0-0.1,0-0.1,0l0,0c0,0,0,0,0,0c0,0-0.1,0-0.1,0c0,0,0,0,0,0c0,0,0,0,0,0c0,0,0,0,0,0c0,0-0.1,0-0.1,0
		c0,0,0,0,0,0c0,0,0,0,0,0c0,0,0,0,0.1,0.1c0,0,0,0,0,0c0,0,0,0,0,0c0,0,0,0-0.1,0c0,0,0,0,0,0l0,0c0,0-0.1,0,0,0.1c0,0,0,0,0,0
		c0,0,0,0,0,0c0,0,0,0.1,0.1,0c0,0,0,0,0,0c0,0-0.1,0.1,0,0.1c0,0,0,0,0,0c0,0,0,0,0,0c0,0,0,0.1,0.1,0.1c0,0,0,0,0-0.1c0,0,0,0,0,0
		c0,0,0-0.1,0-0.1c0,0,0,0,0,0c0,0,0,0,0,0c0,0,0.1,0,0.1-0.1c0,0,0,0,0,0c0,0,0,0,0,0c0,0,0,0,0,0c0,0,0,0,0,0.1c0,0,0.1,0,0.1-0.1
		c0,0,0,0,0,0c0,0,0,0,0,0c0,0,0,0,0.1,0c0,0,0,0,0,0c0,0,0,0,0,0c0,0,0,0,0,0c0,0,0,0,0,0.1c0-0.1,0.1-0.1,0.1-0.1c0,0,0,0,0,0
		c0,0,0,0,0,0c0,0,0.1,0,0.1-0.1c0,0,0-0.1,0.1-0.2c0,0,0,0,0,0c0.1,0,0.1-0.1,0.2-0.1c0,0,0,0.1,0,0.1c0,0,0.1,0.1,0.1,0.1
		c0,0,0,0,0,0c0,0,0,0-0.1,0c-0.1,0-0.1-0.1-0.1-0.1c0,0,0,0,0,0c0,0-0.1,0-0.1,0.1c0,0,0,0,0,0v0c0,0,0,0,0,0c0,0,0,0,0,0
		c0,0,0,0,0,0c0,0-0.1,0-0.1,0.1c0,0,0,0,0,0c0,0,0,0,0.1,0c0,0,0,0,0,0c0,0,0,0,0,0s0,0,0,0c0,0,0,0,0,0c0,0,0,0,0,0c0,0,0,0,0,0
		c0,0,0,0,0,0c0,0,0,0.1,0.1,0c0,0,0,0,0,0c0,0,0,0,0,0c0,0,0,0,0,0c0,0,0,0,0,0c0,0,0,0,0,0c0,0,0,0,0,0c0,0,0,0,0,0
		c0,0,0-0.1,0-0.1c0,0,0,0,0,0c0,0,0.1,0,0.1,0c0,0,0-0.1,0-0.1c0,0,0-0.2-0.1-0.2c0,0,0.2,0,0.2,0c0,0,0.1,0,0.1,0.1c0,0,0,0,0,0
		c0,0,0,0-0.1,0l0,0c0,0,0,0,0,0c0,0,0,0,0,0c0,0-0.1,0-0.1,0c0,0,0,0,0,0c0,0,0,0,0,0c0,0,0,0,0,0c0,0,0,0,0,0c0,0,0,0,0,0
		c0,0-0.1,0-0.1,0c0,0,0,0,0,0c0,0,0,0,0,0.1c0,0,0,0,0,0c0,0,0,0,0,0c0,0,0,0,0.1,0c0,0,0,0,0,0c0,0,0,0,0,0c0,0,0,0,0,0
		c0,0,0,0,0,0.1c0,0,0,0,0,0c0,0,0,0,0,0c0.1,0,0-0.1,0-0.1c0,0,0,0,0.1,0c0,0,0,0,0,0c0,0,0,0,0,0v0c0,0,0,0,0,0c0,0,0,0,0-0.1
		c0,0,0,0,0,0c0,0,0,0,0.1,0c0,0-0.1,0,0,0c0,0,0.1,0,0-0.1c0-0.1-0.1-0.1-0.1-0.1c0,0,0.1,0,0.1,0c0.3,0,0.4-0.1,0.4-0.1
		c0-0.2-0.7,0-0.7-0.1C24.4,15.9,24.4,15.9,24.5,15.9"/>
	<path class="st0" d="M12.5,3c0-0.1-0.1-0.2-0.2-0.2c-0.1,0-0.2,0.1-0.2,0.2c0,0.1,0.1,0.2,0.2,0.2C12.4,3.2,12.5,3.1,12.5,3"/>
	<path class="st0" d="M12.5,2.6c0-0.1-0.1-0.2-0.2-0.2c-0.1,0-0.2,0.1-0.2,0.2c0,0.1,0.1,0.2,0.2,0.2C12.4,2.7,12.5,2.7,12.5,2.6"/>
	<path class="st0" d="M12.6,2.3c0.1,0,0.2-0.1,0.2-0.2c0-0.1-0.1-0.2-0.2-0.2c-0.1,0-0.2,0.1-0.2,0.2C12.4,2.3,12.5,2.3,12.6,2.3"/>
	<path class="st0" d="M13,2.3c0.1,0,0.2-0.1,0.2-0.2C13.2,2,13.1,2,13,2c-0.1,0-0.2,0.1-0.2,0.2C12.9,2.2,12.9,2.3,13,2.3"/>
	<path class="st0" d="M15.1,2c0.1,0.1,0.2,0.1,0.3,0c0.1-0.1,0.1-0.2,0-0.3c-0.1-0.1-0.2-0.1-0.3,0C15,1.8,15,1.9,15.1,2"/>
	<path class="st0" d="M15,1.6c0.1-0.1,0.1-0.2,0-0.3c-0.1-0.1-0.2-0.1-0.3,0c-0.1,0.1-0.1,0.2,0,0.3C14.8,1.7,15,1.7,15,1.6"/>
	<path class="st0" d="M14.6,1.5c0.1-0.1,0.1-0.2,0-0.3c-0.1-0.1-0.2-0.1-0.3,0c-0.1,0.1-0.1,0.2,0,0.3C14.4,1.6,14.5,1.6,14.6,1.5"
		/>
	<path class="st0" d="M14.1,1.8c0.1-0.1,0.1-0.2,0-0.3c-0.1-0.1-0.2-0.1-0.3,0c-0.1,0.1-0.1,0.2,0,0.3C14,1.9,14.1,1.9,14.1,1.8"/>
	<path class="st0" d="M13,1.6l0.1,0.3l0.2-0.2c0,0,0,0,0,0c0,0.1,0,0.3,0,0.4c0,0.1,0.1,0.2,0.2,0.2c0.1,0,0.2-0.1,0.2-0.2
		c0-0.1,0-0.2-0.1-0.2c-0.1-0.1-0.2-0.2-0.3-0.2c0,0,0,0,0,0l0.3,0l-0.1-0.3l-0.2,0.2c0,0,0,0,0,0l0-0.3l-0.3,0.1l0.2,0.2
		c0,0,0,0,0,0L13,1.6z"/>
	<path class="st0" d="M15.1,2.1c0.1,0.1,0.1,0.2,0.1,0.2C15.1,2.4,15.1,2.3,15.1,2.1l0,0.5c0-0.1,0.1-0.1,0.1-0.1
		c0,0.3-0.1,0.4-0.2,0.4c-0.1,0-0.2-0.1-0.2-0.1c0-0.1,0.1-0.2,0.2-0.1c0-0.3-0.2-0.2-0.3-0.1c0.1-0.2,0.1-0.4-0.2-0.5
		c-0.1,0.2-0.1,0.4,0.1,0.5c-0.2-0.1-0.3,0.1-0.2,0.2c0-0.2,0.2-0.1,0.2,0c0,0.1-0.1,0.3-0.3,0.3C14.1,3.2,14,3,14,2.9
		c0.1,0,0.2,0,0.3,0.1l-0.1-0.4c-0.1,0.1-0.1,0.2-0.2,0.2c0-0.1,0.1-0.4,0.1-0.4l-0.5,0.2c0,0,0.2,0.1,0.3,0.2c-0.1,0-0.2,0.1-0.3,0
		l0.2,0.4c0-0.2,0.1-0.3,0.2-0.3C13.9,3,14,3.2,13.8,3.3c-0.2,0.1-0.3,0.1-0.4,0c-0.1-0.1,0-0.2,0.1-0.1c0-0.2-0.2-0.2-0.3-0.1
		c0-0.2-0.1-0.4-0.3-0.5c-0.1,0.2,0,0.4,0.3,0.5c-0.1,0-0.3,0.1-0.1,0.3c0-0.2,0.1-0.2,0.2-0.1c0,0.1,0,0.2-0.1,0.2
		c-0.1,0.1-0.2,0-0.4-0.1c0.1,0,0.1,0,0.2,0l-0.3-0.3c0,0.1,0,0.2,0,0.2c-0.1-0.1-0.1-0.1-0.1-0.2l-0.2,0.2c0.2,0.1,0.4,0.3,0.7,0.7
		c0.3-0.2,0.8-0.4,1.1-0.5c0.3-0.1,0.8-0.3,1.2-0.4c-0.1-0.4,0-0.7,0-0.9L15.1,2.1z"/>
	<path class="st0" d="M15.6,4.5c-0.2,0.2-0.6,0-0.7-0.2c0.3-0.1,0.7-0.3,1-0.5C15.7,4.2,15.8,4.3,15.6,4.5 M15.6,7.1
		C15.3,7.2,15,7,15,6.8c-0.1-0.2-0.1-0.4,0-0.4c0.1-0.1,0.2-0.2,0.1-0.4c-0.1-0.2-0.3-0.1-0.5,0c0.1-0.2,0.1-0.3,0-0.3
		c-0.2,0-0.2,0.3-0.3,0.3c-0.1,0,0-0.2,0-0.3c0-0.1,0.1-0.2,0.2-0.2L15.3,5c0.1,0,0.2-0.1,0.3,0c0.1,0.1,0.2,0.1,0.2,0.2
		c0,0.1-0.2-0.1-0.4,0c-0.1,0.1,0,0.2,0.2,0.2c-0.2,0.1-0.4,0.2-0.3,0.4c0.1,0.2,0.2,0.2,0.4,0.2c0.1,0,0.2,0.2,0.3,0.3
		C15.9,6.6,15.9,6.9,15.6,7.1 M13.8,5.2c-0.2,0-0.2-0.2-0.7-0.3c0.3-0.1,0.7-0.2,1.1-0.4C14.2,4.8,14.1,5.2,13.8,5.2 M19,13.5
		c0.1-0.2-0.3-0.4-0.3-0.7c0-0.3,0-0.5-0.3-0.9c-0.3-0.4-1.4-1.5-1.7-1.9c0.1,0,0.3-0.1,0.5,0.1c0.1,0.1,0.3,0.3,0.6,0.5
		c0.3-0.7,0.6-1.3,1.1-1.8c0.1-0.1,0.1-0.1,0.2-0.2c-0.2,0.1-0.5,0.1-0.6,0.2c0-0.3,0-0.6-0.2-0.8c0.1-0.4,0-1-1-1.6
		c0.5,0.1,0.8,0.6,1.2,0.2C18,6.7,18,6,16.8,5.3c0.5,0,0.8,0.8,1.4,0.3c-0.5-0.1-0.7-1-1.6-1.3c0.3,0,0.7,0.2,0.9-0.2
		C17.2,4.3,17,4,16.6,4c0.1-0.4,0.1-0.7,0-1c-0.2,0-0.5,0.1-0.7,0.2C15.9,3,15.7,3,15.4,3c0,0.1,0.1,0.2,0,0.3
		c-0.2,0-0.7,0.2-1.2,0.3c-0.4,0.2-0.9,0.5-1.1,0.6C13.1,4.3,13,4.1,13,4.1c-0.2,0.1-0.3,0.3-0.2,0.5c-0.2,0-0.5,0.1-0.7,0.3
		c0,0.3,0.2,0.5,0.6,0.7c-0.6,0.6-0.1,1.1-0.6,1.6c0.7,0,0.6-1,1-1.1c0,0.7-0.4,0.8-0.4,1.6c0,0.4,0.2,0.8,0,1.1
		c0.6-0.2,0.4-1.5,0.8-1.9c0.1,0.2,0,0.4-0.1,0.7c-0.2,0.6,0,1.5-0.3,1.7c0.6-0.1,0.7-1,1.2-1.4c-0.4,0.9-0.9,2.8-1.5,3.7
		c-1,1.4-1.7,3.1-2.6,3.1c-0.4,0-0.7-0.3-0.7-0.8c0-1.6,2.7-2.7,2.7-4.4c0-0.8-0.6-1-1-1c-0.3,0-0.6,0.1-0.8,0.3
		c-0.1,0-0.2-0.1-0.3-0.1c-1,0-0.7,1.7-1.6,1.7c0.3,0.2,0.9-0.2,1.3-0.7c-0.1,1.1-1.8,0.8-1.6,2.2c0.2-1.1,2.8-0.9,2.8-2.5
		c0-0.2-0.1-0.3-0.2-0.5c0.2-0.1,0.4-0.2,0.5-0.2c0.3,0,0.6,0.2,0.6,0.7c0,1.4-2.7,2.6-2.7,4.4c0,0.3,0.1,0.5,0.2,0.7
		c-0.2,0.1-0.4,0-0.6-0.1c0,0.5,0.6,0.7,1,0.5C9.8,15,9.9,15,10,15c-0.1,0.3-0.5,0.4-0.8,0.4c0.7,0.5,1.8-0.2,1.8-0.8
		c0.5-0.4,0.9-1.2,1.3-1.6c0,0.1,0,0.2-0.1,0.3c-0.4,0.7-0.8,1.3-0.9,2.3c-0.1,0.8-0.5,1.5-1,1.5c-0.1,0-0.3-0.2-0.4-0.1
		c-0.2,0.1,0,0.3,0,0.4c0,0.2-0.4,0.4-0.4,1.1c0,0.3,0.2,0.7,0.1,0.9c0.2-0.1,0.4-0.4,0.5-0.8c0.2,0.9-0.4,0.9,0,1.7
		c0.1-0.3,0.3-0.4,0.5-0.3c0.2,0.1,0.1,0.2,0,0.3c-0.1,0.1-0.2,0.7,0.3,0.7c-0.1-0.1-0.1-0.2,0.2-0.3c0.4-0.1,0.5,0.1,0.9,0.1
		c0.2,0,0.3-0.3,0.5-0.3c0.2,0,0.2,0.2,0.1,0.3c0.3-0.1,0.4-0.3,0.4-0.4c0-0.2-0.1-0.3,0-0.4c0.1-0.1,0.5,0,0.3,0.3
		c0.2,0,0.3-0.2,0.3-0.4c0-0.2-0.3-0.4-0.5-0.3c0-0.1-0.3-0.2-0.5-0.2c-0.4,0-0.4,0.4-0.7,0.4c-0.5,0-1-0.6-1-1.7
		c0-0.6,0.6-0.7,1.1-0.9c0.4-0.2,1.2-0.7,1.7-1.4c0.4-0.6,0.4-1.3,0.3-2.1c0.6,0.4,0.7,0.9,0.7,1.2c0,0.5-0.2,0.7-0.4,0.8
		c-0.2,0.1-0.2,0-0.2,0.1c0,0.1,0.1,0.2,0.1,0.2c0.2,0.1,0.2,0.3,0.2,0.6c0.1,0.2,0.3,0.6,0.6,0.9c0-0.1,0-0.4,0-0.7
		c0.5,0.2,0.1,1.2,1,1.2c-0.2-0.1-0.1-0.3,0-0.4c0.1,0,0.2,0.1,0.4,0.3c0.2,0.2,0.1,0.2,0.6,0.2c0.4,0,0.2-0.2,0.5-0.2
		c0.2,0,0.2,0.3,0.1,0.5c0.4-0.1,0.5-0.4,0.4-0.7c0.3-0.2,0.5,0.1,0.6,0.3c0.3-0.3,0-0.7-0.3-0.8c0-0.1-0.1-0.3-0.3-0.3
		c-0.1,0-0.3,0-0.4,0c-0.2,0-0.2,0.2-0.4,0.2c-0.6,0-1.7-1-1.7-1.5c0-0.5,1.1-0.7,1.1-1.4c0-0.9-0.9-1.2-1.7-1.8
		c0.3-0.3,1.1-0.4,1.5-0.2c0-0.3,0.2-0.2,0.3-0.6c0.2,0.4,0,0.7,0.2,0.9c0.1-0.2,0.5-0.2,0.4-0.6c0.1,0.3-0.1,0.8,0.1,1
		c0-0.2,0.2-0.3,0.3-0.3c0.1,0,0.2,0.1,0.2,0.2c0,0.4-0.5,0.2-0.5,0.6c0,0.2,0.2,0.2,0.2,0.3c0,0.1-0.2,0.3-0.4,0.1
		c0.1,0.2,0.2,0.3,0.4,0.3c0.2,0,0.4-0.2,0.5-0.4c0.1,0.3,0,0.6-0.2,0.6c0.2,0.1,0.7,0,0.6-0.6c0.3,0,0.4,0.2,0.2,0.5
		c0.2-0.1,0.4-0.2,0.4-0.4C19.1,13.8,18.9,13.7,19,13.5"/>
	<path class="st0" d="M36.7,17.9c0-0.3,0.3-0.6,0.6-0.6c0.3,0,0.6,0.3,0.6,0.6c0,0.3-0.3,0.6-0.6,0.6C36.9,18.5,36.7,18.2,36.7,17.9
		 M36.5,17.9c0,0.4,0.3,0.8,0.8,0.8c0.4,0,0.8-0.3,0.8-0.8s-0.3-0.8-0.8-0.8C36.8,17.1,36.5,17.5,36.5,17.9"/>
	<path class="st0" d="M34,19.3c-0.2,0-0.4-0.2-0.3-0.4c0-0.1,0.1-0.1,0.1-0.2c0.1-0.1,0.2-0.1,0.3-0.1c0.2,0,0.3,0.2,0.3,0.3
		c0,0,0,0,0,0C34.4,19.3,34.2,19.3,34,19.3 M33.6,18.6c-0.1,0.1-0.2,0.2-0.2,0.3c0,0.1,0,0.3,0.1,0.4c0.1,0.1,0.2,0.2,0.4,0.2
		c0.2,0,0.3,0,0.4-0.1c0.1-0.1,0.2-0.2,0.2-0.3c0-0.3-0.2-0.5-0.5-0.6C33.9,18.5,33.7,18.5,33.6,18.6"/>
	<path class="st0" d="M29.3,8.3c0-0.1,0.1-0.2,0.2-0.3c0.1-0.1,0.2-0.1,0.3-0.1c0,0,0.1,0,0.1,0.1c0,0.1,0,0.1,0,0.2
		c0,0.1-0.1,0.2-0.2,0.3c-0.1,0.1-0.3,0.1-0.4,0C29.3,8.3,29.3,8.3,29.3,8.3 M29.4,7.8C29.1,8,29,8.3,29.2,8.5
		c0.2,0.2,0.5,0.2,0.7,0c0.1-0.1,0.2-0.2,0.2-0.4c0-0.1,0-0.2-0.1-0.3c-0.1-0.1-0.2-0.1-0.3-0.2C29.6,7.7,29.5,7.7,29.4,7.8"/>
	<path class="st0" d="M33,18.4 M33,18.2L33,18.2c-0.1,0-0.1,0-0.2-0.1c-0.1-0.1-0.1-0.2-0.1-0.3c0-0.1,0-0.2,0.1-0.3
		c0,0,0.1-0.1,0.2-0.1c0.2,0,0.3,0.2,0.3,0.4c0,0.1-0.1,0.2-0.1,0.3C33.1,18.2,33.1,18.2,33,18.2 M32.7,17.3
		c-0.1,0.1-0.2,0.3-0.2,0.5v0c0,0.2,0.1,0.3,0.2,0.5c0.1,0.1,0.2,0.1,0.3,0.1c0.1,0,0.2,0,0.3-0.1c0.1-0.1,0.2-0.3,0.2-0.5
		c0-0.2,0-0.3-0.1-0.4c-0.1-0.1-0.2-0.2-0.4-0.2C32.9,17.2,32.8,17.3,32.7,17.3"/>
	<path class="st0" d="M29.1,11.9c-0.2-0.1-0.3-0.3-0.2-0.4c0-0.1,0.1-0.1,0.1-0.1c0.1,0,0.2,0,0.3,0c0.1,0.1,0.2,0.1,0.2,0.3
		c0,0,0,0.1,0,0.2c0,0.1-0.1,0.1-0.1,0.1C29.3,11.9,29.2,11.9,29.1,11.9 M28.9,11.1c-0.1,0-0.2,0.1-0.3,0.2c-0.1,0.2,0,0.6,0.3,0.7
		c0.2,0.1,0.3,0.1,0.5,0c0.1,0,0.2-0.1,0.3-0.2c0-0.1,0.1-0.2,0-0.3c-0.1-0.2-0.2-0.3-0.3-0.4C29.3,11.1,29.1,11.1,28.9,11.1"/>
	<path class="st0" d="M34.5,14.6c-0.1,0.2-0.3,0.2-0.5,0.1c-0.1-0.1-0.1-0.3,0-0.5c0.1-0.2,0.3-0.2,0.5-0.1
		C34.6,14.2,34.6,14.4,34.5,14.6 M33.6,16.1c-0.1,0.2-0.3,0.2-0.5,0.1c-0.1-0.1-0.2-0.3,0-0.5c0.1-0.2,0.3-0.2,0.5-0.1
		C33.7,15.7,33.7,15.9,33.6,16.1 M30.5,8.2c0.1-0.3,0.3-1,0.3-1l0.3,0.1c-0.1,0-0.2,0.1-0.3,0.2c0.1,0,0.2,0,0.3,0L31,7.9
		c0-0.1-0.1-0.2-0.2-0.2C30.7,8,30.9,8.1,31,8.2c0.2,0.1,0.4,0.1,0.4,0c0.1-0.1-0.1-0.3-0.3-0.2c0-0.2,0.1-0.3,0.2-0.3
		c0.1,0,0.2,0.1,0.2,0.2c0-0.3,0.1-0.5,0.4-0.6c0.1,0.3,0,0.5-0.2,0.7c0.1,0,0.2,0,0.3,0c0.1,0.1,0,0.2-0.1,0.3
		c0-0.2-0.3-0.2-0.3-0.1c-0.1,0.1,0,0.2,0.2,0.3c0.2,0.1,0.4,0.1,0.5-0.1c-0.1,0-0.2,0-0.3,0.1l0.2-0.4c0,0.1,0,0.2,0.1,0.3
		c0-0.1,0.1-0.3,0-0.4l0.5,0.3c-0.2,0-0.3,0.1-0.4,0.2c0.1,0,0.2,0,0.3,0l-0.3,0.4c0-0.1,0-0.3-0.1-0.3c-0.1,0.2-0.1,0.4,0.1,0.5
		c0.2,0.1,0.3,0.1,0.4,0c0.1-0.1,0-0.3-0.2-0.2c0-0.2,0.1-0.3,0.2-0.3c0.1,0,0.2,0.1,0.2,0.2c0.1-0.3,0.2-0.5,0.5-0.5
		c0.1,0.3-0.1,0.5-0.3,0.7c0.1,0,0.2,0,0.3,0.1c0.1,0.1,0,0.2-0.1,0.3c0-0.2-0.2-0.2-0.3-0.1c-0.1,0.1,0,0.2,0.2,0.3
		c0.1,0.1,0.3,0.2,0.5,0c-0.1-0.1-0.2-0.1-0.3-0.1l0.2-0.3c0,0.1,0.1,0.2,0.1,0.3c0-0.1,0.1-0.3,0-0.4l0.3,0.2c0,0-0.5,0.5-0.7,0.8
		L30.5,8.2z M34.3,12.5c0-0.1,0-0.1,0.1-0.2c0.1-0.1,0.1-0.1,0.2-0.1c0.1,0,0.2,0.1,0.3,0.2c0.1,0.1,0.1,0.2,0.1,0.3
		c0,0,0,0.1-0.1,0.2v0C34.8,13,34.8,13,34.7,13c-0.1,0-0.2-0.1-0.3-0.2C34.3,12.7,34.3,12.6,34.3,12.5 M35.6,18.8
		c0-0.1,0.1-0.2,0.2-0.3c0.1-0.1,0.2-0.1,0.3-0.1c0.1,0,0.1,0,0.2,0.1c0,0.1,0,0.1,0,0.2c0,0.1-0.1,0.2-0.2,0.3
		c-0.2,0.1-0.4,0.1-0.5,0C35.6,19,35.6,18.9,35.6,18.8 M29.1,9.3c0,0.1,0,0.2-0.1,0.3c0,0-0.1,0.1-0.1,0.1c-0.1,0-0.2-0.2-0.2-0.3
		c0,0,0,0,0,0c0-0.1,0-0.2,0.1-0.3c0,0,0.1-0.1,0.2-0.1C28.9,8.9,29,9,29,9C29,9.1,29.1,9.2,29.1,9.3 M31.1,5.1
		c0.1-0.2,0-0.5,0.4-0.5c0.2,0,0.4,0.2,0.6,0.3C31.7,4.9,31.4,4.9,31.1,5.1 M37,10.3c0.3,0.7,0.7,0.9,1.1,0.8
		C37.3,11,38,9.5,36.9,9.5c-0.1,0-0.1,0-0.2,0c-0.2-0.2-0.4-0.3-0.7-0.3c-0.5,0-1.3,0.4-1.3,1.4c0,2,2.3,2.2,2.3,3.9
		c0,0.5-0.4,0.8-0.8,0.8c-0.4,0-0.7-0.4-1-1.1c-0.2-0.3-0.5-0.8-0.8-1.2c0.1,0.1,0.2,0.1,0.3,0.1c0.1,0,0.2,0,0.3-0.1
		c0.1-0.1,0.1-0.2,0.1-0.3v0c0-0.2-0.1-0.3-0.2-0.4c-0.1-0.1-0.3-0.2-0.5-0.2c-0.1,0-0.2,0-0.3,0.1c-0.1,0.1-0.1,0.2-0.1,0.3v0
		c0,0.1,0,0.1,0,0.2c-0.5-0.6-1-1.3-1-1.6c0-0.3,0.2-0.6,0.5-0.9c0,0,0.1,0.1,0.1,0.1l0.1-0.1c0.1-0.1,0.3-0.3,0.7-0.7l0,0l0,0
		l0.1-0.1l-0.2-0.2c0.1-0.2,0.1-0.3,0.2-0.5C34.6,8.9,34.7,9.1,35,9c-0.2-0.3,0.2-0.8,0-1.6c0.2,0.3,0.5,0.5,0.7,0.4
		c-0.5-0.5,0.2-1.1-0.5-2.1c0.2,0.1,0.4,0,0.5-0.1c-0.6-0.1-0.3-0.9-1.4-1.1c0.3,0,0.4-0.2,0.4-0.3c-0.3,0.2-0.5-0.4-1.5-0.4
		C33,3.5,32.7,3.2,32.3,3c0.1,0.3,0,0.5-0.1,0.7l-3-3c-0.1-0.1-0.1-0.1-0.2-0.1c0,0,0,0.1,0,0.1l2.6,3.2c-0.2,0.1-0.4,0.1-0.6,0.2
		c-0.1,0-0.2,0.2-0.2,0.3c-0.5,0.2-0.9,0.5-1.1,0.7c-0.2,0.1-0.3,0.2-0.1,0.5c0.1,0.1-0.1,0.4,0.3,0.2c0.2-0.1,0.8-0.5,0.9-0.3
		c0,0.1-0.2,0.2-0.4,0.3C30.2,6.2,30,6.3,30,6.4c0,0.1,0.2,0,0.2,0.1c0,0.1,0.1,0.2,0.1,0.2c0.1,0,0.2-0.2,0.2-0.1
		c0.1,0.1,0,0.4-0.1,0.5c0.3,0,0.5-0.3,0.5-0.5c0-0.2,0.1-0.3,0.1-0.3c0,0,0.1,0.2,0,0.4c0.2,0,0.3-0.2,0.3-0.6
		c0.1-0.1,0.2-0.1,0.2-0.1c0.1,0,0.3,0.3,0.6,0.3c0.5,0,0.8-0.4,0.8-0.6c0-0.2,0-0.3-0.1-0.4c0.2,0.1,0.2,0.4,0.2,0.6
		c0,0.7-1.3,1.1-1.8,1.6c0,0,0,0-0.1,0.1L30.7,7l0,0.1c0,0,0,0,0,0.1c-0.1,0.2-0.2,0.6-0.3,0.9l0,0.1l0.1,0c-0.4,0.5-0.6,1-0.7,1.6
		c-0.1-0.1-0.3-0.3-0.4-0.4c0-0.1,0-0.1,0-0.2c0-0.2,0-0.3-0.1-0.4c-0.1-0.1-0.2-0.1-0.3-0.1c-0.1,0-0.2,0-0.3,0.1c0,0,0,0-0.1,0.1
		c0,0,0,0-0.1,0c-0.2-0.2-0.4-0.3-0.6-0.5c-0.1-0.1-0.1-0.1-0.3-0.1c-0.1,0-0.2,0-0.3,0c-0.1,0-0.1,0.1-0.2,0.2c0,0-0.2,0.1-0.3,0.3
		c0.1,0.1,0.1,0.2,0.2,0.2C27,8.9,27,9,27.1,9c0,0,0.1-0.1,0.1-0.1c0.1-0.1,0.1-0.1,0.2-0.1c0.1,0,0.2,0.1,0.3,0.2
		c0.1,0.1,0.5,0.7,0.9,1.2c0,0-0.1,0-0.1,0c-0.2,0.1-0.6,0.1-0.7,0c-0.2,0-0.2-0.1-0.3,0.1c0,0.1-0.1,0.2-0.2,0.2
		c-0.1,0.1-0.1,0.2,0,0.4c0.2,0.3,0.6,1.1,0.8,1.4c0.1,0.4,0.3,0.4,0.6,0.5c0.3,0.1,0.8,0.4,0.8,0.5l0-0.3c-0.1-0.1-0.4-0.2-0.5-0.2
		c-0.1,0-0.1-0.1,0-0.1c0.1,0,0.5,0.1,0.7,0.2c-0.1-0.3-0.3-0.6-0.5-0.7c-0.2-0.1-0.4-0.1-0.5,0c0,0.1,0,0.1-0.1,0.1
		c-0.1,0-0.1-0.1-0.1-0.1c0-0.1,0.1-0.1,0.1-0.3c0-0.2-0.2-0.2-0.3-0.2c-0.2-0.2-0.4-0.6-0.5-0.8c-0.1-0.1,0-0.2,0-0.3
		c0.1-0.1,0.5,0.1,1.1,0.1c0.2,0,0.5,0,0.8,0c0.1,0.7,0.4,1.4,1.4,1.6c0.5,0.1,1,0.5,1.2,0.9c-2,0-2.3,0.7-2.3,1.5
		c0,0.8,0.7,0.8,0.7,1.4c0,0.5-1.7,0.8-2.2,0.8c-0.4,0.1-0.7,0.2-0.9,0.4c-0.2,0.2-0.4,0.4-0.8,0.8c0,0,0.2,0,0.3,0l0.3-0.4
		c0.1-0.1,0.1-0.2,0.2-0.2c0.1,0,0,0.1,0,0.2l-0.2,0.4c1,0.1,1-0.3,1-0.4c0-0.1-0.2-0.2-0.1-0.3c0.1-0.1,0.3,0,0.4,0.1
		c0.1,0.1,0.1,0.2,0.4,0.1c0,0,2.1-0.9,2.4-1c0.2-0.1,0.2-0.2,0-0.3c-0.2-0.1-0.2-0.3-0.2-0.6c0-0.6,0.4-0.8,1.1-0.8
		c0,0.1,0,0.2,0,0.3c0,1,1.5,2,1.9,2c0.2,0,0.4-0.1,0.4,0.5c0,0.4,0.1,0.8,0,1.3c-0.1,0.5-0.2,0.6-0.5,0.8c-0.3,0.2-0.6,0.9-0.7,1
		c0.1,0.1,0.3,0.1,0.4-0.2c0.1-0.3,0.2-0.5,0.3-0.5c-0.1,0.3-0.2,0.7-0.3,0.9c0.4,0.1,1-0.3,1-0.6c0-0.3-0.2-0.3-0.2-0.4
		c0-0.1,0.1-0.2,0.2-0.2c0.2,0,0.3,0.1,0.3,0.2c0.2-0.1,0.3-0.3,0.3-0.7c0-0.2,0-0.3,0-0.5c0,0,0,0,0,0.1c0.1,0.1,0.2,0.2,0.4,0.2
		c0.1,0,0.3,0,0.4-0.1c0.2-0.1,0.3-0.2,0.3-0.4c0,0,0-0.1,0-0.1c0-0.1,0-0.2-0.1-0.2c-0.1-0.1-0.2-0.2-0.3-0.2c-0.2,0-0.3,0-0.5,0.1
		c-0.1,0.1-0.2,0.2-0.3,0.4c0-0.5-0.1-1.1-0.1-1.3c0-0.3,0-0.4-0.1-0.5c-0.1,0-0.2,0.1-0.4,0.1c-0.1,0-0.6-0.4-0.6-0.8
		c0-0.4,0.5-1,0.4-1.6c0-0.2,0.1-0.3,0.2-0.1c0.1,0.2,0.2,0.5,0.4,0.7c-0.1,0.7,0.7,1.5,1.4,0.9c-0.3,0-0.6-0.2-0.7-0.5
		c0.1,0,0.1,0,0.2,0c0,0,0.1,0,0.1,0c0.2,0.3,1,0.3,1.2-0.5c-0.1,0.2-0.4,0.3-0.6,0.2c0.3-0.2,0.4-0.6,0.4-1c0-1.9-2.3-2.1-2.3-3.8
		c0-0.6,0.6-1.1,0.9-1.1c0.1,0,0.3,0,0.4,0.1c-0.1,0.2-0.2,0.4-0.2,0.7c0.1,1.4,2.3,1.3,2.3,2C38.7,11.3,37.1,11.6,37,10.3"/>
	<rect y="0" class="st0" width="1.5" height="63.7"/>
	<g>
		<path class="st0" d="M11.7,32v5.7h7V32h1.8v13.3h-1.8v-6.1h-7v6.1H9.9V32H11.7z"/>
		<path class="st0" d="M25.5,32l4.2,11.2L33.9,32h2.4v13.3h-1.7V34.3h0l-4.2,11.1h-1.5l-4.2-11.1h0v11.1h-1.7V32H25.5z"/>
		<path class="st0" d="M49.6,32c1.3,0,2.4,0.3,3,1c0.7,0.7,1,1.7,1,2.9c0,1.2-0.3,2.2-1,2.9c-0.7,0.7-1.7,1-3,1h-4.1v5.4h-1.8V32
			H49.6z M49,38.4c1,0,1.7-0.2,2.2-0.6c0.5-0.4,0.7-1,0.7-1.8c0-0.8-0.2-1.4-0.7-1.8c-0.5-0.4-1.2-0.6-2.2-0.6h-3.5v4.9H49z"/>
		<path class="st0" d="M56.7,35.7v2h0c0.4-0.8,0.9-1.4,1.4-1.7c0.6-0.4,1.3-0.5,2.1-0.5v1.7c-0.6,0-1.2,0.1-1.6,0.3
			c-0.4,0.2-0.8,0.4-1.1,0.8c-0.3,0.3-0.5,0.7-0.6,1.2c-0.1,0.5-0.2,1-0.2,1.6v4.3h-1.6v-9.6H56.7z"/>
		<path class="st0" d="M61.2,34V32h1.6V34H61.2z M62.8,35.7v9.6h-1.6v-9.6H62.8z"/>
		<path class="st0" d="M66.1,43.2c0.1,0.2,0.3,0.4,0.6,0.6c0.2,0.1,0.5,0.2,0.8,0.3c0.3,0.1,0.6,0.1,0.9,0.1c0.2,0,0.5,0,0.8-0.1
			c0.3,0,0.5-0.1,0.8-0.2c0.2-0.1,0.4-0.2,0.6-0.4c0.1-0.2,0.2-0.4,0.2-0.7c0-0.4-0.2-0.7-0.5-0.9c-0.3-0.2-0.7-0.4-1.2-0.5
			c-0.5-0.1-1-0.2-1.5-0.4c-0.5-0.1-1.1-0.3-1.5-0.4c-0.5-0.2-0.9-0.5-1.2-0.8c-0.3-0.3-0.5-0.8-0.5-1.5c0-0.5,0.1-0.9,0.3-1.2
			c0.2-0.3,0.5-0.6,0.8-0.8c0.3-0.2,0.7-0.4,1.2-0.5c0.4-0.1,0.9-0.2,1.3-0.2c0.5,0,1,0,1.5,0.1c0.5,0.1,0.9,0.3,1.2,0.5
			c0.4,0.2,0.6,0.5,0.8,0.9c0.2,0.4,0.3,0.9,0.4,1.5h-1.6c0-0.3-0.1-0.6-0.2-0.8c-0.1-0.2-0.3-0.4-0.5-0.5C69.5,37.1,69.2,37,69,37
			c-0.3-0.1-0.5-0.1-0.8-0.1c-0.2,0-0.5,0-0.7,0.1c-0.2,0-0.5,0.1-0.7,0.2c-0.2,0.1-0.4,0.2-0.5,0.4c-0.1,0.2-0.2,0.4-0.2,0.6
			c0,0.3,0.1,0.5,0.3,0.7c0.2,0.2,0.4,0.3,0.7,0.4c0.3,0.1,0.6,0.2,1,0.3c0.4,0.1,0.7,0.2,1.1,0.3c0.4,0.1,0.8,0.2,1.2,0.3
			c0.4,0.1,0.7,0.3,1,0.5c0.3,0.2,0.5,0.5,0.7,0.8s0.3,0.7,0.3,1.2c0,0.6-0.1,1.1-0.4,1.5c-0.2,0.4-0.6,0.7-0.9,0.9
			c-0.4,0.2-0.8,0.4-1.3,0.5c-0.5,0.1-1,0.1-1.5,0.1c-0.5,0-1-0.1-1.5-0.2c-0.5-0.1-0.9-0.3-1.3-0.5c-0.4-0.3-0.7-0.6-0.9-1
			c-0.2-0.4-0.3-0.9-0.4-1.5h1.6C65.9,42.6,65.9,42.9,66.1,43.2z"/>
		<path class="st0" d="M73.6,38.5c0.2-0.6,0.5-1.1,0.9-1.6c0.4-0.5,0.9-0.8,1.5-1.1c0.6-0.3,1.3-0.4,2-0.4c0.8,0,1.4,0.1,2,0.4
			c0.6,0.3,1.1,0.6,1.5,1.1c0.4,0.5,0.7,1,0.9,1.6c0.2,0.6,0.3,1.3,0.3,2c0,0.7-0.1,1.4-0.3,2c-0.2,0.6-0.5,1.1-0.9,1.6
			c-0.4,0.5-0.9,0.8-1.5,1.1c-0.6,0.3-1.3,0.4-2,0.4c-0.8,0-1.4-0.1-2-0.4c-0.6-0.3-1.1-0.6-1.5-1.1c-0.4-0.5-0.7-1-0.9-1.6
			c-0.2-0.6-0.3-1.3-0.3-2C73.3,39.8,73.4,39.2,73.6,38.5z M75.2,42.1c0.2,0.5,0.4,0.8,0.6,1.1c0.3,0.3,0.6,0.5,1,0.7
			c0.4,0.2,0.8,0.2,1.2,0.2c0.4,0,0.8-0.1,1.2-0.2c0.4-0.2,0.7-0.4,1-0.7c0.3-0.3,0.5-0.7,0.6-1.1c0.2-0.5,0.2-1,0.2-1.6
			c0-0.6-0.1-1.1-0.2-1.6c-0.2-0.5-0.4-0.8-0.6-1.1c-0.3-0.3-0.6-0.5-1-0.7c-0.4-0.2-0.8-0.2-1.2-0.2c-0.4,0-0.8,0.1-1.2,0.2
			c-0.4,0.2-0.7,0.4-1,0.7c-0.3,0.3-0.5,0.7-0.6,1.1c-0.2,0.5-0.2,1-0.2,1.6C75,41.1,75.1,41.6,75.2,42.1z"/>
		<path class="st0" d="M85.7,35.7v1.5h0c0.7-1.2,1.7-1.7,3.1-1.7c0.6,0,1.2,0.1,1.6,0.3c0.4,0.2,0.8,0.4,1,0.7
			c0.3,0.3,0.4,0.7,0.6,1.1c0.1,0.4,0.2,0.9,0.2,1.4v6.3h-1.6v-6.5c0-0.6-0.2-1.1-0.5-1.4c-0.3-0.3-0.8-0.5-1.4-0.5
			c-0.5,0-0.9,0.1-1.3,0.2c-0.4,0.1-0.7,0.4-0.9,0.6c-0.2,0.3-0.4,0.6-0.5,1c-0.1,0.4-0.2,0.8-0.2,1.2v5.4h-1.6v-9.6H85.7z"/>
		<path class="st0" d="M104.8,45.1c-0.7,0.3-1.4,0.5-2.1,0.5c-0.9,0-1.6-0.1-2.2-0.4c-0.5-0.3-1-0.6-1.3-1c-0.3-0.4-0.5-0.8-0.6-1.2
			c-0.1-0.4-0.1-0.8-0.1-1c0-0.5,0.1-1,0.3-1.4s0.4-0.8,0.7-1.1c0.3-0.3,0.6-0.6,1-0.9c0.4-0.3,0.8-0.5,1.2-0.7
			c-0.2-0.3-0.4-0.5-0.5-0.7c-0.2-0.2-0.3-0.5-0.5-0.7c-0.1-0.2-0.3-0.5-0.3-0.8c-0.1-0.3-0.1-0.6-0.1-0.9c0-0.4,0.1-0.7,0.2-1
			c0.1-0.3,0.3-0.6,0.6-0.9c0.3-0.3,0.6-0.5,0.9-0.6c0.4-0.1,0.8-0.2,1.3-0.2c0.4,0,0.8,0.1,1.2,0.2s0.7,0.3,1,0.5
			c0.3,0.2,0.5,0.5,0.7,0.9c0.2,0.3,0.3,0.7,0.3,1.2c0,0.4-0.1,0.8-0.2,1.1c-0.1,0.3-0.3,0.7-0.6,0.9c-0.2,0.3-0.5,0.5-0.8,0.8
			c-0.3,0.2-0.6,0.4-0.9,0.6l2.4,2.9c0.2-0.7,0.4-1.4,0.4-2.1h1.5c0,0.4-0.1,0.7-0.1,1c0,0.3-0.1,0.5-0.2,0.8
			c-0.1,0.2-0.2,0.5-0.3,0.7c-0.1,0.2-0.2,0.5-0.4,0.8l2.6,3h-2.1l-1.4-1.7C106,44.3,105.5,44.8,104.8,45.1z M101.6,39.4
			c-0.3,0.2-0.5,0.4-0.7,0.6c-0.2,0.2-0.4,0.5-0.5,0.8c-0.1,0.3-0.2,0.6-0.2,1c0,0.3,0.1,0.6,0.2,0.9c0.1,0.3,0.3,0.5,0.6,0.7
			c0.2,0.2,0.5,0.3,0.8,0.5c0.3,0.1,0.6,0.2,0.9,0.2c0.6,0,1.2-0.1,1.6-0.4c0.5-0.3,0.9-0.7,1.2-1.2l-3.1-3.7
			C102.2,39.1,101.9,39.3,101.6,39.4z M103.6,36.7c0.2-0.1,0.4-0.3,0.6-0.5c0.2-0.2,0.3-0.4,0.4-0.6c0.1-0.2,0.2-0.5,0.2-0.8
			c0-0.4-0.1-0.7-0.4-1c-0.3-0.3-0.6-0.4-1.1-0.4c-0.4,0-0.7,0.1-1,0.3c-0.3,0.2-0.5,0.6-0.5,1.1c0,0.2,0,0.4,0.1,0.6
			c0.1,0.2,0.2,0.4,0.3,0.6s0.3,0.4,0.4,0.6c0.1,0.2,0.3,0.4,0.4,0.6C103.2,37,103.4,36.9,103.6,36.7z"/>
		<path class="st0" d="M15.8,50.4c1.3,0,2.4,0.3,3,1c0.7,0.7,1,1.7,1,2.9c0,1.2-0.3,2.2-1,2.9c-0.7,0.7-1.7,1-3,1h-4.1v5.4H9.9V50.4
			H15.8z M15.2,56.8c1,0,1.7-0.2,2.2-0.6c0.5-0.4,0.7-1,0.7-1.8c0-0.8-0.2-1.4-0.7-1.8c-0.5-0.4-1.2-0.6-2.2-0.6h-3.5v4.9H15.2z"/>
		<path class="st0" d="M22.8,54.1v2h0c0.4-0.8,0.9-1.4,1.4-1.7c0.6-0.4,1.3-0.5,2.1-0.5v1.7c-0.6,0-1.2,0.1-1.6,0.3
			c-0.4,0.2-0.8,0.4-1.1,0.8c-0.3,0.3-0.5,0.7-0.6,1.2c-0.1,0.5-0.2,1-0.2,1.6v4.3h-1.6v-9.6H22.8z"/>
		<path class="st0" d="M26.7,56.9c0.2-0.6,0.5-1.1,0.9-1.6c0.4-0.5,0.9-0.8,1.5-1.1c0.6-0.3,1.3-0.4,2-0.4c0.8,0,1.4,0.1,2,0.4
			c0.6,0.3,1.1,0.6,1.5,1.1c0.4,0.5,0.7,1,0.9,1.6c0.2,0.6,0.3,1.3,0.3,2c0,0.7-0.1,1.4-0.3,2c-0.2,0.6-0.5,1.1-0.9,1.6
			c-0.4,0.5-0.9,0.8-1.5,1.1c-0.6,0.3-1.3,0.4-2,0.4c-0.8,0-1.4-0.1-2-0.4c-0.6-0.3-1.1-0.6-1.5-1.1c-0.4-0.5-0.7-1-0.9-1.6
			c-0.2-0.6-0.3-1.3-0.3-2C26.4,58.2,26.5,57.5,26.7,56.9z M28.3,60.5c0.2,0.5,0.4,0.8,0.6,1.1c0.3,0.3,0.6,0.5,1,0.7
			c0.4,0.2,0.8,0.2,1.2,0.2c0.4,0,0.8-0.1,1.2-0.2c0.4-0.2,0.7-0.4,1-0.7c0.3-0.3,0.5-0.7,0.6-1.1c0.2-0.5,0.2-1,0.2-1.6
			c0-0.6-0.1-1.1-0.2-1.6c-0.2-0.5-0.4-0.8-0.6-1.1c-0.3-0.3-0.6-0.5-1-0.7c-0.4-0.2-0.8-0.2-1.2-0.2c-0.4,0-0.8,0.1-1.2,0.2
			c-0.4,0.2-0.7,0.4-1,0.7c-0.3,0.3-0.5,0.7-0.6,1.1c-0.2,0.5-0.2,1-0.2,1.6C28.1,59.5,28.2,60,28.3,60.5z"/>
		<path class="st0" d="M38.9,50.4v5h0c0.3-0.5,0.7-0.9,1.2-1.2c0.6-0.2,1.2-0.4,1.8-0.4c0.7,0,1.4,0.1,1.9,0.4
			c0.6,0.3,1,0.6,1.4,1.1c0.4,0.5,0.6,1,0.8,1.6c0.2,0.6,0.3,1.3,0.3,1.9c0,0.7-0.1,1.3-0.3,1.9c-0.2,0.6-0.5,1.1-0.8,1.6
			c-0.4,0.5-0.8,0.8-1.4,1.1c-0.6,0.3-1.2,0.4-1.9,0.4c-0.2,0-0.5,0-0.8-0.1c-0.3,0-0.6-0.1-0.9-0.2s-0.6-0.3-0.8-0.5
			c-0.3-0.2-0.5-0.4-0.6-0.7h0v1.3h-1.6V50.4H38.9z M44.6,57.5c-0.1-0.4-0.3-0.8-0.5-1.1c-0.2-0.3-0.6-0.6-0.9-0.8
			c-0.4-0.2-0.8-0.3-1.3-0.3c-0.5,0-1,0.1-1.4,0.3c-0.4,0.2-0.7,0.5-0.9,0.8c-0.2,0.3-0.4,0.7-0.5,1.2c-0.1,0.4-0.2,0.9-0.2,1.3
			c0,0.5,0.1,0.9,0.2,1.4c0.1,0.4,0.3,0.8,0.5,1.2c0.2,0.3,0.6,0.6,0.9,0.8c0.4,0.2,0.8,0.3,1.4,0.3s1-0.1,1.4-0.3
			c0.4-0.2,0.7-0.5,0.9-0.8c0.2-0.3,0.4-0.7,0.5-1.2c0.1-0.4,0.1-0.9,0.1-1.4C44.8,58.4,44.7,57.9,44.6,57.5z"/>
		<path class="st0" d="M56.5,63.7c-0.3,0.2-0.7,0.2-1.1,0.2c-0.4,0-0.7-0.1-1-0.3C54.2,63.3,54,63,54,62.4c-0.4,0.5-0.9,0.9-1.5,1.1
			c-0.6,0.2-1.2,0.3-1.9,0.3c-0.4,0-0.8,0-1.2-0.1c-0.4-0.1-0.7-0.3-1-0.5c-0.3-0.2-0.5-0.5-0.7-0.8c-0.2-0.3-0.3-0.8-0.3-1.2
			c0-0.5,0.1-1,0.3-1.3c0.2-0.3,0.4-0.6,0.7-0.8c0.3-0.2,0.7-0.4,1-0.5s0.8-0.2,1.2-0.3c0.4-0.1,0.8-0.2,1.2-0.2
			c0.4,0,0.7-0.1,1-0.2s0.5-0.2,0.7-0.4c0.2-0.2,0.3-0.4,0.3-0.7c0-0.3-0.1-0.6-0.2-0.8c-0.1-0.2-0.3-0.4-0.5-0.5
			c-0.2-0.1-0.4-0.2-0.7-0.2c-0.3,0-0.5-0.1-0.8-0.1c-0.7,0-1.2,0.1-1.7,0.4c-0.4,0.3-0.7,0.7-0.7,1.4h-1.6c0-0.6,0.1-1.1,0.4-1.5
			c0.2-0.4,0.5-0.7,0.9-1c0.4-0.3,0.8-0.4,1.3-0.5c0.5-0.1,1-0.2,1.5-0.2c0.4,0,0.9,0,1.3,0.1c0.4,0.1,0.8,0.2,1.2,0.4
			c0.3,0.2,0.6,0.5,0.8,0.8c0.2,0.3,0.3,0.8,0.3,1.4v4.9c0,0.4,0,0.6,0.1,0.8c0,0.2,0.2,0.3,0.4,0.3c0.1,0,0.3,0,0.5-0.1V63.7z
			 M53.9,58.7c-0.2,0.1-0.5,0.3-0.8,0.3c-0.3,0.1-0.7,0.1-1,0.2c-0.4,0-0.7,0.1-1.1,0.1c-0.4,0.1-0.7,0.1-1,0.3
			c-0.3,0.1-0.5,0.3-0.7,0.5c-0.2,0.2-0.3,0.5-0.3,0.9c0,0.3,0.1,0.5,0.2,0.7c0.1,0.2,0.2,0.3,0.4,0.4c0.2,0.1,0.4,0.2,0.6,0.2
			c0.2,0,0.5,0.1,0.7,0.1c0.5,0,1-0.1,1.3-0.2c0.4-0.1,0.7-0.3,0.9-0.5c0.2-0.2,0.4-0.5,0.5-0.7c0.1-0.3,0.2-0.5,0.2-0.7V58.7z"/>
		<path class="st0" d="M61.8,54.1v1.4h-1.9v6c0,0.2,0,0.3,0,0.4c0,0.1,0.1,0.2,0.2,0.3c0.1,0.1,0.2,0.1,0.4,0.1c0.2,0,0.4,0,0.6,0
			h0.7v1.4h-1.2c-0.4,0-0.8,0-1.1-0.1s-0.5-0.2-0.7-0.3c-0.2-0.1-0.3-0.4-0.4-0.6c-0.1-0.3-0.1-0.6-0.1-1.1v-6.1h-1.6v-1.4h1.6v-2.9
			h1.6v2.9H61.8z"/>
		<path class="st0" d="M63.3,52.3v-1.9h1.6v1.9H63.3z M64.9,54.1v9.6h-1.6v-9.6H64.9z"/>
		<path class="st0" d="M66.8,56.9c0.2-0.6,0.5-1.1,0.9-1.6c0.4-0.5,0.9-0.8,1.5-1.1c0.6-0.3,1.3-0.4,2-0.4c0.8,0,1.4,0.1,2,0.4
			c0.6,0.3,1.1,0.6,1.5,1.1c0.4,0.5,0.7,1,0.9,1.6c0.2,0.6,0.3,1.3,0.3,2c0,0.7-0.1,1.4-0.3,2c-0.2,0.6-0.5,1.1-0.9,1.6
			c-0.4,0.5-0.9,0.8-1.5,1.1c-0.6,0.3-1.3,0.4-2,0.4c-0.8,0-1.4-0.1-2-0.4c-0.6-0.3-1.1-0.6-1.5-1.1c-0.4-0.5-0.7-1-0.9-1.6
			c-0.2-0.6-0.3-1.3-0.3-2C66.5,58.2,66.6,57.5,66.8,56.9z M68.4,60.5c0.2,0.5,0.4,0.8,0.6,1.1c0.3,0.3,0.6,0.5,1,0.7
			c0.4,0.2,0.8,0.2,1.2,0.2c0.4,0,0.8-0.1,1.2-0.2c0.4-0.2,0.7-0.4,1-0.7c0.3-0.3,0.5-0.7,0.6-1.1c0.2-0.5,0.2-1,0.2-1.6
			c0-0.6-0.1-1.1-0.2-1.6c-0.2-0.5-0.4-0.8-0.6-1.1c-0.3-0.3-0.6-0.5-1-0.7c-0.4-0.2-0.8-0.2-1.2-0.2c-0.4,0-0.8,0.1-1.2,0.2
			c-0.4,0.2-0.7,0.4-1,0.7c-0.3,0.3-0.5,0.7-0.6,1.1c-0.2,0.5-0.2,1-0.2,1.6C68.1,59.5,68.2,60,68.4,60.5z"/>
		<path class="st0" d="M78.8,54.1v1.5h0c0.7-1.2,1.7-1.7,3.1-1.7c0.6,0,1.2,0.1,1.6,0.3c0.4,0.2,0.8,0.4,1,0.7
			c0.3,0.3,0.4,0.7,0.6,1.1c0.1,0.4,0.2,0.9,0.2,1.4v6.3h-1.6v-6.5c0-0.6-0.2-1.1-0.5-1.4c-0.3-0.3-0.8-0.5-1.4-0.5
			c-0.5,0-0.9,0.1-1.3,0.2c-0.4,0.1-0.7,0.4-0.9,0.6c-0.2,0.3-0.4,0.6-0.5,1s-0.2,0.8-0.2,1.2v5.4h-1.6v-9.6H78.8z"/>
		<path class="st0" d="M99.1,52.2c-0.6-0.4-1.3-0.6-2.3-0.6c-0.4,0-0.7,0-1.1,0.1c-0.4,0.1-0.7,0.2-1,0.4c-0.3,0.2-0.5,0.4-0.7,0.7
			c-0.2,0.3-0.3,0.7-0.3,1.1c0,0.4,0.1,0.7,0.4,1c0.2,0.3,0.6,0.5,1,0.6c0.4,0.2,0.9,0.3,1.4,0.4c0.5,0.1,1,0.2,1.6,0.3
			c0.5,0.1,1,0.3,1.6,0.4s1,0.4,1.4,0.7c0.4,0.3,0.7,0.6,1,1.1c0.2,0.4,0.4,1,0.4,1.6c0,0.7-0.2,1.3-0.5,1.8
			c-0.3,0.5-0.7,0.9-1.2,1.2c-0.5,0.3-1.1,0.5-1.7,0.7c-0.6,0.1-1.2,0.2-1.8,0.2c-0.7,0-1.4-0.1-2.1-0.3c-0.7-0.2-1.2-0.5-1.7-0.8
			c-0.5-0.4-0.9-0.9-1.2-1.5c-0.3-0.6-0.4-1.3-0.4-2.1h1.7c0,0.6,0.1,1,0.3,1.4c0.2,0.4,0.5,0.7,0.9,1c0.4,0.3,0.8,0.5,1.2,0.6
			c0.5,0.1,1,0.2,1.5,0.2c0.4,0,0.8,0,1.2-0.1c0.4-0.1,0.8-0.2,1.1-0.4c0.3-0.2,0.6-0.4,0.8-0.7c0.2-0.3,0.3-0.7,0.3-1.2
			c0-0.5-0.1-0.8-0.4-1.1c-0.2-0.3-0.6-0.5-1-0.7c-0.4-0.2-0.9-0.3-1.4-0.4c-0.5-0.1-1-0.2-1.6-0.3c-0.5-0.1-1-0.3-1.6-0.4
			s-1-0.4-1.4-0.6c-0.4-0.3-0.7-0.6-1-1c-0.2-0.4-0.4-0.9-0.4-1.5c0-0.7,0.1-1.2,0.4-1.7c0.3-0.5,0.6-0.9,1.1-1.2
			c0.5-0.3,1-0.6,1.5-0.7c0.6-0.2,1.2-0.2,1.8-0.2c0.7,0,1.3,0.1,1.9,0.2c0.6,0.2,1.1,0.4,1.5,0.8c0.4,0.3,0.8,0.8,1,1.3
			c0.3,0.5,0.4,1.2,0.4,1.9h-1.7C100,53.3,99.7,52.7,99.1,52.2z"/>
		<path class="st0" d="M110.7,63.1c-0.7,0.5-1.6,0.8-2.7,0.8c-0.8,0-1.4-0.1-2-0.4c-0.6-0.2-1-0.6-1.4-1s-0.7-1-0.9-1.6
			c-0.2-0.6-0.3-1.3-0.3-2c0-0.7,0.1-1.4,0.3-2c0.2-0.6,0.5-1.1,0.9-1.6c0.4-0.4,0.9-0.8,1.4-1c0.6-0.2,1.2-0.4,1.8-0.4
			c0.9,0,1.6,0.2,2.1,0.5c0.6,0.4,1,0.8,1.4,1.3c0.3,0.5,0.6,1.1,0.7,1.8c0.1,0.6,0.2,1.3,0.2,1.8h-7.2c0,0.4,0,0.8,0.1,1.2
			c0.1,0.4,0.3,0.7,0.5,1c0.2,0.3,0.6,0.5,0.9,0.7c0.4,0.2,0.8,0.3,1.4,0.3c0.7,0,1.2-0.2,1.6-0.5c0.4-0.3,0.7-0.8,0.8-1.4h1.6
			C111.9,61.7,111.4,62.5,110.7,63.1z M110.3,56.9c-0.1-0.3-0.3-0.6-0.6-0.9c-0.2-0.2-0.5-0.4-0.9-0.6s-0.7-0.2-1.1-0.2
			c-0.4,0-0.8,0.1-1.1,0.2c-0.3,0.1-0.6,0.3-0.8,0.6c-0.2,0.2-0.4,0.5-0.6,0.9c-0.1,0.3-0.2,0.7-0.2,1.1h5.5
			C110.6,57.6,110.5,57.2,110.3,56.9z"/>
		<path class="st0" d="M115,54.1v2h0c0.4-0.8,0.9-1.4,1.4-1.7c0.6-0.4,1.3-0.5,2.1-0.5v1.7c-0.6,0-1.2,0.1-1.6,0.3
			c-0.4,0.2-0.8,0.4-1.1,0.8c-0.3,0.3-0.5,0.7-0.6,1.2c-0.1,0.5-0.2,1-0.2,1.6v4.3h-1.6v-9.6H115z"/>
		<path class="st0" d="M122.1,63.7l-3.6-9.6h1.8l2.7,8h0l2.6-8h1.7l-3.5,9.6H122.1z"/>
		<path class="st0" d="M128.5,52.3v-1.9h1.6v1.9H128.5z M130.1,54.1v9.6h-1.6v-9.6H130.1z"/>
		<path class="st0" d="M137.9,55.8c-0.4-0.3-0.9-0.5-1.6-0.5c-0.6,0-1,0.1-1.4,0.3c-0.4,0.2-0.7,0.5-0.9,0.8
			c-0.2,0.3-0.4,0.7-0.5,1.2c-0.1,0.5-0.1,0.9-0.1,1.4c0,0.4,0.1,0.9,0.2,1.3c0.1,0.4,0.3,0.8,0.5,1.1s0.5,0.6,0.9,0.8
			c0.4,0.2,0.8,0.3,1.3,0.3c0.8,0,1.4-0.2,1.8-0.6c0.4-0.4,0.7-1,0.8-1.7h1.6c-0.2,1.2-0.6,2.1-1.3,2.8c-0.7,0.6-1.7,1-2.9,1
			c-0.7,0-1.4-0.1-1.9-0.4c-0.6-0.2-1-0.6-1.4-1c-0.4-0.4-0.7-1-0.9-1.6c-0.2-0.6-0.3-1.3-0.3-2c0-0.7,0.1-1.4,0.3-2
			c0.2-0.6,0.5-1.2,0.8-1.6c0.4-0.5,0.9-0.8,1.4-1.1c0.6-0.3,1.2-0.4,2-0.4c0.5,0,1.1,0.1,1.5,0.2c0.5,0.1,0.9,0.3,1.3,0.6
			c0.4,0.3,0.7,0.6,0.9,1c0.2,0.4,0.4,0.9,0.4,1.5h-1.6C138.6,56.6,138.3,56.1,137.9,55.8z"/>
		<path class="st0" d="M148.7,63.1c-0.7,0.5-1.6,0.8-2.7,0.8c-0.8,0-1.4-0.1-2-0.4c-0.6-0.2-1-0.6-1.4-1c-0.4-0.4-0.7-1-0.9-1.6
			c-0.2-0.6-0.3-1.3-0.3-2c0-0.7,0.1-1.4,0.3-2c0.2-0.6,0.5-1.1,0.9-1.6c0.4-0.4,0.9-0.8,1.4-1c0.6-0.2,1.2-0.4,1.8-0.4
			c0.9,0,1.6,0.2,2.1,0.5c0.6,0.4,1,0.8,1.4,1.3c0.3,0.5,0.6,1.1,0.7,1.8c0.1,0.6,0.2,1.3,0.2,1.8H143c0,0.4,0,0.8,0.1,1.2
			c0.1,0.4,0.3,0.7,0.5,1c0.2,0.3,0.6,0.5,0.9,0.7c0.4,0.2,0.8,0.3,1.4,0.3c0.7,0,1.2-0.2,1.6-0.5c0.4-0.3,0.7-0.8,0.8-1.4h1.6
			C149.8,61.7,149.4,62.5,148.7,63.1z M148.3,56.9c-0.1-0.3-0.3-0.6-0.6-0.9c-0.2-0.2-0.5-0.4-0.9-0.6c-0.3-0.1-0.7-0.2-1.1-0.2
			c-0.4,0-0.8,0.1-1.1,0.2s-0.6,0.3-0.8,0.6s-0.4,0.5-0.6,0.9c-0.1,0.3-0.2,0.7-0.2,1.1h5.5C148.5,57.6,148.4,57.2,148.3,56.9z"/>
	</g>
</g>
</svg>
