<?xml version="1.0" encoding="utf-8"?>
<!-- Generator: Adobe Illustrator 22.0.1, SVG Export Plug-In . SVG Version: 6.00 Build 0)  -->
<svg version="1.1" id="Layer_1" xmlns="http://www.w3.org/2000/svg" xmlns:xlink="http://www.w3.org/1999/xlink" x="0px" y="0px"
	 viewBox="0 0 32.9 32.9" style="enable-background:new 0 0 32.9 32.9;" xml:space="preserve">
<style type="text/css">
	.st0{fill:none;}
</style>
<g>
	<g>
		<path class="st0" d="M11.7,21.2v-0.9c0-0.2,0.1-0.3,0.2-0.3l7.5-3.4c0.1,0,0.1-0.1,0-0.1L11.9,13c-0.1-0.1-0.2-0.2-0.2-0.3v-0.9
			c0-0.2,0.1-0.3,0.3-0.2l8.9,4.1c0.1,0.1,0.2,0.2,0.2,0.4v0.9c0,0.2-0.1,0.3-0.2,0.4l-8.9,4.1C11.9,21.5,11.7,21.4,11.7,21.2z"/>
	</g>
</g>
<g>
	<path class="st0" d="M4.5,0h24c2.5,0,4.5,2,4.5,4.5v24c0,2.5-2,4.5-4.5,4.5h-24c-2.5,0-4.5-2-4.5-4.5v-24C0,2,2,0,4.5,0z M28.5,32
		c2,0,3.5-1.6,3.5-3.5v-24c0-2-1.6-3.5-3.5-3.5h-24c-2,0-3.5,1.6-3.5,3.5v24c0,2,1.6,3.5,3.5,3.5H28.5z"/>
</g>
</svg>
