<?xml version="1.0" encoding="utf-8"?>
<!-- Generator: Adobe Illustrator 21.1.0, SVG Export Plug-In . SVG Version: 6.00 Build 0)  -->
<svg version="1.1" id="Layer_1" xmlns="http://www.w3.org/2000/svg" xmlns:xlink="http://www.w3.org/1999/xlink" x="0px" y="0px"
	 viewBox="0 0 37.1 24" style="enable-background:new 0 0 37.1 24;" xml:space="preserve">
<style type="text/css">
	/*.st0{fill:#FFFFFF;}*/
</style>
<g>
	<path class="st0" d="M0,13.8C0,7.2,3.6,0,15.3,0l0.4,4c-1.5,0.3-2.7,0.5-3.6,0.8C9.2,5.5,8.8,6.9,8.8,8v0.3c5,0,8.4,2.8,8.4,7.7
		c0,4.3-3.7,8-8.1,8C3.5,24,0,19.4,0,13.8z M19.9,13.8C19.9,7.2,23.6,0,35.2,0l0.4,4C34.2,4.2,33,4.5,32,4.7
		c-2.8,0.8-3.3,2.2-3.3,3.3v0.3c5,0,8.4,2.8,8.4,7.7c0,4.3-3.7,8-8.1,8C23.5,24,19.9,19.4,19.9,13.8z"/>
</g>
</svg>
