<?xml version="1.0" encoding="utf-8"?>
<!-- Generator: Adobe Illustrator 22.1.0, SVG Export Plug-In . SVG Version: 6.00 Build 0)  -->
<svg version="1.1" id="Layer_1" xmlns="http://www.w3.org/2000/svg" xmlns:xlink="http://www.w3.org/1999/xlink" x="0px" y="0px"
	 viewBox="0 0 100.2 42" style="enable-background:new 0 0 100.2 42;" xml:space="preserve">
<style>
	.st0{fill:#FFFFFF;}
</style>
<g>
	<g>
		<g>
			<polygon class="st0" points="34.2,0 34,0 21.8,42 22,42 40.1,42 52.4,0 			"/>
			<polygon class="st0" points="0,31.8 12.1,31.8 6.1,11 			"/>
			<g>
				<polygon class="st0" points="9.2,10.2 18.4,42 27.7,10.2 				"/>
			</g>
		</g>
		<g>
			<path class="st0" d="M64,13.4h-1.1V10l-3.3-5H61l2.5,4L66,5h1.3L64,10V13.4z"/>
			<path class="st0" d="M66.8,9.1c0.1-0.4,0.3-0.7,0.6-1c0.3-0.3,0.6-0.5,0.9-0.7c0.4-0.2,0.8-0.2,1.3-0.2s0.9,0.1,1.3,0.2
				c0.4,0.2,0.7,0.4,0.9,0.7c0.3,0.3,0.4,0.6,0.6,1c0.1,0.4,0.2,0.8,0.2,1.3s-0.1,0.9-0.2,1.3c-0.1,0.4-0.3,0.7-0.6,1
				c-0.3,0.3-0.6,0.5-0.9,0.7c-0.4,0.2-0.8,0.2-1.3,0.2s-0.9-0.1-1.3-0.2c-0.4-0.2-0.7-0.4-0.9-0.7c-0.3-0.3-0.4-0.6-0.6-1
				c-0.1-0.4-0.2-0.8-0.2-1.3C66.6,9.9,66.7,9.5,66.8,9.1z M67.8,11.4c0.1,0.3,0.2,0.5,0.4,0.7c0.2,0.2,0.4,0.3,0.6,0.4
				c0.2,0.1,0.5,0.2,0.7,0.2c0.3,0,0.5-0.1,0.7-0.2c0.2-0.1,0.4-0.3,0.6-0.4c0.2-0.2,0.3-0.4,0.4-0.7s0.1-0.6,0.1-1s0-0.7-0.1-1
				S71,8.9,70.8,8.7c-0.2-0.2-0.4-0.3-0.6-0.5C70,8.1,69.7,8,69.5,8c-0.3,0-0.5,0.1-0.7,0.2c-0.2,0.1-0.4,0.3-0.6,0.5
				s-0.3,0.4-0.4,0.7s-0.1,0.6-0.1,1C67.7,10.8,67.7,11.1,67.8,11.4z"/>
			<path class="st0" d="M78.1,13.4v-1l0,0c-0.2,0.4-0.5,0.7-0.8,0.8c-0.3,0.2-0.7,0.3-1.2,0.3c-0.4,0-0.7-0.1-1-0.2
				c-0.3-0.1-0.5-0.3-0.7-0.5s-0.3-0.4-0.3-0.7C74,12,74,11.7,74,11.3v-4h1v4.1c0,0.4,0.1,0.7,0.3,0.9c0.2,0.2,0.5,0.3,0.9,0.3
				c0.3,0,0.6,0,0.8-0.1c0.2-0.1,0.4-0.2,0.6-0.4c0.1-0.2,0.3-0.4,0.3-0.6C78,11.3,78,11,78,10.7V7.3h1v6.1H78.1z"/>
			<path class="st0" d="M83.4,7.3v0.9h-1.2V12c0,0.1,0,0.2,0,0.3s0.1,0.1,0.1,0.2c0.1,0,0.1,0.1,0.2,0.1s0.2,0,0.4,0h0.5v0.9h-0.8
				c-0.3,0-0.5,0-0.7-0.1c-0.2,0-0.3-0.1-0.5-0.2c-0.1-0.1-0.2-0.2-0.3-0.4C81,12.6,81,12.4,81,12.1V8.2h-1V7.3h1V5.5h1v1.8H83.4z"
				/>
			<path class="st0" d="M85.8,5v3.2l0,0C85.9,8,86,7.9,86.1,7.7c0.1-0.1,0.3-0.2,0.5-0.3c0.2-0.1,0.4-0.1,0.6-0.2
				c0.2,0,0.4-0.1,0.6-0.1c0.4,0,0.7,0.1,1,0.2s0.5,0.3,0.7,0.5s0.3,0.4,0.3,0.7c0.1,0.3,0.1,0.6,0.1,0.9v4h-1V9.3
				c0-0.4-0.1-0.7-0.3-0.9c-0.2-0.2-0.5-0.3-0.9-0.3c-0.3,0-0.6,0-0.8,0.1c-0.2,0.1-0.4,0.2-0.6,0.4S86,9,86,9.2
				c-0.1,0.2-0.1,0.5-0.1,0.8v3.5h-1V5H85.8z"/>
		</g>
		<g>
			<path class="st0" d="M60.4,18.8c-0.4-0.3-0.9-0.5-1.5-0.5c-0.5,0-0.9,0.1-1.3,0.3c-0.4,0.2-0.7,0.4-0.9,0.8s-0.4,0.7-0.5,1.1
				S56,21.4,56,21.8c0,0.5,0.1,0.9,0.2,1.4c0.1,0.4,0.3,0.8,0.5,1.1c0.2,0.3,0.5,0.6,0.9,0.8s0.8,0.3,1.3,0.3c0.4,0,0.7-0.1,1-0.2
				s0.5-0.3,0.7-0.5s0.4-0.5,0.5-0.8s0.2-0.6,0.2-1h1.1c-0.1,1.1-0.5,1.9-1.1,2.5s-1.5,0.9-2.6,0.9c-0.7,0-1.2-0.1-1.7-0.3
				c-0.5-0.2-0.9-0.5-1.2-0.9s-0.6-0.9-0.7-1.4c-0.2-0.5-0.2-1.1-0.2-1.7s0.1-1.2,0.3-1.7s0.4-1,0.8-1.4c0.3-0.4,0.8-0.7,1.3-1
				c0.5-0.2,1.1-0.3,1.7-0.3c0.4,0,0.9,0.1,1.3,0.2c0.4,0.1,0.7,0.3,1.1,0.5c0.3,0.2,0.6,0.5,0.8,0.9c0.2,0.3,0.3,0.7,0.4,1.2h-1.1
				C61.1,19.6,60.9,19.1,60.4,18.8z"/>
			<path class="st0" d="M68.1,26.1v-1l0,0c-0.2,0.4-0.5,0.7-0.8,0.8c-0.3,0.2-0.7,0.3-1.2,0.3c-0.4,0-0.7-0.1-1-0.2
				s-0.5-0.3-0.7-0.5s-0.3-0.4-0.3-0.7C64,24.5,64,24.2,64,23.9v-4h1V24c0,0.4,0.1,0.7,0.3,0.9c0.2,0.2,0.5,0.3,0.9,0.3
				c0.3,0,0.6,0,0.8-0.1c0.2-0.1,0.4-0.2,0.6-0.4c0.1-0.2,0.3-0.4,0.3-0.6C68,24,68,23.7,68,23.4V20h1v6.1H68.1z"/>
			<path class="st0" d="M71.5,24.7c0.1,0.2,0.2,0.3,0.4,0.4c0.2,0.1,0.3,0.2,0.5,0.2s0.4,0.1,0.6,0.1s0.3,0,0.5,0s0.3-0.1,0.5-0.1
				c0.1-0.1,0.3-0.2,0.4-0.3c0.1-0.1,0.1-0.3,0.1-0.5c0-0.3-0.1-0.5-0.3-0.6c-0.2-0.1-0.4-0.2-0.7-0.3c-0.3-0.1-0.6-0.2-1-0.2
				c-0.3-0.1-0.7-0.2-1-0.3c-0.3-0.1-0.5-0.3-0.7-0.5s-0.3-0.5-0.3-0.9c0-0.3,0.1-0.6,0.2-0.8c0.1-0.2,0.3-0.4,0.5-0.5
				s0.5-0.2,0.7-0.3c0.3-0.1,0.5-0.1,0.8-0.1s0.7,0,1,0.1s0.6,0.2,0.8,0.3s0.4,0.3,0.5,0.6c0.1,0.2,0.2,0.6,0.2,0.9h-1
				c0-0.2-0.1-0.4-0.2-0.5s-0.2-0.2-0.3-0.3c-0.1-0.1-0.3-0.1-0.4-0.2c-0.2,0-0.3-0.1-0.5-0.1s-0.3,0-0.5,0s-0.3,0.1-0.4,0.1
				c-0.1,0.1-0.2,0.1-0.3,0.2c-0.1,0.1-0.1,0.2-0.1,0.4c0,0.2,0.1,0.3,0.2,0.4s0.3,0.2,0.5,0.3c0.2,0.1,0.4,0.1,0.6,0.2
				s0.5,0.1,0.7,0.2c0.3,0.1,0.5,0.1,0.7,0.2s0.5,0.2,0.6,0.3c0.2,0.1,0.3,0.3,0.5,0.5c0.1,0.2,0.2,0.4,0.2,0.7
				c0,0.4-0.1,0.7-0.2,0.9c-0.2,0.2-0.4,0.4-0.6,0.6s-0.5,0.3-0.8,0.3c-0.3,0.1-0.6,0.1-0.9,0.1s-0.7,0-1-0.1s-0.6-0.2-0.8-0.3
				c-0.2-0.2-0.4-0.4-0.6-0.6c-0.1-0.3-0.2-0.6-0.2-1h1C71.4,24.4,71.4,24.6,71.5,24.7z"/>
			<path class="st0" d="M79.5,20v0.9h-1.2v3.8c0,0.1,0,0.2,0,0.3c0,0.1,0.1,0.1,0.1,0.2c0.1,0,0.1,0.1,0.2,0.1s0.2,0,0.4,0h0.5v0.9
				h-0.8c-0.3,0-0.5,0-0.7-0.1c-0.2,0-0.3-0.1-0.5-0.2c-0.1-0.1-0.2-0.2-0.3-0.4c-0.1-0.2-0.1-0.4-0.1-0.7v-3.9h-1V20h1v-1.8h1V20
				H79.5z"/>
			<path class="st0" d="M80.7,21.8c0.1-0.4,0.3-0.7,0.6-1c0.3-0.3,0.6-0.5,0.9-0.7c0.4-0.2,0.8-0.2,1.3-0.2s0.9,0.1,1.3,0.2
				c0.4,0.2,0.7,0.4,0.9,0.7c0.3,0.3,0.4,0.6,0.6,1c0.1,0.4,0.2,0.8,0.2,1.3s-0.1,0.9-0.2,1.3s-0.3,0.7-0.6,1
				c-0.3,0.3-0.6,0.5-0.9,0.7c-0.4,0.2-0.8,0.2-1.3,0.2s-0.9-0.1-1.3-0.2c-0.4-0.2-0.7-0.4-0.9-0.7c-0.3-0.3-0.4-0.6-0.6-1
				c-0.1-0.4-0.2-0.8-0.2-1.3C80.5,22.6,80.6,22.2,80.7,21.8z M81.7,24c0.1,0.3,0.2,0.5,0.4,0.7c0.2,0.2,0.4,0.3,0.6,0.4
				s0.5,0.2,0.7,0.2c0.3,0,0.5-0.1,0.7-0.2s0.4-0.3,0.6-0.4c0.2-0.2,0.3-0.4,0.4-0.7c0.1-0.3,0.1-0.6,0.1-1s0-0.7-0.1-1
				s-0.2-0.5-0.4-0.7c-0.2-0.2-0.4-0.3-0.6-0.5c-0.2-0.1-0.5-0.2-0.7-0.2c-0.3,0-0.5,0.1-0.7,0.2s-0.4,0.3-0.6,0.5s-0.3,0.4-0.4,0.7
				c-0.1,0.3-0.1,0.6-0.1,1S81.6,23.7,81.7,24z"/>
			<path class="st0" d="M92.3,26.1v-0.8l0,0c-0.2,0.3-0.4,0.6-0.8,0.7s-0.7,0.2-1.2,0.2s-0.9-0.1-1.2-0.3c-0.4-0.2-0.6-0.4-0.9-0.7
				c-0.2-0.3-0.4-0.6-0.5-1s-0.2-0.8-0.2-1.2c0-0.4,0.1-0.8,0.2-1.2c0.1-0.4,0.3-0.7,0.5-1s0.5-0.5,0.9-0.7s0.8-0.3,1.2-0.3
				c0.2,0,0.3,0,0.5,0s0.4,0.1,0.5,0.2c0.2,0.1,0.4,0.2,0.5,0.3c0.2,0.1,0.3,0.3,0.4,0.5l0,0v-3.2h1v8.5H92.3z M88.7,23.9
				c0.1,0.3,0.2,0.5,0.3,0.7c0.2,0.2,0.4,0.4,0.6,0.5s0.5,0.2,0.8,0.2s0.6-0.1,0.9-0.2c0.2-0.1,0.4-0.3,0.6-0.5s0.3-0.5,0.3-0.7
				c0.1-0.3,0.1-0.6,0.1-0.8c0-0.3,0-0.6-0.1-0.9s-0.2-0.5-0.3-0.7c-0.2-0.2-0.4-0.4-0.6-0.5s-0.5-0.2-0.9-0.2
				c-0.3,0-0.6,0.1-0.9,0.2c-0.2,0.1-0.4,0.3-0.6,0.5c-0.1,0.2-0.2,0.5-0.3,0.8c-0.1,0.3-0.1,0.6-0.1,0.9
				C88.6,23.4,88.7,23.7,88.7,23.9z"/>
			<path class="st0" d="M97.5,26.9c-0.1,0.3-0.2,0.6-0.3,0.8c-0.1,0.2-0.2,0.4-0.4,0.5c-0.1,0.1-0.3,0.2-0.5,0.3
				c-0.2,0.1-0.4,0.1-0.6,0.1c-0.1,0-0.2,0-0.4,0s-0.2,0-0.3-0.1v-0.9c0.1,0,0.2,0.1,0.3,0.1c0.1,0,0.2,0,0.3,0c0.2,0,0.4,0,0.5-0.1
				s0.2-0.2,0.3-0.4l0.4-1L94.5,20h1.1l1.8,5l0,0l1.7-5h1.1L97.5,26.9z"/>
		</g>
		<g>
			<path class="st0" d="M56,31.4c-0.4-0.3-0.9-0.4-1.4-0.4c-0.2,0-0.5,0-0.7,0.1c-0.2,0-0.4,0.1-0.6,0.2c-0.2,0.1-0.3,0.3-0.4,0.4
				c-0.1,0.2-0.2,0.4-0.2,0.7s0.1,0.5,0.2,0.6c0.2,0.2,0.4,0.3,0.6,0.4c0.3,0.1,0.5,0.2,0.9,0.3c0.3,0.1,0.7,0.1,1,0.2
				c0.3,0.1,0.7,0.2,1,0.3s0.6,0.3,0.9,0.4s0.5,0.4,0.6,0.7c0.2,0.3,0.2,0.6,0.2,1c0,0.5-0.1,0.8-0.3,1.2c-0.2,0.3-0.5,0.6-0.8,0.8
				s-0.7,0.3-1.1,0.4c-0.4,0.1-0.8,0.1-1.2,0.1c-0.5,0-0.9-0.1-1.3-0.2c-0.4-0.1-0.8-0.3-1.1-0.5s-0.6-0.5-0.8-0.9s-0.3-0.8-0.3-1.3
				h1.1c0,0.4,0.1,0.7,0.2,0.9c0.1,0.3,0.3,0.5,0.5,0.6c0.2,0.2,0.5,0.3,0.8,0.4c0.3,0.1,0.6,0.1,0.9,0.1c0.3,0,0.5,0,0.8-0.1
				c0.3,0,0.5-0.1,0.7-0.2c0.2-0.1,0.4-0.3,0.5-0.5s0.2-0.5,0.2-0.8s-0.1-0.5-0.2-0.7c-0.2-0.2-0.4-0.3-0.6-0.4
				c-0.3-0.1-0.5-0.2-0.9-0.3c-0.3-0.1-0.7-0.1-1-0.2c-0.3-0.1-0.7-0.2-1-0.3s-0.6-0.2-0.9-0.4c-0.3-0.2-0.5-0.4-0.6-0.6
				c-0.2-0.3-0.2-0.6-0.2-1s0.1-0.8,0.3-1.1c0.2-0.3,0.4-0.6,0.7-0.8c0.3-0.2,0.6-0.4,1-0.5s0.7-0.1,1.1-0.1c0.4,0,0.8,0.1,1.2,0.2
				s0.7,0.3,1,0.5s0.5,0.5,0.7,0.8s0.3,0.7,0.3,1.2h-1.1C56.6,32.2,56.4,31.7,56,31.4z"/>
			<path class="st0" d="M63.8,38.4c-0.5,0.3-1,0.5-1.7,0.5c-0.5,0-0.9-0.1-1.3-0.2c-0.4-0.2-0.7-0.4-0.9-0.7s-0.4-0.6-0.6-1
				s-0.2-0.8-0.2-1.3s0.1-0.9,0.2-1.3c0.1-0.4,0.3-0.7,0.6-1s0.6-0.5,0.9-0.7c0.4-0.2,0.7-0.2,1.2-0.2s1,0.1,1.4,0.3
				s0.6,0.5,0.9,0.9c0.2,0.3,0.4,0.7,0.5,1.1c0.1,0.4,0.1,0.8,0.1,1.2h-4.6c0,0.3,0,0.5,0.1,0.8c0.1,0.2,0.2,0.5,0.3,0.6
				c0.2,0.2,0.4,0.3,0.6,0.4c0.2,0.1,0.5,0.2,0.9,0.2s0.8-0.1,1-0.3c0.3-0.2,0.5-0.5,0.5-0.9h1C64.6,37.5,64.3,38,63.8,38.4z
				 M63.6,34.4c-0.1-0.2-0.2-0.4-0.4-0.6c-0.2-0.2-0.3-0.3-0.5-0.4c-0.2-0.1-0.4-0.1-0.7-0.1s-0.5,0-0.7,0.1s-0.4,0.2-0.5,0.4
				s-0.3,0.3-0.4,0.6c-0.1,0.2-0.1,0.4-0.2,0.7h3.5C63.7,34.9,63.7,34.6,63.6,34.4z"/>
			<path class="st0" d="M67,32.6v1.3l0,0c0.2-0.5,0.5-0.9,0.9-1.1c0.4-0.2,0.8-0.3,1.4-0.3v1.1c-0.4,0-0.7,0.1-1,0.2
				c-0.3,0.1-0.5,0.3-0.7,0.5s-0.3,0.5-0.4,0.8s-0.1,0.7-0.1,1v2.7h-1v-6.1H67V32.6z"/>
			<path class="st0" d="M71.9,38.8l-2.3-6.1h1.1l1.7,5.1l0,0l1.7-5.1h1.1L73,38.8H71.9z"/>
			<path class="st0" d="M76.5,31.5v-1.2h1v1.2H76.5z M77.5,32.6v6.1h-1v-6.1H77.5z"/>
			<path class="st0" d="M82.9,33.7c-0.3-0.2-0.6-0.3-1-0.3s-0.7,0.1-0.9,0.2c-0.2,0.1-0.4,0.3-0.6,0.5c-0.1,0.2-0.3,0.5-0.3,0.8
				C80,35.2,80,35.5,80,35.8s0,0.6,0.1,0.8c0.1,0.3,0.2,0.5,0.3,0.7c0.1,0.2,0.3,0.4,0.6,0.5c0.2,0.1,0.5,0.2,0.8,0.2
				c0.5,0,0.9-0.1,1.2-0.4c0.3-0.3,0.5-0.6,0.5-1.1h1c-0.1,0.8-0.4,1.3-0.8,1.8c-0.5,0.4-1.1,0.6-1.9,0.6c-0.5,0-0.9-0.1-1.2-0.2
				c-0.4-0.2-0.7-0.4-0.9-0.6c-0.2-0.3-0.4-0.6-0.5-1S79,36.3,79,35.8s0.1-0.9,0.2-1.3c0.1-0.4,0.3-0.7,0.5-1s0.5-0.5,0.9-0.7
				s0.8-0.3,1.3-0.3c0.3,0,0.7,0,1,0.1s0.6,0.2,0.8,0.4c0.2,0.2,0.4,0.4,0.6,0.7c0.1,0.3,0.2,0.6,0.3,0.9h-1
				C83.4,34.2,83.2,33.9,82.9,33.7z"/>
			<path class="st0" d="M90.2,38.4c-0.5,0.3-1,0.5-1.7,0.5c-0.5,0-0.9-0.1-1.3-0.2c-0.4-0.2-0.7-0.4-0.9-0.7c-0.2-0.3-0.4-0.6-0.6-1
				s-0.2-0.8-0.2-1.3s0.1-0.9,0.2-1.3c0.1-0.4,0.3-0.7,0.6-1c0.3-0.3,0.6-0.5,0.9-0.7c0.4-0.2,0.7-0.2,1.2-0.2s1,0.1,1.4,0.3
				s0.6,0.5,0.9,0.9c0.2,0.3,0.4,0.7,0.5,1.1c0.1,0.4,0.1,0.8,0.1,1.2h-4.6c0,0.3,0,0.5,0.1,0.8c0.1,0.2,0.2,0.5,0.3,0.6
				c0.2,0.2,0.4,0.3,0.6,0.4c0.2,0.1,0.5,0.2,0.9,0.2s0.8-0.1,1-0.3c0.3-0.2,0.5-0.5,0.5-0.9h1C91,37.5,90.7,38,90.2,38.4z M90,34.4
				c-0.1-0.2-0.2-0.4-0.4-0.6c-0.2-0.2-0.3-0.3-0.5-0.4c-0.2-0.1-0.4-0.1-0.7-0.1c-0.3,0-0.5,0-0.7,0.1s-0.4,0.2-0.5,0.4
				s-0.3,0.3-0.4,0.6c-0.1,0.2-0.1,0.4-0.2,0.7h3.5C90.1,34.9,90,34.6,90,34.4z"/>
		</g>
	</g>
</g>
</svg>
