<?xml version="1.0" encoding="utf-8"?>
<!-- Generator: Adobe Illustrator 22.0.1, SVG Export Plug-In . SVG Version: 6.00 Build 0)  -->
<svg version="1.1" id="Layer_1" xmlns="http://www.w3.org/2000/svg" xmlns:xlink="http://www.w3.org/1999/xlink" x="0px" y="0px"
	 viewBox="0 0 152.7 64" style="enable-background:new 0 0 152.7 64;" xml:space="preserve">
<style type="text/css">
	.st0{fill:#00A685;}
	.st1{fill:#80D2C2;}
	.st2{fill:#40BCA3;}
	.st3{fill:#FFFFFF;}
</style>
<g>
	<g>
		<polygon class="st0" points="52.2,0 51.9,0 33.2,64 33.5,64 61.1,64 79.8,0 		"/>
		<polygon class="st1" points="0,48.4 18.5,48.4 9.2,16.8 		"/>
		<g>
			<polygon class="st2" points="14,15.6 28.1,64 42.2,15.6 			"/>
		</g>
	</g>
	<g>
		<path class="st3" d="M97.5,20.5h-1.7v-5.3l-5-7.6h2l3.9,6.1l3.8-6.1h2l-4.9,7.6V20.5z"/>
		<path class="st3" d="M101.8,13.9c0.2-0.6,0.5-1.1,0.9-1.6c0.4-0.4,0.9-0.8,1.4-1c0.6-0.3,1.2-0.4,2-0.4c0.7,0,1.4,0.1,2,0.4
			c0.6,0.3,1,0.6,1.4,1c0.4,0.4,0.7,1,0.9,1.6c0.2,0.6,0.3,1.2,0.3,1.9c0,0.7-0.1,1.3-0.3,1.9c-0.2,0.6-0.5,1.1-0.9,1.5
			c-0.4,0.4-0.9,0.8-1.4,1c-0.6,0.2-1.2,0.4-2,0.4c-0.7,0-1.4-0.1-2-0.4c-0.6-0.2-1-0.6-1.4-1c-0.4-0.4-0.7-1-0.9-1.5
			c-0.2-0.6-0.3-1.2-0.3-1.9C101.5,15.1,101.6,14.5,101.8,13.9z M103.4,17.3c0.2,0.4,0.4,0.8,0.6,1.1c0.3,0.3,0.6,0.5,0.9,0.7
			c0.4,0.2,0.7,0.2,1.1,0.2c0.4,0,0.8-0.1,1.1-0.2c0.4-0.2,0.7-0.4,0.9-0.7c0.3-0.3,0.5-0.7,0.6-1.1c0.2-0.4,0.2-0.9,0.2-1.5
			c0-0.6-0.1-1.1-0.2-1.5c-0.2-0.4-0.4-0.8-0.6-1.1c-0.3-0.3-0.6-0.5-0.9-0.7c-0.4-0.2-0.7-0.2-1.1-0.2c-0.4,0-0.8,0.1-1.1,0.2
			c-0.4,0.2-0.7,0.4-0.9,0.7c-0.3,0.3-0.5,0.7-0.6,1.1c-0.2,0.4-0.2,0.9-0.2,1.5C103.1,16.4,103.2,16.9,103.4,17.3z"/>
		<path class="st3" d="M119,20.5V19h0c-0.3,0.6-0.7,1-1.2,1.3c-0.5,0.3-1.1,0.4-1.8,0.4c-0.6,0-1.1-0.1-1.5-0.2
			c-0.4-0.2-0.7-0.4-1-0.7c-0.3-0.3-0.4-0.7-0.5-1.1c-0.1-0.4-0.2-0.9-0.2-1.4v-6.1h1.5v6.3c0,0.6,0.2,1,0.5,1.4
			c0.3,0.3,0.8,0.5,1.4,0.5c0.5,0,0.9-0.1,1.2-0.2c0.3-0.1,0.6-0.3,0.9-0.6c0.2-0.3,0.4-0.6,0.5-0.9c0.1-0.4,0.2-0.7,0.2-1.2v-5.3
			h1.5v9.3H119z"/>
		<path class="st3" d="M127.1,11.2v1.4h-1.9v5.8c0,0.2,0,0.3,0,0.4c0,0.1,0.1,0.2,0.2,0.3c0.1,0.1,0.2,0.1,0.4,0.1
			c0.1,0,0.3,0,0.6,0h0.7v1.4h-1.2c-0.4,0-0.7,0-1-0.1c-0.3-0.1-0.5-0.2-0.7-0.3c-0.2-0.1-0.3-0.3-0.4-0.6c-0.1-0.3-0.1-0.6-0.1-1
			v-5.9h-1.6v-1.4h1.6V8.4h1.5v2.8H127.1z"/>
		<path class="st3" d="M130.7,7.6v4.9h0c0.1-0.3,0.3-0.5,0.5-0.7c0.2-0.2,0.5-0.4,0.7-0.5c0.3-0.1,0.6-0.2,0.8-0.3
			c0.3-0.1,0.6-0.1,0.9-0.1c0.6,0,1.1,0.1,1.5,0.3c0.4,0.2,0.7,0.4,1,0.7c0.3,0.3,0.4,0.7,0.5,1.1c0.1,0.4,0.2,0.9,0.2,1.4v6.1h-1.5
			v-6.3c0-0.6-0.2-1-0.5-1.4c-0.3-0.3-0.8-0.5-1.4-0.5c-0.5,0-0.9,0.1-1.2,0.2c-0.3,0.1-0.6,0.3-0.9,0.6c-0.2,0.3-0.4,0.6-0.5,0.9
			c-0.1,0.4-0.2,0.7-0.2,1.2v5.3h-1.5V7.6H130.7z"/>
	</g>
	<g>
		<path class="st3" d="M92.1,28.7c-0.7-0.5-1.4-0.7-2.3-0.7c-0.8,0-1.4,0.1-2,0.4c-0.5,0.3-1,0.7-1.4,1.2s-0.6,1-0.8,1.7
			c-0.2,0.6-0.3,1.3-0.3,2c0,0.7,0.1,1.4,0.3,2.1c0.2,0.7,0.4,1.2,0.8,1.7c0.4,0.5,0.8,0.9,1.4,1.2c0.6,0.3,1.2,0.4,2,0.4
			c0.6,0,1.1-0.1,1.5-0.3c0.4-0.2,0.8-0.4,1.1-0.8c0.3-0.3,0.6-0.7,0.7-1.2c0.2-0.5,0.3-1,0.3-1.5h1.7c-0.2,1.6-0.7,2.9-1.7,3.8
			c-1,0.9-2.3,1.4-3.9,1.4c-1,0-1.9-0.2-2.6-0.5c-0.7-0.3-1.4-0.8-1.9-1.4c-0.5-0.6-0.9-1.3-1.1-2.1c-0.2-0.8-0.4-1.7-0.4-2.6
			s0.1-1.8,0.4-2.6c0.3-0.8,0.7-1.5,1.2-2.2c0.5-0.6,1.1-1.1,1.9-1.5c0.8-0.4,1.6-0.5,2.6-0.5c0.7,0,1.3,0.1,1.9,0.3
			c0.6,0.2,1.1,0.4,1.6,0.8c0.5,0.3,0.9,0.8,1.2,1.3c0.3,0.5,0.5,1.1,0.6,1.8h-1.7C93.2,29.8,92.7,29.2,92.1,28.7z"/>
		<path class="st3" d="M103.7,39.8v-1.5h0c-0.3,0.6-0.7,1-1.2,1.3c-0.5,0.3-1.1,0.4-1.8,0.4c-0.6,0-1.1-0.1-1.5-0.2
			c-0.4-0.2-0.7-0.4-1-0.7c-0.3-0.3-0.4-0.7-0.5-1.1c-0.1-0.4-0.2-0.9-0.2-1.4v-6.1h1.5v6.3c0,0.6,0.2,1,0.5,1.4
			c0.3,0.3,0.8,0.5,1.4,0.5c0.5,0,0.9-0.1,1.2-0.2c0.3-0.1,0.6-0.3,0.9-0.6c0.2-0.3,0.4-0.6,0.5-0.9c0.1-0.4,0.2-0.7,0.2-1.2v-5.3
			h1.5v9.3H103.7z"/>
		<path class="st3" d="M109,37.7c0.1,0.2,0.3,0.4,0.6,0.6c0.2,0.1,0.5,0.2,0.8,0.3c0.3,0.1,0.6,0.1,0.9,0.1c0.2,0,0.5,0,0.8-0.1
			c0.3,0,0.5-0.1,0.7-0.2c0.2-0.1,0.4-0.2,0.6-0.4c0.1-0.2,0.2-0.4,0.2-0.7c0-0.4-0.2-0.7-0.5-0.9c-0.3-0.2-0.7-0.4-1.1-0.5
			c-0.5-0.1-0.9-0.2-1.5-0.3c-0.5-0.1-1-0.2-1.5-0.4c-0.5-0.2-0.8-0.4-1.1-0.8c-0.3-0.3-0.5-0.8-0.5-1.4c0-0.5,0.1-0.9,0.3-1.2
			c0.2-0.3,0.5-0.6,0.8-0.8c0.3-0.2,0.7-0.4,1.1-0.5c0.4-0.1,0.8-0.2,1.2-0.2c0.5,0,1,0,1.5,0.1c0.4,0.1,0.8,0.2,1.2,0.5
			s0.6,0.5,0.8,0.9c0.2,0.4,0.3,0.9,0.4,1.4h-1.5c0-0.3-0.1-0.6-0.2-0.7c-0.1-0.2-0.3-0.4-0.5-0.5c-0.2-0.1-0.4-0.2-0.7-0.3
			c-0.2-0.1-0.5-0.1-0.7-0.1c-0.2,0-0.5,0-0.7,0.1c-0.2,0-0.4,0.1-0.6,0.2c-0.2,0.1-0.3,0.2-0.5,0.4c-0.1,0.2-0.2,0.3-0.2,0.6
			c0,0.3,0.1,0.5,0.3,0.7c0.2,0.2,0.4,0.3,0.7,0.4c0.3,0.1,0.6,0.2,1,0.3c0.4,0.1,0.7,0.2,1.1,0.2c0.4,0.1,0.8,0.2,1.1,0.3
			c0.4,0.1,0.7,0.3,1,0.5c0.3,0.2,0.5,0.4,0.7,0.7c0.2,0.3,0.3,0.7,0.3,1.1c0,0.6-0.1,1-0.4,1.4c-0.2,0.4-0.5,0.7-0.9,0.9
			c-0.4,0.2-0.8,0.4-1.3,0.5c-0.5,0.1-0.9,0.1-1.4,0.1c-0.5,0-1-0.1-1.5-0.2c-0.5-0.1-0.9-0.3-1.2-0.5c-0.4-0.2-0.7-0.6-0.9-1
			c-0.2-0.4-0.3-0.9-0.4-1.5h1.5C108.7,37.2,108.8,37.5,109,37.7z"/>
		<path class="st3" d="M121.2,30.4v1.4h-1.9v5.8c0,0.2,0,0.3,0,0.4c0,0.1,0.1,0.2,0.2,0.3c0.1,0.1,0.2,0.1,0.4,0.1
			c0.1,0,0.3,0,0.6,0h0.7v1.4H120c-0.4,0-0.7,0-1-0.1c-0.3-0.1-0.5-0.2-0.7-0.3c-0.2-0.1-0.3-0.3-0.4-0.6c-0.1-0.3-0.1-0.6-0.1-1
			v-5.9h-1.6v-1.4h1.6v-2.8h1.5v2.8H121.2z"/>
		<path class="st3" d="M123,33.2c0.2-0.6,0.5-1.1,0.9-1.6c0.4-0.4,0.9-0.8,1.4-1c0.6-0.3,1.2-0.4,2-0.4c0.7,0,1.4,0.1,2,0.4
			c0.6,0.3,1,0.6,1.4,1c0.4,0.4,0.7,1,0.9,1.6c0.2,0.6,0.3,1.2,0.3,1.9c0,0.7-0.1,1.3-0.3,1.9c-0.2,0.6-0.5,1.1-0.9,1.5
			c-0.4,0.4-0.9,0.8-1.4,1c-0.6,0.2-1.2,0.4-2,0.4c-0.7,0-1.4-0.1-2-0.4c-0.6-0.2-1-0.6-1.4-1c-0.4-0.4-0.7-1-0.9-1.5
			c-0.2-0.6-0.3-1.2-0.3-1.9C122.7,34.4,122.8,33.8,123,33.2z M124.5,36.6c0.2,0.4,0.4,0.8,0.6,1.1c0.3,0.3,0.6,0.5,0.9,0.7
			c0.4,0.2,0.7,0.2,1.1,0.2c0.4,0,0.8-0.1,1.1-0.2c0.4-0.2,0.7-0.4,0.9-0.7c0.3-0.3,0.5-0.7,0.6-1.1c0.2-0.4,0.2-0.9,0.2-1.5
			s-0.1-1.1-0.2-1.5c-0.2-0.4-0.4-0.8-0.6-1.1c-0.3-0.3-0.6-0.5-0.9-0.7c-0.4-0.2-0.7-0.2-1.1-0.2c-0.4,0-0.8,0.1-1.1,0.2
			c-0.4,0.2-0.7,0.4-0.9,0.7c-0.3,0.3-0.5,0.7-0.6,1.1c-0.2,0.4-0.2,0.9-0.2,1.5S124.4,36.2,124.5,36.6z"/>
		<path class="st3" d="M140.7,39.8v-1.3h0c-0.3,0.5-0.7,0.9-1.2,1.1c-0.5,0.2-1.1,0.3-1.8,0.3c-0.7,0-1.4-0.1-1.9-0.4
			c-0.5-0.3-1-0.6-1.3-1.1c-0.4-0.4-0.6-1-0.8-1.6c-0.2-0.6-0.3-1.2-0.3-1.9c0-0.7,0.1-1.3,0.3-1.9c0.2-0.6,0.4-1.1,0.8-1.5
			c0.4-0.4,0.8-0.8,1.3-1c0.5-0.3,1.2-0.4,1.9-0.4c0.2,0,0.5,0,0.8,0.1c0.3,0,0.6,0.1,0.8,0.2c0.3,0.1,0.5,0.3,0.8,0.5
			c0.2,0.2,0.5,0.4,0.6,0.7h0v-4.8h1.5v12.9H140.7z M135.2,36.5c0.1,0.4,0.3,0.8,0.5,1.1c0.2,0.3,0.5,0.6,0.9,0.8
			c0.4,0.2,0.8,0.3,1.3,0.3c0.5,0,1-0.1,1.3-0.3c0.4-0.2,0.7-0.5,0.9-0.8c0.2-0.3,0.4-0.7,0.5-1.1c0.1-0.4,0.2-0.8,0.2-1.3
			c0-0.5-0.1-0.9-0.2-1.3c-0.1-0.4-0.3-0.8-0.5-1.1c-0.2-0.3-0.5-0.6-0.9-0.8c-0.4-0.2-0.8-0.3-1.4-0.3c-0.5,0-1,0.1-1.3,0.3
			c-0.4,0.2-0.7,0.5-0.9,0.8c-0.2,0.3-0.4,0.7-0.5,1.2c-0.1,0.4-0.1,0.9-0.1,1.3C135,35.6,135.1,36,135.2,36.5z"/>
		<path class="st3" d="M148.6,41c-0.2,0.5-0.4,0.8-0.5,1.2c-0.2,0.3-0.4,0.6-0.6,0.8c-0.2,0.2-0.4,0.3-0.7,0.4
			c-0.3,0.1-0.6,0.1-0.9,0.1c-0.2,0-0.4,0-0.5,0c-0.2,0-0.4-0.1-0.5-0.1v-1.4c0.1,0.1,0.3,0.1,0.5,0.2c0.2,0,0.3,0.1,0.4,0.1
			c0.3,0,0.6-0.1,0.8-0.2c0.2-0.2,0.4-0.4,0.5-0.6l0.6-1.6l-3.7-9.3h1.7l2.7,7.6h0l2.6-7.6h1.6L148.6,41z"/>
	</g>
	<g>
		<path class="st3" d="M85.3,47.9c-0.6-0.4-1.3-0.6-2.2-0.6c-0.4,0-0.7,0-1.1,0.1c-0.3,0.1-0.7,0.2-0.9,0.4
			c-0.3,0.2-0.5,0.4-0.7,0.7c-0.2,0.3-0.2,0.6-0.2,1.1c0,0.4,0.1,0.7,0.4,1c0.2,0.2,0.5,0.4,0.9,0.6c0.4,0.2,0.8,0.3,1.3,0.4
			c0.5,0.1,1,0.2,1.5,0.3c0.5,0.1,1,0.3,1.5,0.4c0.5,0.2,0.9,0.4,1.3,0.7c0.4,0.3,0.7,0.6,0.9,1c0.2,0.4,0.4,1,0.4,1.6
			c0,0.7-0.2,1.3-0.5,1.8c-0.3,0.5-0.7,0.9-1.2,1.2c-0.5,0.3-1,0.5-1.6,0.7c-0.6,0.1-1.2,0.2-1.8,0.2c-0.7,0-1.4-0.1-2-0.3
			c-0.6-0.2-1.2-0.5-1.7-0.8c-0.5-0.4-0.9-0.8-1.2-1.4c-0.3-0.6-0.4-1.2-0.4-2h1.6c0,0.5,0.1,1,0.3,1.4c0.2,0.4,0.5,0.7,0.8,1
			s0.7,0.4,1.2,0.6c0.5,0.1,0.9,0.2,1.4,0.2c0.4,0,0.8,0,1.2-0.1c0.4-0.1,0.7-0.2,1.1-0.4c0.3-0.2,0.6-0.4,0.8-0.7
			c0.2-0.3,0.3-0.7,0.3-1.2c0-0.4-0.1-0.8-0.4-1.1c-0.2-0.3-0.5-0.5-0.9-0.7c-0.4-0.2-0.8-0.3-1.3-0.4c-0.5-0.1-1-0.2-1.5-0.3
			c-0.5-0.1-1-0.2-1.5-0.4c-0.5-0.2-0.9-0.3-1.3-0.6c-0.4-0.2-0.7-0.6-0.9-1c-0.2-0.4-0.4-0.9-0.4-1.5c0-0.7,0.1-1.2,0.4-1.7
			c0.3-0.5,0.6-0.9,1.1-1.2c0.4-0.3,0.9-0.5,1.5-0.7c0.6-0.2,1.1-0.2,1.7-0.2c0.7,0,1.3,0.1,1.8,0.2c0.6,0.2,1.1,0.4,1.5,0.7
			c0.4,0.3,0.8,0.8,1,1.3c0.2,0.5,0.4,1.1,0.4,1.8h-1.6C86.2,49,85.9,48.3,85.3,47.9z"/>
		<path class="st3" d="M97.3,58.5c-0.7,0.5-1.6,0.8-2.6,0.8c-0.7,0-1.4-0.1-1.9-0.4c-0.5-0.2-1-0.6-1.4-1c-0.4-0.4-0.7-1-0.8-1.6
			s-0.3-1.3-0.3-2c0-0.7,0.1-1.4,0.3-2c0.2-0.6,0.5-1.1,0.9-1.5c0.4-0.4,0.9-0.8,1.4-1c0.5-0.2,1.1-0.4,1.8-0.4
			c0.8,0,1.5,0.2,2.1,0.5c0.5,0.3,1,0.8,1.3,1.3c0.3,0.5,0.6,1.1,0.7,1.7c0.1,0.6,0.2,1.2,0.2,1.8h-7c0,0.4,0,0.8,0.1,1.2
			c0.1,0.4,0.3,0.7,0.5,1c0.2,0.3,0.5,0.5,0.9,0.7c0.4,0.2,0.8,0.3,1.3,0.3c0.7,0,1.2-0.2,1.6-0.5c0.4-0.3,0.7-0.8,0.8-1.4h1.5
			C98.4,57.1,98,57.9,97.3,58.5z M96.9,52.5c-0.1-0.3-0.3-0.6-0.6-0.8c-0.2-0.2-0.5-0.4-0.8-0.6c-0.3-0.1-0.7-0.2-1.1-0.2
			c-0.4,0-0.8,0.1-1.1,0.2s-0.6,0.3-0.8,0.6c-0.2,0.2-0.4,0.5-0.5,0.8c-0.1,0.3-0.2,0.7-0.2,1h5.4C97.1,53.1,97.1,52.8,96.9,52.5z"
			/>
		<path class="st3" d="M102.1,49.7v2h0c0.4-0.8,0.8-1.3,1.4-1.7c0.5-0.4,1.2-0.5,2.1-0.5v1.6c-0.6,0-1.1,0.1-1.6,0.3
			c-0.4,0.2-0.8,0.4-1,0.7c-0.3,0.3-0.5,0.7-0.6,1.2c-0.1,0.5-0.2,1-0.2,1.6v4.2h-1.5v-9.3H102.1z"/>
		<path class="st3" d="M109.6,59.1l-3.5-9.3h1.7l2.6,7.8h0l2.5-7.8h1.6l-3.4,9.3H109.6z"/>
		<path class="st3" d="M116.5,48v-1.9h1.5V48H116.5z M118.1,49.7v9.3h-1.5v-9.3H118.1z"/>
		<path class="st3" d="M126.4,51.3c-0.4-0.3-0.9-0.5-1.6-0.5c-0.6,0-1,0.1-1.4,0.3c-0.4,0.2-0.7,0.5-0.9,0.8
			c-0.2,0.3-0.4,0.7-0.5,1.2c-0.1,0.4-0.1,0.9-0.1,1.4c0,0.4,0.1,0.9,0.2,1.3c0.1,0.4,0.3,0.8,0.5,1.1c0.2,0.3,0.5,0.6,0.8,0.8
			c0.3,0.2,0.8,0.3,1.2,0.3c0.8,0,1.4-0.2,1.8-0.6c0.4-0.4,0.7-1,0.8-1.7h1.6c-0.2,1.2-0.6,2-1.3,2.7c-0.7,0.6-1.6,0.9-2.8,0.9
			c-0.7,0-1.3-0.1-1.9-0.3c-0.5-0.2-1-0.6-1.4-1c-0.4-0.4-0.6-0.9-0.8-1.5c-0.2-0.6-0.3-1.2-0.3-1.9c0-0.7,0.1-1.4,0.3-2
			c0.2-0.6,0.5-1.1,0.8-1.6c0.4-0.5,0.8-0.8,1.4-1.1c0.6-0.3,1.2-0.4,1.9-0.4c0.5,0,1,0.1,1.5,0.2c0.5,0.1,0.9,0.3,1.2,0.6
			s0.6,0.6,0.9,1c0.2,0.4,0.4,0.9,0.4,1.4h-1.6C127,52.1,126.8,51.7,126.4,51.3z"/>
		<path class="st3" d="M137.4,58.5c-0.7,0.5-1.6,0.8-2.6,0.8c-0.7,0-1.4-0.1-1.9-0.4c-0.5-0.2-1-0.6-1.4-1c-0.4-0.4-0.7-1-0.8-1.6
			c-0.2-0.6-0.3-1.3-0.3-2c0-0.7,0.1-1.4,0.3-2c0.2-0.6,0.5-1.1,0.9-1.5c0.4-0.4,0.9-0.8,1.4-1c0.5-0.2,1.1-0.4,1.8-0.4
			c0.8,0,1.5,0.2,2.1,0.5c0.5,0.3,1,0.8,1.3,1.3c0.3,0.5,0.6,1.1,0.7,1.7c0.1,0.6,0.2,1.2,0.2,1.8h-7c0,0.4,0,0.8,0.1,1.2
			c0.1,0.4,0.3,0.7,0.5,1c0.2,0.3,0.5,0.5,0.9,0.7c0.4,0.2,0.8,0.3,1.3,0.3c0.7,0,1.2-0.2,1.6-0.5c0.4-0.3,0.7-0.8,0.8-1.4h1.5
			C138.6,57.1,138.1,57.9,137.4,58.5z M137.1,52.5c-0.1-0.3-0.3-0.6-0.6-0.8c-0.2-0.2-0.5-0.4-0.8-0.6c-0.3-0.1-0.7-0.2-1.1-0.2
			c-0.4,0-0.8,0.1-1.1,0.2c-0.3,0.1-0.6,0.3-0.8,0.6c-0.2,0.2-0.4,0.5-0.5,0.8c-0.1,0.3-0.2,0.7-0.2,1h5.4
			C137.3,53.1,137.2,52.8,137.1,52.5z"/>
	</g>
</g>
</svg>
